<svg width="477" height="279" viewBox="0 0 477 279" fill="none" xmlns="http://www.w3.org/2000/svg">
<g filter="url(#filter0_dd_321_4027)">
<path d="M4 10C4 7.23858 6.23858 5 9 5H469C471.761 5 474 7.23858 474 10V268C474 270.761 471.761 273 469 273H9C6.23858 273 4 270.761 4 268V10Z" fill="white"/>
<path d="M4.5 10C4.5 7.51472 6.51472 5.5 9 5.5H469C471.485 5.5 473.5 7.51472 473.5 10V268C473.5 270.485 471.485 272.5 469 272.5H9C6.51472 272.5 4.5 270.485 4.5 268V10Z" stroke="white"/>
</g>
<g filter="url(#filter1_i_321_4027)">
<rect x="22.3843" y="28" width="422.84" height="20" rx="10" fill="#F0F0F0"/>
</g>
<g filter="url(#filter2_i_321_4027)">
<path d="M23.9829 38C23.9829 33.5817 27.5646 30 31.9829 30H362.894V46H31.9829C27.5646 46 23.9829 42.4183 23.9829 38Z" fill="#205CAE"/>
</g>
<g filter="url(#filter3_i_321_4027)">
<path d="M442.826 38C442.826 42.4183 439.245 46 434.826 46L257.384 46L257.384 30L434.826 30C439.245 30 442.826 33.5817 442.826 38Z" fill="#B12F15"/>
</g>
<g filter="url(#filter4_i_321_4027)">
<rect x="250.19" y="30" width="140.68" height="16" fill="#188C7C"/>
</g>
<g filter="url(#filter5_i_321_4027)">
<rect x="390.87" y="30" width="19.983" height="16" fill="#23A520"/>
</g>
<g filter="url(#filter6_i_321_4027)">
<rect x="410.853" y="30" width="19.1837" height="16" fill="#A42A82"/>
</g>
<mask id="mask0_321_4027" style="mask-type:alpha" maskUnits="userSpaceOnUse" x="22" y="68" width="41" height="40">
<circle cx="42.3835" cy="88" r="20" fill="#919191"/>
</mask>
<g mask="url(#mask0_321_4027)">
<g filter="url(#filter7_d_321_4027)">
<rect x="31.3835" y="85" width="23" height="19" fill="#F5841F"/>
<path d="M38.3835 94.5C38.3835 92.0147 40.3983 90 42.8835 90C45.3688 90 47.3835 92.0147 47.3835 94.5V99H38.3835V94.5Z" fill="#1B2B41"/>
<path d="M31.3835 80.5C31.3835 78.0147 33.3983 76 35.8835 76C38.3688 76 40.3835 78.0147 40.3835 80.5V85H31.3835V80.5Z" fill="#1B2B41"/>
<path d="M45.3835 80.5C45.3835 78.0147 47.3983 76 49.8835 76C52.3688 76 54.3835 78.0147 54.3835 80.5V85H45.3835V80.5Z" fill="#1B2B41"/>
<rect x="34.3835" y="99" width="17" height="5" fill="#1B2B41"/>
<rect x="31.3835" y="94" width="2" height="5" transform="rotate(-90 31.3835 94)" fill="#1B2B41"/>
<rect x="49.3835" y="94" width="2" height="5" transform="rotate(-90 49.3835 94)" fill="#1B2B41"/>
</g>
</g>
<path d="M110.247 89.0586C110.247 90.2109 110.093 91.2637 109.784 92.2168C109.479 93.1699 109.061 93.8926 108.53 94.3848C108.003 94.873 107.389 95.1172 106.69 95.1172C106.003 95.1172 105.475 94.8691 105.108 94.373C104.741 93.873 104.557 93.1504 104.557 92.2051C104.557 91.1504 104.718 90.1465 105.038 89.1934C105.358 88.2363 105.78 87.5156 106.303 87.0312C106.831 86.543 107.432 86.2988 108.108 86.2988C109.534 86.2988 110.247 87.2188 110.247 89.0586ZM108.05 87.1426C107.608 87.1426 107.2 87.3691 106.825 87.8223C106.45 88.2715 106.145 88.9023 105.911 89.7148C105.68 90.5234 105.565 91.3496 105.565 92.1934C105.565 92.8652 105.663 93.3809 105.858 93.7402C106.053 94.0996 106.368 94.2793 106.802 94.2793C107.251 94.2793 107.659 94.0566 108.026 93.6113C108.393 93.166 108.686 92.5254 108.905 91.6895C109.128 90.8535 109.239 89.9688 109.239 89.0352C109.239 87.7734 108.843 87.1426 108.05 87.1426ZM115.927 95H114.873L113.625 91.2441L110.806 95H109.716L113.209 90.4531L111.668 86.4336H112.675L113.865 89.7324L116.461 86.4336H117.55L114.298 90.5L115.927 95ZM122.68 88.9414C122.68 89.6992 122.571 90.4941 122.352 91.3262C122.133 92.1543 121.844 92.8574 121.485 93.4355C121.129 94.0098 120.698 94.4336 120.19 94.707C119.682 94.9805 119.092 95.1172 118.42 95.1172C117.889 95.1172 117.416 95.0508 117.002 94.918V93.9922C117.526 94.1758 118.006 94.2676 118.444 94.2676C119.233 94.2676 119.871 93.9922 120.36 93.4414C120.848 92.8906 121.217 92.0293 121.467 90.8574H121.409C121.209 91.1504 120.95 91.3828 120.629 91.5547C120.313 91.7227 119.961 91.8066 119.575 91.8066C118.914 91.8066 118.405 91.6152 118.045 91.2324C117.686 90.8457 117.506 90.2812 117.506 89.5391C117.506 88.9414 117.631 88.3945 117.881 87.8984C118.135 87.3984 118.487 87.0098 118.936 86.7324C119.389 86.4512 119.897 86.3105 120.459 86.3105C121.163 86.3105 121.707 86.5352 122.094 86.9844C122.485 87.4297 122.68 88.082 122.68 88.9414ZM120.424 87.1426C119.838 87.1426 119.368 87.3633 119.012 87.8047C118.657 88.2461 118.479 88.8125 118.479 89.5039C118.479 89.9883 118.584 90.3594 118.795 90.6172C119.01 90.875 119.329 91.0039 119.75 91.0039C120.047 91.0039 120.321 90.9492 120.571 90.8398C120.821 90.7266 121.032 90.5664 121.204 90.3594C121.379 90.1523 121.506 89.9297 121.584 89.6914C121.666 89.4531 121.707 89.1582 121.707 88.8066C121.707 88.2949 121.592 87.8906 121.362 87.5938C121.131 87.293 120.819 87.1426 120.424 87.1426ZM127.247 86.2988C127.927 86.2988 128.456 86.4688 128.835 86.8086C129.218 87.1445 129.409 87.6035 129.409 88.1855C129.409 88.6895 129.257 89.1289 128.952 89.5039C128.648 89.8789 128.128 90.2227 127.394 90.5352C127.89 90.8398 128.241 91.1621 128.448 91.502C128.656 91.8418 128.759 92.2363 128.759 92.6855C128.759 93.1621 128.642 93.5879 128.407 93.9629C128.173 94.334 127.835 94.6191 127.394 94.8184C126.956 95.0176 126.441 95.1172 125.847 95.1172C125.105 95.1172 124.523 94.9258 124.101 94.543C123.679 94.1562 123.468 93.6328 123.468 92.9727C123.468 92.3945 123.654 91.8945 124.025 91.4727C124.396 91.0508 124.974 90.6914 125.759 90.3945C125.388 90.125 125.122 89.8438 124.962 89.5508C124.806 89.2539 124.728 88.918 124.728 88.543C124.728 88.1094 124.833 87.7227 125.044 87.3828C125.259 87.0391 125.56 86.7734 125.947 86.5859C126.333 86.3945 126.767 86.2988 127.247 86.2988ZM126.468 90.8984C125.745 91.1328 125.234 91.4141 124.933 91.7422C124.636 92.0664 124.488 92.4609 124.488 92.9258C124.488 93.3438 124.622 93.6758 124.892 93.9219C125.161 94.168 125.515 94.291 125.952 94.291C126.495 94.291 126.929 94.1465 127.253 93.8574C127.577 93.5684 127.739 93.1855 127.739 92.709C127.739 92.3223 127.638 91.9824 127.435 91.6895C127.232 91.3965 126.909 91.1328 126.468 90.8984ZM127.177 87.1426C126.732 87.1426 126.376 87.2715 126.111 87.5293C125.845 87.7832 125.712 88.125 125.712 88.5547C125.712 88.875 125.788 89.1562 125.941 89.3984C126.093 89.6406 126.341 89.8672 126.685 90.0781C127.314 89.8438 127.759 89.5879 128.021 89.3105C128.282 89.0293 128.413 88.6895 128.413 88.291C128.413 87.9395 128.3 87.6602 128.073 87.4531C127.851 87.2461 127.552 87.1426 127.177 87.1426ZM135.635 93.043H134.27L133.848 95H132.887L133.32 93.043H129.477L129.647 92.1172L134.533 86.3867H135.682L134.469 92.1465H135.828L135.635 93.043ZM133.514 92.1465C133.693 91.2871 133.846 90.5586 133.971 89.9609C134.096 89.3633 134.322 88.4941 134.65 87.3535H134.604C134.537 87.4668 134.406 87.6562 134.211 87.9219C134.02 88.1836 133.879 88.3711 133.789 88.4844L130.666 92.1465H133.514ZM139.159 94.5664C139.159 94.2656 139.237 94.0273 139.393 93.8516C139.554 93.6719 139.772 93.582 140.05 93.582C140.218 93.582 140.352 93.6328 140.454 93.7344C140.559 93.8359 140.612 93.9902 140.612 94.1973C140.612 94.4746 140.534 94.707 140.378 94.8945C140.222 95.0781 140.011 95.1699 139.745 95.1699C139.565 95.1699 139.423 95.1191 139.317 95.0176C139.212 94.916 139.159 94.7656 139.159 94.5664ZM142.218 94.5664C142.218 94.2656 142.296 94.0273 142.452 93.8516C142.612 93.6719 142.831 93.582 143.108 93.582C143.276 93.582 143.411 93.6328 143.513 93.7344C143.618 93.8359 143.671 93.9902 143.671 94.1973C143.671 94.4746 143.593 94.707 143.436 94.8945C143.28 95.0781 143.069 95.1699 142.804 95.1699C142.624 95.1699 142.481 95.1191 142.376 95.0176C142.27 94.916 142.218 94.7656 142.218 94.5664ZM136.112 94.5664C136.112 94.2656 136.19 94.0273 136.347 93.8516C136.507 93.6719 136.725 93.582 137.003 93.582C137.171 93.582 137.306 93.6328 137.407 93.7344C137.513 93.8359 137.565 93.9902 137.565 94.1973C137.565 94.4746 137.487 94.707 137.331 94.8945C137.175 95.0781 136.964 95.1699 136.698 95.1699C136.518 95.1699 136.376 95.1191 136.27 95.0176C136.165 94.916 136.112 94.7656 136.112 94.5664ZM148.853 95L147.881 87.4062H147.834C147.806 87.6875 147.75 88.0742 147.664 88.5664C147.582 89.0547 147.51 89.4434 147.447 89.7324L146.334 95H145.385L147.195 86.4336H148.625L149.498 93.4883H149.551L153.412 86.4336H154.97L153.195 95H152.176C152.668 92.6953 153.045 90.9277 153.306 89.6973C153.568 88.4629 153.752 87.6953 153.857 87.3945H153.822L149.621 95H148.853ZM161.161 95H160.182L161.02 90.9688H157.153L156.303 95H155.307L157.118 86.4336H158.114L157.346 90.0781H161.213L161.993 86.4336H162.977L161.161 95ZM169.261 88.5781L169.115 89.2051L167.878 89.3457C168.038 89.5879 168.119 89.8965 168.119 90.2715C168.119 91.0176 167.89 91.6133 167.433 92.0586C166.98 92.5 166.372 92.7207 165.611 92.7207C165.396 92.7207 165.232 92.7051 165.119 92.6738C164.576 92.8809 164.304 93.1367 164.304 93.4414C164.304 93.6016 164.369 93.709 164.497 93.7637C164.626 93.8145 164.814 93.8555 165.06 93.8867L165.746 93.9688C166.453 94.0547 166.964 94.2266 167.281 94.4844C167.601 94.7422 167.761 95.1211 167.761 95.6211C167.761 96.3398 167.476 96.8965 166.906 97.291C166.335 97.6855 165.533 97.8828 164.497 97.8828C163.74 97.8828 163.146 97.7383 162.716 97.4492C162.287 97.1641 162.072 96.7598 162.072 96.2363C162.072 95.8262 162.212 95.4707 162.494 95.1699C162.775 94.8691 163.23 94.6133 163.859 94.4023C163.554 94.2422 163.402 94.0059 163.402 93.6934C163.402 93.4238 163.501 93.1934 163.701 93.002C163.9 92.8066 164.177 92.625 164.533 92.457C164.287 92.332 164.085 92.1484 163.929 91.9062C163.773 91.6602 163.695 91.375 163.695 91.0508C163.695 90.293 163.927 89.6719 164.392 89.1875C164.861 88.7031 165.458 88.4609 166.185 88.4609C166.49 88.4609 166.79 88.5 167.087 88.5781H169.261ZM163.021 96.1426C163.021 96.4434 163.148 96.6816 163.402 96.8574C163.656 97.0332 164.033 97.1211 164.533 97.1211C165.244 97.1211 165.798 96.9961 166.197 96.7461C166.599 96.5 166.8 96.1504 166.8 95.6973C166.8 95.4551 166.695 95.2637 166.484 95.123C166.273 94.9824 165.913 94.8848 165.406 94.8301L164.474 94.7363C164.005 94.834 163.646 95.0059 163.396 95.252C163.146 95.498 163.021 95.7949 163.021 96.1426ZM164.65 91.0156C164.65 91.3477 164.738 91.6016 164.913 91.7773C165.089 91.9492 165.333 92.0352 165.646 92.0352C165.954 92.0352 166.224 91.9531 166.454 91.7891C166.685 91.625 166.861 91.4004 166.982 91.1152C167.107 90.8262 167.169 90.5137 167.169 90.1777C167.169 89.8574 167.083 89.6133 166.912 89.4453C166.74 89.2773 166.494 89.1934 166.173 89.1934C165.869 89.1934 165.601 89.2734 165.371 89.4336C165.144 89.5898 164.966 89.8105 164.837 90.0957C164.712 90.377 164.65 90.6836 164.65 91.0156Z" fill="#919191"/>
<path d="M414.163 92.5156C414.163 91.6992 414.28 90.8887 414.514 90.084C414.753 89.2793 415.073 88.5938 415.475 88.0273C415.878 87.457 416.358 87.0293 416.917 86.7441C417.475 86.4551 418.114 86.3105 418.833 86.3105C419.266 86.3105 419.626 86.3555 419.911 86.4453L419.706 87.2949C419.44 87.209 419.108 87.166 418.71 87.166C417.882 87.166 417.184 87.457 416.618 88.0391C416.055 88.6211 415.641 89.4863 415.376 90.6348H415.423C415.653 90.3262 415.938 90.0801 416.278 89.8965C416.622 89.7129 417.001 89.6211 417.415 89.6211C418.016 89.6211 418.493 89.8145 418.844 90.2012C419.196 90.584 419.372 91.1113 419.372 91.7832C419.372 92.4121 419.241 92.9883 418.979 93.5117C418.721 94.0312 418.37 94.4297 417.925 94.707C417.479 94.9805 416.969 95.1172 416.395 95.1172C415.684 95.1172 415.134 94.8926 414.743 94.4434C414.356 93.9941 414.163 93.3516 414.163 92.5156ZM416.501 94.291C416.868 94.291 417.194 94.1855 417.479 93.9746C417.768 93.7637 417.991 93.4727 418.147 93.1016C418.307 92.7305 418.387 92.3242 418.387 91.8828C418.387 90.9141 417.956 90.4297 417.093 90.4297C416.835 90.4297 416.585 90.4863 416.343 90.5996C416.1 90.709 415.885 90.8574 415.698 91.0449C415.51 91.2285 415.37 91.4316 415.276 91.6543C415.182 91.877 415.135 92.1797 415.135 92.5625C415.135 93.0977 415.253 93.5195 415.487 93.8281C415.725 94.1367 416.063 94.291 416.501 94.291ZM426.259 89.0586C426.259 90.2109 426.105 91.2637 425.796 92.2168C425.492 93.1699 425.074 93.8926 424.543 94.3848C424.015 94.873 423.402 95.1172 422.703 95.1172C422.015 95.1172 421.488 94.8691 421.121 94.373C420.753 93.873 420.57 93.1504 420.57 92.2051C420.57 91.1504 420.73 90.1465 421.05 89.1934C421.371 88.2363 421.793 87.5156 422.316 87.0312C422.843 86.543 423.445 86.2988 424.121 86.2988C425.546 86.2988 426.259 87.2188 426.259 89.0586ZM424.062 87.1426C423.621 87.1426 423.212 87.3691 422.837 87.8223C422.462 88.2715 422.158 88.9023 421.923 89.7148C421.693 90.5234 421.578 91.3496 421.578 92.1934C421.578 92.8652 421.675 93.3809 421.871 93.7402C422.066 94.0996 422.38 94.2793 422.814 94.2793C423.263 94.2793 423.671 94.0566 424.039 93.6113C424.406 93.166 424.699 92.5254 424.918 91.6895C425.14 90.8535 425.252 89.9688 425.252 89.0352C425.252 87.7734 424.855 87.1426 424.062 87.1426ZM434.94 86.4336L428.582 95H427.692L434.055 86.4336H434.94ZM433.862 90.4766C433.6 90.4766 433.366 90.6035 433.159 90.8574C432.955 91.1074 432.791 91.4746 432.666 91.959C432.545 92.4434 432.485 92.9121 432.485 93.3652C432.485 94.041 432.692 94.3789 433.106 94.3789C433.36 94.3789 433.588 94.252 433.791 93.998C433.995 93.7441 434.163 93.3574 434.295 92.8379C434.432 92.3145 434.5 91.8516 434.5 91.4492C434.5 90.8008 434.288 90.4766 433.862 90.4766ZM435.315 91.3613C435.315 91.7793 435.252 92.2402 435.127 92.7441C435.006 93.248 434.846 93.6738 434.647 94.0215C434.452 94.3652 434.215 94.6348 433.938 94.8301C433.664 95.0215 433.36 95.1172 433.024 95.1172C432.594 95.1172 432.26 94.9727 432.022 94.6836C431.784 94.3906 431.664 93.9609 431.664 93.3945C431.664 92.7461 431.762 92.125 431.957 91.5312C432.157 90.9336 432.424 90.4863 432.76 90.1895C433.096 89.8926 433.487 89.7441 433.932 89.7441C434.385 89.7441 434.729 89.8848 434.963 90.166C435.198 90.4434 435.315 90.8418 435.315 91.3613ZM429.52 87.043C429.262 87.043 429.03 87.166 428.823 87.4121C428.616 87.6582 428.45 88.0254 428.325 88.5137C428.2 88.998 428.137 89.4727 428.137 89.9375C428.137 90.6094 428.346 90.9453 428.764 90.9453C428.967 90.9453 429.151 90.8691 429.315 90.7168C429.479 90.5605 429.621 90.3379 429.743 90.0488C429.868 89.7559 429.967 89.4141 430.041 89.0234C430.116 88.6289 430.153 88.293 430.153 88.0156C430.153 87.3672 429.942 87.043 429.52 87.043ZM430.973 87.9336C430.973 88.3555 430.911 88.8203 430.786 89.3281C430.661 89.832 430.498 90.2559 430.299 90.5996C430.104 90.9434 429.87 91.2109 429.596 91.4023C429.323 91.5938 429.016 91.6895 428.676 91.6895C428.25 91.6895 427.918 91.543 427.68 91.25C427.442 90.957 427.323 90.5273 427.323 89.9609C427.323 89.3125 427.42 88.6914 427.616 88.0977C427.815 87.5 428.082 87.0527 428.418 86.7559C428.754 86.459 429.145 86.3105 429.59 86.3105C430.043 86.3105 430.387 86.4512 430.621 86.7324C430.856 87.0137 430.973 87.4141 430.973 87.9336Z" fill="#919191"/>
<circle cx="397.884" cy="90.5" r="6.5" fill="#205CAE"/>
<mask id="mask1_321_4027" style="mask-type:alpha" maskUnits="userSpaceOnUse" x="22" y="114" width="41" height="40">
<circle cx="42.3835" cy="134" r="20" fill="#919191"/>
</mask>
<g mask="url(#mask1_321_4027)">
<g filter="url(#filter8_d_321_4027)">
<rect x="31.3835" y="131" width="23" height="19" fill="#F5841F"/>
<path d="M38.3835 140.5C38.3835 138.015 40.3983 136 42.8835 136C45.3688 136 47.3835 138.015 47.3835 140.5V145H38.3835V140.5Z" fill="#1B2B41"/>
<path d="M31.3835 126.5C31.3835 124.015 33.3983 122 35.8835 122C38.3688 122 40.3835 124.015 40.3835 126.5V131H31.3835V126.5Z" fill="#1B2B41"/>
<path d="M45.3835 126.5C45.3835 124.015 47.3983 122 49.8835 122C52.3688 122 54.3835 124.015 54.3835 126.5V131H45.3835V126.5Z" fill="#1B2B41"/>
<rect x="34.3835" y="145" width="17" height="5" fill="#1B2B41"/>
<rect x="31.3835" y="140" width="2" height="5" transform="rotate(-90 31.3835 140)" fill="#1B2B41"/>
<rect x="49.3835" y="140" width="2" height="5" transform="rotate(-90 49.3835 140)" fill="#1B2B41"/>
</g>
</g>
<path d="M110.247 135.059C110.247 136.211 110.093 137.264 109.784 138.217C109.479 139.17 109.061 139.893 108.53 140.385C108.003 140.873 107.389 141.117 106.69 141.117C106.003 141.117 105.475 140.869 105.108 140.373C104.741 139.873 104.557 139.15 104.557 138.205C104.557 137.15 104.718 136.146 105.038 135.193C105.358 134.236 105.78 133.516 106.303 133.031C106.831 132.543 107.432 132.299 108.108 132.299C109.534 132.299 110.247 133.219 110.247 135.059ZM108.05 133.143C107.608 133.143 107.2 133.369 106.825 133.822C106.45 134.271 106.145 134.902 105.911 135.715C105.68 136.523 105.565 137.35 105.565 138.193C105.565 138.865 105.663 139.381 105.858 139.74C106.053 140.1 106.368 140.279 106.802 140.279C107.251 140.279 107.659 140.057 108.026 139.611C108.393 139.166 108.686 138.525 108.905 137.689C109.128 136.854 109.239 135.969 109.239 135.035C109.239 133.773 108.843 133.143 108.05 133.143ZM115.927 141H114.873L113.625 137.244L110.806 141H109.716L113.209 136.453L111.668 132.434H112.675L113.865 135.732L116.461 132.434H117.55L114.298 136.5L115.927 141ZM122.68 134.941C122.68 135.699 122.571 136.494 122.352 137.326C122.133 138.154 121.844 138.857 121.485 139.436C121.129 140.01 120.698 140.434 120.19 140.707C119.682 140.98 119.092 141.117 118.42 141.117C117.889 141.117 117.416 141.051 117.002 140.918V139.992C117.526 140.176 118.006 140.268 118.444 140.268C119.233 140.268 119.871 139.992 120.36 139.441C120.848 138.891 121.217 138.029 121.467 136.857H121.409C121.209 137.15 120.95 137.383 120.629 137.555C120.313 137.723 119.961 137.807 119.575 137.807C118.914 137.807 118.405 137.615 118.045 137.232C117.686 136.846 117.506 136.281 117.506 135.539C117.506 134.941 117.631 134.395 117.881 133.898C118.135 133.398 118.487 133.01 118.936 132.732C119.389 132.451 119.897 132.311 120.459 132.311C121.163 132.311 121.707 132.535 122.094 132.984C122.485 133.43 122.68 134.082 122.68 134.941ZM120.424 133.143C119.838 133.143 119.368 133.363 119.012 133.805C118.657 134.246 118.479 134.812 118.479 135.504C118.479 135.988 118.584 136.359 118.795 136.617C119.01 136.875 119.329 137.004 119.75 137.004C120.047 137.004 120.321 136.949 120.571 136.84C120.821 136.727 121.032 136.566 121.204 136.359C121.379 136.152 121.506 135.93 121.584 135.691C121.666 135.453 121.707 135.158 121.707 134.807C121.707 134.295 121.592 133.891 121.362 133.594C121.131 133.293 120.819 133.143 120.424 133.143ZM127.247 132.299C127.927 132.299 128.456 132.469 128.835 132.809C129.218 133.145 129.409 133.604 129.409 134.186C129.409 134.689 129.257 135.129 128.952 135.504C128.648 135.879 128.128 136.223 127.394 136.535C127.89 136.84 128.241 137.162 128.448 137.502C128.656 137.842 128.759 138.236 128.759 138.686C128.759 139.162 128.642 139.588 128.407 139.963C128.173 140.334 127.835 140.619 127.394 140.818C126.956 141.018 126.441 141.117 125.847 141.117C125.105 141.117 124.523 140.926 124.101 140.543C123.679 140.156 123.468 139.633 123.468 138.973C123.468 138.395 123.654 137.895 124.025 137.473C124.396 137.051 124.974 136.691 125.759 136.395C125.388 136.125 125.122 135.844 124.962 135.551C124.806 135.254 124.728 134.918 124.728 134.543C124.728 134.109 124.833 133.723 125.044 133.383C125.259 133.039 125.56 132.773 125.947 132.586C126.333 132.395 126.767 132.299 127.247 132.299ZM126.468 136.898C125.745 137.133 125.234 137.414 124.933 137.742C124.636 138.066 124.488 138.461 124.488 138.926C124.488 139.344 124.622 139.676 124.892 139.922C125.161 140.168 125.515 140.291 125.952 140.291C126.495 140.291 126.929 140.146 127.253 139.857C127.577 139.568 127.739 139.186 127.739 138.709C127.739 138.322 127.638 137.982 127.435 137.689C127.232 137.396 126.909 137.133 126.468 136.898ZM127.177 133.143C126.732 133.143 126.376 133.271 126.111 133.529C125.845 133.783 125.712 134.125 125.712 134.555C125.712 134.875 125.788 135.156 125.941 135.398C126.093 135.641 126.341 135.867 126.685 136.078C127.314 135.844 127.759 135.588 128.021 135.311C128.282 135.029 128.413 134.689 128.413 134.291C128.413 133.939 128.3 133.66 128.073 133.453C127.851 133.246 127.552 133.143 127.177 133.143ZM135.635 139.043H134.27L133.848 141H132.887L133.32 139.043H129.477L129.647 138.117L134.533 132.387H135.682L134.469 138.146H135.828L135.635 139.043ZM133.514 138.146C133.693 137.287 133.846 136.559 133.971 135.961C134.096 135.363 134.322 134.494 134.65 133.354H134.604C134.537 133.467 134.406 133.656 134.211 133.922C134.02 134.184 133.879 134.371 133.789 134.484L130.666 138.146H133.514ZM139.159 140.566C139.159 140.266 139.237 140.027 139.393 139.852C139.554 139.672 139.772 139.582 140.05 139.582C140.218 139.582 140.352 139.633 140.454 139.734C140.559 139.836 140.612 139.99 140.612 140.197C140.612 140.475 140.534 140.707 140.378 140.895C140.222 141.078 140.011 141.17 139.745 141.17C139.565 141.17 139.423 141.119 139.317 141.018C139.212 140.916 139.159 140.766 139.159 140.566ZM142.218 140.566C142.218 140.266 142.296 140.027 142.452 139.852C142.612 139.672 142.831 139.582 143.108 139.582C143.276 139.582 143.411 139.633 143.513 139.734C143.618 139.836 143.671 139.99 143.671 140.197C143.671 140.475 143.593 140.707 143.436 140.895C143.28 141.078 143.069 141.17 142.804 141.17C142.624 141.17 142.481 141.119 142.376 141.018C142.27 140.916 142.218 140.766 142.218 140.566ZM136.112 140.566C136.112 140.266 136.19 140.027 136.347 139.852C136.507 139.672 136.725 139.582 137.003 139.582C137.171 139.582 137.306 139.633 137.407 139.734C137.513 139.836 137.565 139.99 137.565 140.197C137.565 140.475 137.487 140.707 137.331 140.895C137.175 141.078 136.964 141.17 136.698 141.17C136.518 141.17 136.376 141.119 136.27 141.018C136.165 140.916 136.112 140.766 136.112 140.566ZM148.853 141L147.881 133.406H147.834C147.806 133.688 147.75 134.074 147.664 134.566C147.582 135.055 147.51 135.443 147.447 135.732L146.334 141H145.385L147.195 132.434H148.625L149.498 139.488H149.551L153.412 132.434H154.97L153.195 141H152.176C152.668 138.695 153.045 136.928 153.306 135.697C153.568 134.463 153.752 133.695 153.857 133.395H153.822L149.621 141H148.853ZM161.161 141H160.182L161.02 136.969H157.153L156.303 141H155.307L157.118 132.434H158.114L157.346 136.078H161.213L161.993 132.434H162.977L161.161 141ZM169.261 134.578L169.115 135.205L167.878 135.346C168.038 135.588 168.119 135.896 168.119 136.271C168.119 137.018 167.89 137.613 167.433 138.059C166.98 138.5 166.372 138.721 165.611 138.721C165.396 138.721 165.232 138.705 165.119 138.674C164.576 138.881 164.304 139.137 164.304 139.441C164.304 139.602 164.369 139.709 164.497 139.764C164.626 139.814 164.814 139.855 165.06 139.887L165.746 139.969C166.453 140.055 166.964 140.227 167.281 140.484C167.601 140.742 167.761 141.121 167.761 141.621C167.761 142.34 167.476 142.896 166.906 143.291C166.335 143.686 165.533 143.883 164.497 143.883C163.74 143.883 163.146 143.738 162.716 143.449C162.287 143.164 162.072 142.76 162.072 142.236C162.072 141.826 162.212 141.471 162.494 141.17C162.775 140.869 163.23 140.613 163.859 140.402C163.554 140.242 163.402 140.006 163.402 139.693C163.402 139.424 163.501 139.193 163.701 139.002C163.9 138.807 164.177 138.625 164.533 138.457C164.287 138.332 164.085 138.148 163.929 137.906C163.773 137.66 163.695 137.375 163.695 137.051C163.695 136.293 163.927 135.672 164.392 135.188C164.861 134.703 165.458 134.461 166.185 134.461C166.49 134.461 166.79 134.5 167.087 134.578H169.261ZM163.021 142.143C163.021 142.443 163.148 142.682 163.402 142.857C163.656 143.033 164.033 143.121 164.533 143.121C165.244 143.121 165.798 142.996 166.197 142.746C166.599 142.5 166.8 142.15 166.8 141.697C166.8 141.455 166.695 141.264 166.484 141.123C166.273 140.982 165.913 140.885 165.406 140.83L164.474 140.736C164.005 140.834 163.646 141.006 163.396 141.252C163.146 141.498 163.021 141.795 163.021 142.143ZM164.65 137.016C164.65 137.348 164.738 137.602 164.913 137.777C165.089 137.949 165.333 138.035 165.646 138.035C165.954 138.035 166.224 137.953 166.454 137.789C166.685 137.625 166.861 137.4 166.982 137.115C167.107 136.826 167.169 136.514 167.169 136.178C167.169 135.857 167.083 135.613 166.912 135.445C166.74 135.277 166.494 135.193 166.173 135.193C165.869 135.193 165.601 135.273 165.371 135.434C165.144 135.59 164.966 135.811 164.837 136.096C164.712 136.377 164.65 136.684 164.65 137.016Z" fill="#919191"/>
<path d="M414.163 138.516C414.163 137.699 414.28 136.889 414.514 136.084C414.753 135.279 415.073 134.594 415.475 134.027C415.878 133.457 416.358 133.029 416.917 132.744C417.475 132.455 418.114 132.311 418.833 132.311C419.266 132.311 419.626 132.355 419.911 132.445L419.706 133.295C419.44 133.209 419.108 133.166 418.71 133.166C417.882 133.166 417.184 133.457 416.618 134.039C416.055 134.621 415.641 135.486 415.376 136.635H415.423C415.653 136.326 415.938 136.08 416.278 135.896C416.622 135.713 417.001 135.621 417.415 135.621C418.016 135.621 418.493 135.814 418.844 136.201C419.196 136.584 419.372 137.111 419.372 137.783C419.372 138.412 419.241 138.988 418.979 139.512C418.721 140.031 418.37 140.43 417.925 140.707C417.479 140.98 416.969 141.117 416.395 141.117C415.684 141.117 415.134 140.893 414.743 140.443C414.356 139.994 414.163 139.352 414.163 138.516ZM416.501 140.291C416.868 140.291 417.194 140.186 417.479 139.975C417.768 139.764 417.991 139.473 418.147 139.102C418.307 138.73 418.387 138.324 418.387 137.883C418.387 136.914 417.956 136.43 417.093 136.43C416.835 136.43 416.585 136.486 416.343 136.6C416.1 136.709 415.885 136.857 415.698 137.045C415.51 137.229 415.37 137.432 415.276 137.654C415.182 137.877 415.135 138.18 415.135 138.562C415.135 139.098 415.253 139.52 415.487 139.828C415.725 140.137 416.063 140.291 416.501 140.291ZM426.259 135.059C426.259 136.211 426.105 137.264 425.796 138.217C425.492 139.17 425.074 139.893 424.543 140.385C424.015 140.873 423.402 141.117 422.703 141.117C422.015 141.117 421.488 140.869 421.121 140.373C420.753 139.873 420.57 139.15 420.57 138.205C420.57 137.15 420.73 136.146 421.05 135.193C421.371 134.236 421.793 133.516 422.316 133.031C422.843 132.543 423.445 132.299 424.121 132.299C425.546 132.299 426.259 133.219 426.259 135.059ZM424.062 133.143C423.621 133.143 423.212 133.369 422.837 133.822C422.462 134.271 422.158 134.902 421.923 135.715C421.693 136.523 421.578 137.35 421.578 138.193C421.578 138.865 421.675 139.381 421.871 139.74C422.066 140.1 422.38 140.279 422.814 140.279C423.263 140.279 423.671 140.057 424.039 139.611C424.406 139.166 424.699 138.525 424.918 137.689C425.14 136.854 425.252 135.969 425.252 135.035C425.252 133.773 424.855 133.143 424.062 133.143ZM434.94 132.434L428.582 141H427.692L434.055 132.434H434.94ZM433.862 136.477C433.6 136.477 433.366 136.604 433.159 136.857C432.955 137.107 432.791 137.475 432.666 137.959C432.545 138.443 432.485 138.912 432.485 139.365C432.485 140.041 432.692 140.379 433.106 140.379C433.36 140.379 433.588 140.252 433.791 139.998C433.995 139.744 434.163 139.357 434.295 138.838C434.432 138.314 434.5 137.852 434.5 137.449C434.5 136.801 434.288 136.477 433.862 136.477ZM435.315 137.361C435.315 137.779 435.252 138.24 435.127 138.744C435.006 139.248 434.846 139.674 434.647 140.021C434.452 140.365 434.215 140.635 433.938 140.83C433.664 141.021 433.36 141.117 433.024 141.117C432.594 141.117 432.26 140.973 432.022 140.684C431.784 140.391 431.664 139.961 431.664 139.395C431.664 138.746 431.762 138.125 431.957 137.531C432.157 136.934 432.424 136.486 432.76 136.189C433.096 135.893 433.487 135.744 433.932 135.744C434.385 135.744 434.729 135.885 434.963 136.166C435.198 136.443 435.315 136.842 435.315 137.361ZM429.52 133.043C429.262 133.043 429.03 133.166 428.823 133.412C428.616 133.658 428.45 134.025 428.325 134.514C428.2 134.998 428.137 135.473 428.137 135.938C428.137 136.609 428.346 136.945 428.764 136.945C428.967 136.945 429.151 136.869 429.315 136.717C429.479 136.561 429.621 136.338 429.743 136.049C429.868 135.756 429.967 135.414 430.041 135.023C430.116 134.629 430.153 134.293 430.153 134.016C430.153 133.367 429.942 133.043 429.52 133.043ZM430.973 133.934C430.973 134.355 430.911 134.82 430.786 135.328C430.661 135.832 430.498 136.256 430.299 136.6C430.104 136.943 429.87 137.211 429.596 137.402C429.323 137.594 429.016 137.689 428.676 137.689C428.25 137.689 427.918 137.543 427.68 137.25C427.442 136.957 427.323 136.527 427.323 135.961C427.323 135.312 427.42 134.691 427.616 134.098C427.815 133.5 428.082 133.053 428.418 132.756C428.754 132.459 429.145 132.311 429.59 132.311C430.043 132.311 430.387 132.451 430.621 132.732C430.856 133.014 430.973 133.414 430.973 133.934Z" fill="#919191"/>
<circle cx="397.884" cy="136.5" r="6.5" fill="#205CAE"/>
<mask id="mask2_321_4027" style="mask-type:alpha" maskUnits="userSpaceOnUse" x="22" y="160" width="41" height="40">
<circle cx="42.3835" cy="180" r="20" fill="#919191"/>
</mask>
<g mask="url(#mask2_321_4027)">
<g filter="url(#filter9_d_321_4027)">
<rect x="31.3835" y="177" width="23" height="19" fill="#F5841F"/>
<path d="M38.3835 186.5C38.3835 184.015 40.3983 182 42.8835 182C45.3688 182 47.3835 184.015 47.3835 186.5V191H38.3835V186.5Z" fill="#1B2B41"/>
<path d="M31.3835 172.5C31.3835 170.015 33.3983 168 35.8835 168C38.3688 168 40.3835 170.015 40.3835 172.5V177H31.3835V172.5Z" fill="#1B2B41"/>
<path d="M45.3835 172.5C45.3835 170.015 47.3983 168 49.8835 168C52.3688 168 54.3835 170.015 54.3835 172.5V177H45.3835V172.5Z" fill="#1B2B41"/>
<rect x="34.3835" y="191" width="17" height="5" fill="#1B2B41"/>
<rect x="31.3835" y="186" width="2" height="5" transform="rotate(-90 31.3835 186)" fill="#1B2B41"/>
<rect x="49.3835" y="186" width="2" height="5" transform="rotate(-90 49.3835 186)" fill="#1B2B41"/>
</g>
</g>
<path d="M110.247 181.059C110.247 182.211 110.093 183.264 109.784 184.217C109.479 185.17 109.061 185.893 108.53 186.385C108.003 186.873 107.389 187.117 106.69 187.117C106.003 187.117 105.475 186.869 105.108 186.373C104.741 185.873 104.557 185.15 104.557 184.205C104.557 183.15 104.718 182.146 105.038 181.193C105.358 180.236 105.78 179.516 106.303 179.031C106.831 178.543 107.432 178.299 108.108 178.299C109.534 178.299 110.247 179.219 110.247 181.059ZM108.05 179.143C107.608 179.143 107.2 179.369 106.825 179.822C106.45 180.271 106.145 180.902 105.911 181.715C105.68 182.523 105.565 183.35 105.565 184.193C105.565 184.865 105.663 185.381 105.858 185.74C106.053 186.1 106.368 186.279 106.802 186.279C107.251 186.279 107.659 186.057 108.026 185.611C108.393 185.166 108.686 184.525 108.905 183.689C109.128 182.854 109.239 181.969 109.239 181.035C109.239 179.773 108.843 179.143 108.05 179.143ZM115.927 187H114.873L113.625 183.244L110.806 187H109.716L113.209 182.453L111.668 178.434H112.675L113.865 181.732L116.461 178.434H117.55L114.298 182.5L115.927 187ZM122.68 180.941C122.68 181.699 122.571 182.494 122.352 183.326C122.133 184.154 121.844 184.857 121.485 185.436C121.129 186.01 120.698 186.434 120.19 186.707C119.682 186.98 119.092 187.117 118.42 187.117C117.889 187.117 117.416 187.051 117.002 186.918V185.992C117.526 186.176 118.006 186.268 118.444 186.268C119.233 186.268 119.871 185.992 120.36 185.441C120.848 184.891 121.217 184.029 121.467 182.857H121.409C121.209 183.15 120.95 183.383 120.629 183.555C120.313 183.723 119.961 183.807 119.575 183.807C118.914 183.807 118.405 183.615 118.045 183.232C117.686 182.846 117.506 182.281 117.506 181.539C117.506 180.941 117.631 180.395 117.881 179.898C118.135 179.398 118.487 179.01 118.936 178.732C119.389 178.451 119.897 178.311 120.459 178.311C121.163 178.311 121.707 178.535 122.094 178.984C122.485 179.43 122.68 180.082 122.68 180.941ZM120.424 179.143C119.838 179.143 119.368 179.363 119.012 179.805C118.657 180.246 118.479 180.812 118.479 181.504C118.479 181.988 118.584 182.359 118.795 182.617C119.01 182.875 119.329 183.004 119.75 183.004C120.047 183.004 120.321 182.949 120.571 182.84C120.821 182.727 121.032 182.566 121.204 182.359C121.379 182.152 121.506 181.93 121.584 181.691C121.666 181.453 121.707 181.158 121.707 180.807C121.707 180.295 121.592 179.891 121.362 179.594C121.131 179.293 120.819 179.143 120.424 179.143ZM127.247 178.299C127.927 178.299 128.456 178.469 128.835 178.809C129.218 179.145 129.409 179.604 129.409 180.186C129.409 180.689 129.257 181.129 128.952 181.504C128.648 181.879 128.128 182.223 127.394 182.535C127.89 182.84 128.241 183.162 128.448 183.502C128.656 183.842 128.759 184.236 128.759 184.686C128.759 185.162 128.642 185.588 128.407 185.963C128.173 186.334 127.835 186.619 127.394 186.818C126.956 187.018 126.441 187.117 125.847 187.117C125.105 187.117 124.523 186.926 124.101 186.543C123.679 186.156 123.468 185.633 123.468 184.973C123.468 184.395 123.654 183.895 124.025 183.473C124.396 183.051 124.974 182.691 125.759 182.395C125.388 182.125 125.122 181.844 124.962 181.551C124.806 181.254 124.728 180.918 124.728 180.543C124.728 180.109 124.833 179.723 125.044 179.383C125.259 179.039 125.56 178.773 125.947 178.586C126.333 178.395 126.767 178.299 127.247 178.299ZM126.468 182.898C125.745 183.133 125.234 183.414 124.933 183.742C124.636 184.066 124.488 184.461 124.488 184.926C124.488 185.344 124.622 185.676 124.892 185.922C125.161 186.168 125.515 186.291 125.952 186.291C126.495 186.291 126.929 186.146 127.253 185.857C127.577 185.568 127.739 185.186 127.739 184.709C127.739 184.322 127.638 183.982 127.435 183.689C127.232 183.396 126.909 183.133 126.468 182.898ZM127.177 179.143C126.732 179.143 126.376 179.271 126.111 179.529C125.845 179.783 125.712 180.125 125.712 180.555C125.712 180.875 125.788 181.156 125.941 181.398C126.093 181.641 126.341 181.867 126.685 182.078C127.314 181.844 127.759 181.588 128.021 181.311C128.282 181.029 128.413 180.689 128.413 180.291C128.413 179.939 128.3 179.66 128.073 179.453C127.851 179.246 127.552 179.143 127.177 179.143ZM135.635 185.043H134.27L133.848 187H132.887L133.32 185.043H129.477L129.647 184.117L134.533 178.387H135.682L134.469 184.146H135.828L135.635 185.043ZM133.514 184.146C133.693 183.287 133.846 182.559 133.971 181.961C134.096 181.363 134.322 180.494 134.65 179.354H134.604C134.537 179.467 134.406 179.656 134.211 179.922C134.02 180.184 133.879 180.371 133.789 180.484L130.666 184.146H133.514ZM139.159 186.566C139.159 186.266 139.237 186.027 139.393 185.852C139.554 185.672 139.772 185.582 140.05 185.582C140.218 185.582 140.352 185.633 140.454 185.734C140.559 185.836 140.612 185.99 140.612 186.197C140.612 186.475 140.534 186.707 140.378 186.895C140.222 187.078 140.011 187.17 139.745 187.17C139.565 187.17 139.423 187.119 139.317 187.018C139.212 186.916 139.159 186.766 139.159 186.566ZM142.218 186.566C142.218 186.266 142.296 186.027 142.452 185.852C142.612 185.672 142.831 185.582 143.108 185.582C143.276 185.582 143.411 185.633 143.513 185.734C143.618 185.836 143.671 185.99 143.671 186.197C143.671 186.475 143.593 186.707 143.436 186.895C143.28 187.078 143.069 187.17 142.804 187.17C142.624 187.17 142.481 187.119 142.376 187.018C142.27 186.916 142.218 186.766 142.218 186.566ZM136.112 186.566C136.112 186.266 136.19 186.027 136.347 185.852C136.507 185.672 136.725 185.582 137.003 185.582C137.171 185.582 137.306 185.633 137.407 185.734C137.513 185.836 137.565 185.99 137.565 186.197C137.565 186.475 137.487 186.707 137.331 186.895C137.175 187.078 136.964 187.17 136.698 187.17C136.518 187.17 136.376 187.119 136.27 187.018C136.165 186.916 136.112 186.766 136.112 186.566ZM148.853 187L147.881 179.406H147.834C147.806 179.688 147.75 180.074 147.664 180.566C147.582 181.055 147.51 181.443 147.447 181.732L146.334 187H145.385L147.195 178.434H148.625L149.498 185.488H149.551L153.412 178.434H154.97L153.195 187H152.176C152.668 184.695 153.045 182.928 153.306 181.697C153.568 180.463 153.752 179.695 153.857 179.395H153.822L149.621 187H148.853ZM161.161 187H160.182L161.02 182.969H157.153L156.303 187H155.307L157.118 178.434H158.114L157.346 182.078H161.213L161.993 178.434H162.977L161.161 187ZM169.261 180.578L169.115 181.205L167.878 181.346C168.038 181.588 168.119 181.896 168.119 182.271C168.119 183.018 167.89 183.613 167.433 184.059C166.98 184.5 166.372 184.721 165.611 184.721C165.396 184.721 165.232 184.705 165.119 184.674C164.576 184.881 164.304 185.137 164.304 185.441C164.304 185.602 164.369 185.709 164.497 185.764C164.626 185.814 164.814 185.855 165.06 185.887L165.746 185.969C166.453 186.055 166.964 186.227 167.281 186.484C167.601 186.742 167.761 187.121 167.761 187.621C167.761 188.34 167.476 188.896 166.906 189.291C166.335 189.686 165.533 189.883 164.497 189.883C163.74 189.883 163.146 189.738 162.716 189.449C162.287 189.164 162.072 188.76 162.072 188.236C162.072 187.826 162.212 187.471 162.494 187.17C162.775 186.869 163.23 186.613 163.859 186.402C163.554 186.242 163.402 186.006 163.402 185.693C163.402 185.424 163.501 185.193 163.701 185.002C163.9 184.807 164.177 184.625 164.533 184.457C164.287 184.332 164.085 184.148 163.929 183.906C163.773 183.66 163.695 183.375 163.695 183.051C163.695 182.293 163.927 181.672 164.392 181.188C164.861 180.703 165.458 180.461 166.185 180.461C166.49 180.461 166.79 180.5 167.087 180.578H169.261ZM163.021 188.143C163.021 188.443 163.148 188.682 163.402 188.857C163.656 189.033 164.033 189.121 164.533 189.121C165.244 189.121 165.798 188.996 166.197 188.746C166.599 188.5 166.8 188.15 166.8 187.697C166.8 187.455 166.695 187.264 166.484 187.123C166.273 186.982 165.913 186.885 165.406 186.83L164.474 186.736C164.005 186.834 163.646 187.006 163.396 187.252C163.146 187.498 163.021 187.795 163.021 188.143ZM164.65 183.016C164.65 183.348 164.738 183.602 164.913 183.777C165.089 183.949 165.333 184.035 165.646 184.035C165.954 184.035 166.224 183.953 166.454 183.789C166.685 183.625 166.861 183.4 166.982 183.115C167.107 182.826 167.169 182.514 167.169 182.178C167.169 181.857 167.083 181.613 166.912 181.445C166.74 181.277 166.494 181.193 166.173 181.193C165.869 181.193 165.601 181.273 165.371 181.434C165.144 181.59 164.966 181.811 164.837 182.096C164.712 182.377 164.65 182.684 164.65 183.016Z" fill="#919191"/>
<path d="M414.163 184.516C414.163 183.699 414.28 182.889 414.514 182.084C414.753 181.279 415.073 180.594 415.475 180.027C415.878 179.457 416.358 179.029 416.917 178.744C417.475 178.455 418.114 178.311 418.833 178.311C419.266 178.311 419.626 178.355 419.911 178.445L419.706 179.295C419.44 179.209 419.108 179.166 418.71 179.166C417.882 179.166 417.184 179.457 416.618 180.039C416.055 180.621 415.641 181.486 415.376 182.635H415.423C415.653 182.326 415.938 182.08 416.278 181.896C416.622 181.713 417.001 181.621 417.415 181.621C418.016 181.621 418.493 181.814 418.844 182.201C419.196 182.584 419.372 183.111 419.372 183.783C419.372 184.412 419.241 184.988 418.979 185.512C418.721 186.031 418.37 186.43 417.925 186.707C417.479 186.98 416.969 187.117 416.395 187.117C415.684 187.117 415.134 186.893 414.743 186.443C414.356 185.994 414.163 185.352 414.163 184.516ZM416.501 186.291C416.868 186.291 417.194 186.186 417.479 185.975C417.768 185.764 417.991 185.473 418.147 185.102C418.307 184.73 418.387 184.324 418.387 183.883C418.387 182.914 417.956 182.43 417.093 182.43C416.835 182.43 416.585 182.486 416.343 182.6C416.1 182.709 415.885 182.857 415.698 183.045C415.51 183.229 415.37 183.432 415.276 183.654C415.182 183.877 415.135 184.18 415.135 184.562C415.135 185.098 415.253 185.52 415.487 185.828C415.725 186.137 416.063 186.291 416.501 186.291ZM426.259 181.059C426.259 182.211 426.105 183.264 425.796 184.217C425.492 185.17 425.074 185.893 424.543 186.385C424.015 186.873 423.402 187.117 422.703 187.117C422.015 187.117 421.488 186.869 421.121 186.373C420.753 185.873 420.57 185.15 420.57 184.205C420.57 183.15 420.73 182.146 421.05 181.193C421.371 180.236 421.793 179.516 422.316 179.031C422.843 178.543 423.445 178.299 424.121 178.299C425.546 178.299 426.259 179.219 426.259 181.059ZM424.062 179.143C423.621 179.143 423.212 179.369 422.837 179.822C422.462 180.271 422.158 180.902 421.923 181.715C421.693 182.523 421.578 183.35 421.578 184.193C421.578 184.865 421.675 185.381 421.871 185.74C422.066 186.1 422.38 186.279 422.814 186.279C423.263 186.279 423.671 186.057 424.039 185.611C424.406 185.166 424.699 184.525 424.918 183.689C425.14 182.854 425.252 181.969 425.252 181.035C425.252 179.773 424.855 179.143 424.062 179.143ZM434.94 178.434L428.582 187H427.692L434.055 178.434H434.94ZM433.862 182.477C433.6 182.477 433.366 182.604 433.159 182.857C432.955 183.107 432.791 183.475 432.666 183.959C432.545 184.443 432.485 184.912 432.485 185.365C432.485 186.041 432.692 186.379 433.106 186.379C433.36 186.379 433.588 186.252 433.791 185.998C433.995 185.744 434.163 185.357 434.295 184.838C434.432 184.314 434.5 183.852 434.5 183.449C434.5 182.801 434.288 182.477 433.862 182.477ZM435.315 183.361C435.315 183.779 435.252 184.24 435.127 184.744C435.006 185.248 434.846 185.674 434.647 186.021C434.452 186.365 434.215 186.635 433.938 186.83C433.664 187.021 433.36 187.117 433.024 187.117C432.594 187.117 432.26 186.973 432.022 186.684C431.784 186.391 431.664 185.961 431.664 185.395C431.664 184.746 431.762 184.125 431.957 183.531C432.157 182.934 432.424 182.486 432.76 182.189C433.096 181.893 433.487 181.744 433.932 181.744C434.385 181.744 434.729 181.885 434.963 182.166C435.198 182.443 435.315 182.842 435.315 183.361ZM429.52 179.043C429.262 179.043 429.03 179.166 428.823 179.412C428.616 179.658 428.45 180.025 428.325 180.514C428.2 180.998 428.137 181.473 428.137 181.938C428.137 182.609 428.346 182.945 428.764 182.945C428.967 182.945 429.151 182.869 429.315 182.717C429.479 182.561 429.621 182.338 429.743 182.049C429.868 181.756 429.967 181.414 430.041 181.023C430.116 180.629 430.153 180.293 430.153 180.016C430.153 179.367 429.942 179.043 429.52 179.043ZM430.973 179.934C430.973 180.355 430.911 180.82 430.786 181.328C430.661 181.832 430.498 182.256 430.299 182.6C430.104 182.943 429.87 183.211 429.596 183.402C429.323 183.594 429.016 183.689 428.676 183.689C428.25 183.689 427.918 183.543 427.68 183.25C427.442 182.957 427.323 182.527 427.323 181.961C427.323 181.312 427.42 180.691 427.616 180.098C427.815 179.5 428.082 179.053 428.418 178.756C428.754 178.459 429.145 178.311 429.59 178.311C430.043 178.311 430.387 178.451 430.621 178.732C430.856 179.014 430.973 179.414 430.973 179.934Z" fill="#919191"/>
<circle cx="397.884" cy="182.5" r="6.5" fill="#205CAE"/>
<mask id="mask3_321_4027" style="mask-type:alpha" maskUnits="userSpaceOnUse" x="22" y="206" width="41" height="40">
<circle cx="42.3835" cy="226" r="20" fill="#919191"/>
</mask>
<g mask="url(#mask3_321_4027)">
<g filter="url(#filter10_d_321_4027)">
<rect x="31.3835" y="223" width="23" height="19" fill="#F5841F"/>
<path d="M38.3835 232.5C38.3835 230.015 40.3983 228 42.8835 228C45.3688 228 47.3835 230.015 47.3835 232.5V237H38.3835V232.5Z" fill="#1B2B41"/>
<path d="M31.3835 218.5C31.3835 216.015 33.3983 214 35.8835 214C38.3688 214 40.3835 216.015 40.3835 218.5V223H31.3835V218.5Z" fill="#1B2B41"/>
<path d="M45.3835 218.5C45.3835 216.015 47.3983 214 49.8835 214C52.3688 214 54.3835 216.015 54.3835 218.5V223H45.3835V218.5Z" fill="#1B2B41"/>
<rect x="34.3835" y="237" width="17" height="5" fill="#1B2B41"/>
<rect x="31.3835" y="232" width="2" height="5" transform="rotate(-90 31.3835 232)" fill="#1B2B41"/>
<rect x="49.3835" y="232" width="2" height="5" transform="rotate(-90 49.3835 232)" fill="#1B2B41"/>
</g>
</g>
<path d="M110.247 227.059C110.247 228.211 110.093 229.264 109.784 230.217C109.479 231.17 109.061 231.893 108.53 232.385C108.003 232.873 107.389 233.117 106.69 233.117C106.003 233.117 105.475 232.869 105.108 232.373C104.741 231.873 104.557 231.15 104.557 230.205C104.557 229.15 104.718 228.146 105.038 227.193C105.358 226.236 105.78 225.516 106.303 225.031C106.831 224.543 107.432 224.299 108.108 224.299C109.534 224.299 110.247 225.219 110.247 227.059ZM108.05 225.143C107.608 225.143 107.2 225.369 106.825 225.822C106.45 226.271 106.145 226.902 105.911 227.715C105.68 228.523 105.565 229.35 105.565 230.193C105.565 230.865 105.663 231.381 105.858 231.74C106.053 232.1 106.368 232.279 106.802 232.279C107.251 232.279 107.659 232.057 108.026 231.611C108.393 231.166 108.686 230.525 108.905 229.689C109.128 228.854 109.239 227.969 109.239 227.035C109.239 225.773 108.843 225.143 108.05 225.143ZM115.927 233H114.873L113.625 229.244L110.806 233H109.716L113.209 228.453L111.668 224.434H112.675L113.865 227.732L116.461 224.434H117.55L114.298 228.5L115.927 233ZM122.68 226.941C122.68 227.699 122.571 228.494 122.352 229.326C122.133 230.154 121.844 230.857 121.485 231.436C121.129 232.01 120.698 232.434 120.19 232.707C119.682 232.98 119.092 233.117 118.42 233.117C117.889 233.117 117.416 233.051 117.002 232.918V231.992C117.526 232.176 118.006 232.268 118.444 232.268C119.233 232.268 119.871 231.992 120.36 231.441C120.848 230.891 121.217 230.029 121.467 228.857H121.409C121.209 229.15 120.95 229.383 120.629 229.555C120.313 229.723 119.961 229.807 119.575 229.807C118.914 229.807 118.405 229.615 118.045 229.232C117.686 228.846 117.506 228.281 117.506 227.539C117.506 226.941 117.631 226.395 117.881 225.898C118.135 225.398 118.487 225.01 118.936 224.732C119.389 224.451 119.897 224.311 120.459 224.311C121.163 224.311 121.707 224.535 122.094 224.984C122.485 225.43 122.68 226.082 122.68 226.941ZM120.424 225.143C119.838 225.143 119.368 225.363 119.012 225.805C118.657 226.246 118.479 226.812 118.479 227.504C118.479 227.988 118.584 228.359 118.795 228.617C119.01 228.875 119.329 229.004 119.75 229.004C120.047 229.004 120.321 228.949 120.571 228.84C120.821 228.727 121.032 228.566 121.204 228.359C121.379 228.152 121.506 227.93 121.584 227.691C121.666 227.453 121.707 227.158 121.707 226.807C121.707 226.295 121.592 225.891 121.362 225.594C121.131 225.293 120.819 225.143 120.424 225.143ZM127.247 224.299C127.927 224.299 128.456 224.469 128.835 224.809C129.218 225.145 129.409 225.604 129.409 226.186C129.409 226.689 129.257 227.129 128.952 227.504C128.648 227.879 128.128 228.223 127.394 228.535C127.89 228.84 128.241 229.162 128.448 229.502C128.656 229.842 128.759 230.236 128.759 230.686C128.759 231.162 128.642 231.588 128.407 231.963C128.173 232.334 127.835 232.619 127.394 232.818C126.956 233.018 126.441 233.117 125.847 233.117C125.105 233.117 124.523 232.926 124.101 232.543C123.679 232.156 123.468 231.633 123.468 230.973C123.468 230.395 123.654 229.895 124.025 229.473C124.396 229.051 124.974 228.691 125.759 228.395C125.388 228.125 125.122 227.844 124.962 227.551C124.806 227.254 124.728 226.918 124.728 226.543C124.728 226.109 124.833 225.723 125.044 225.383C125.259 225.039 125.56 224.773 125.947 224.586C126.333 224.395 126.767 224.299 127.247 224.299ZM126.468 228.898C125.745 229.133 125.234 229.414 124.933 229.742C124.636 230.066 124.488 230.461 124.488 230.926C124.488 231.344 124.622 231.676 124.892 231.922C125.161 232.168 125.515 232.291 125.952 232.291C126.495 232.291 126.929 232.146 127.253 231.857C127.577 231.568 127.739 231.186 127.739 230.709C127.739 230.322 127.638 229.982 127.435 229.689C127.232 229.396 126.909 229.133 126.468 228.898ZM127.177 225.143C126.732 225.143 126.376 225.271 126.111 225.529C125.845 225.783 125.712 226.125 125.712 226.555C125.712 226.875 125.788 227.156 125.941 227.398C126.093 227.641 126.341 227.867 126.685 228.078C127.314 227.844 127.759 227.588 128.021 227.311C128.282 227.029 128.413 226.689 128.413 226.291C128.413 225.939 128.3 225.66 128.073 225.453C127.851 225.246 127.552 225.143 127.177 225.143ZM135.635 231.043H134.27L133.848 233H132.887L133.32 231.043H129.477L129.647 230.117L134.533 224.387H135.682L134.469 230.146H135.828L135.635 231.043ZM133.514 230.146C133.693 229.287 133.846 228.559 133.971 227.961C134.096 227.363 134.322 226.494 134.65 225.354H134.604C134.537 225.467 134.406 225.656 134.211 225.922C134.02 226.184 133.879 226.371 133.789 226.484L130.666 230.146H133.514ZM139.159 232.566C139.159 232.266 139.237 232.027 139.393 231.852C139.554 231.672 139.772 231.582 140.05 231.582C140.218 231.582 140.352 231.633 140.454 231.734C140.559 231.836 140.612 231.99 140.612 232.197C140.612 232.475 140.534 232.707 140.378 232.895C140.222 233.078 140.011 233.17 139.745 233.17C139.565 233.17 139.423 233.119 139.317 233.018C139.212 232.916 139.159 232.766 139.159 232.566ZM142.218 232.566C142.218 232.266 142.296 232.027 142.452 231.852C142.612 231.672 142.831 231.582 143.108 231.582C143.276 231.582 143.411 231.633 143.513 231.734C143.618 231.836 143.671 231.99 143.671 232.197C143.671 232.475 143.593 232.707 143.436 232.895C143.28 233.078 143.069 233.17 142.804 233.17C142.624 233.17 142.481 233.119 142.376 233.018C142.27 232.916 142.218 232.766 142.218 232.566ZM136.112 232.566C136.112 232.266 136.19 232.027 136.347 231.852C136.507 231.672 136.725 231.582 137.003 231.582C137.171 231.582 137.306 231.633 137.407 231.734C137.513 231.836 137.565 231.99 137.565 232.197C137.565 232.475 137.487 232.707 137.331 232.895C137.175 233.078 136.964 233.17 136.698 233.17C136.518 233.17 136.376 233.119 136.27 233.018C136.165 232.916 136.112 232.766 136.112 232.566ZM148.853 233L147.881 225.406H147.834C147.806 225.688 147.75 226.074 147.664 226.566C147.582 227.055 147.51 227.443 147.447 227.732L146.334 233H145.385L147.195 224.434H148.625L149.498 231.488H149.551L153.412 224.434H154.97L153.195 233H152.176C152.668 230.695 153.045 228.928 153.306 227.697C153.568 226.463 153.752 225.695 153.857 225.395H153.822L149.621 233H148.853ZM161.161 233H160.182L161.02 228.969H157.153L156.303 233H155.307L157.118 224.434H158.114L157.346 228.078H161.213L161.993 224.434H162.977L161.161 233ZM169.261 226.578L169.115 227.205L167.878 227.346C168.038 227.588 168.119 227.896 168.119 228.271C168.119 229.018 167.89 229.613 167.433 230.059C166.98 230.5 166.372 230.721 165.611 230.721C165.396 230.721 165.232 230.705 165.119 230.674C164.576 230.881 164.304 231.137 164.304 231.441C164.304 231.602 164.369 231.709 164.497 231.764C164.626 231.814 164.814 231.855 165.06 231.887L165.746 231.969C166.453 232.055 166.964 232.227 167.281 232.484C167.601 232.742 167.761 233.121 167.761 233.621C167.761 234.34 167.476 234.896 166.906 235.291C166.335 235.686 165.533 235.883 164.497 235.883C163.74 235.883 163.146 235.738 162.716 235.449C162.287 235.164 162.072 234.76 162.072 234.236C162.072 233.826 162.212 233.471 162.494 233.17C162.775 232.869 163.23 232.613 163.859 232.402C163.554 232.242 163.402 232.006 163.402 231.693C163.402 231.424 163.501 231.193 163.701 231.002C163.9 230.807 164.177 230.625 164.533 230.457C164.287 230.332 164.085 230.148 163.929 229.906C163.773 229.66 163.695 229.375 163.695 229.051C163.695 228.293 163.927 227.672 164.392 227.188C164.861 226.703 165.458 226.461 166.185 226.461C166.49 226.461 166.79 226.5 167.087 226.578H169.261ZM163.021 234.143C163.021 234.443 163.148 234.682 163.402 234.857C163.656 235.033 164.033 235.121 164.533 235.121C165.244 235.121 165.798 234.996 166.197 234.746C166.599 234.5 166.8 234.15 166.8 233.697C166.8 233.455 166.695 233.264 166.484 233.123C166.273 232.982 165.913 232.885 165.406 232.83L164.474 232.736C164.005 232.834 163.646 233.006 163.396 233.252C163.146 233.498 163.021 233.795 163.021 234.143ZM164.65 229.016C164.65 229.348 164.738 229.602 164.913 229.777C165.089 229.949 165.333 230.035 165.646 230.035C165.954 230.035 166.224 229.953 166.454 229.789C166.685 229.625 166.861 229.4 166.982 229.115C167.107 228.826 167.169 228.514 167.169 228.178C167.169 227.857 167.083 227.613 166.912 227.445C166.74 227.277 166.494 227.193 166.173 227.193C165.869 227.193 165.601 227.273 165.371 227.434C165.144 227.59 164.966 227.811 164.837 228.096C164.712 228.377 164.65 228.684 164.65 229.016Z" fill="#919191"/>
<path d="M414.163 230.516C414.163 229.699 414.28 228.889 414.514 228.084C414.753 227.279 415.073 226.594 415.475 226.027C415.878 225.457 416.358 225.029 416.917 224.744C417.475 224.455 418.114 224.311 418.833 224.311C419.266 224.311 419.626 224.355 419.911 224.445L419.706 225.295C419.44 225.209 419.108 225.166 418.71 225.166C417.882 225.166 417.184 225.457 416.618 226.039C416.055 226.621 415.641 227.486 415.376 228.635H415.423C415.653 228.326 415.938 228.08 416.278 227.896C416.622 227.713 417.001 227.621 417.415 227.621C418.016 227.621 418.493 227.814 418.844 228.201C419.196 228.584 419.372 229.111 419.372 229.783C419.372 230.412 419.241 230.988 418.979 231.512C418.721 232.031 418.37 232.43 417.925 232.707C417.479 232.98 416.969 233.117 416.395 233.117C415.684 233.117 415.134 232.893 414.743 232.443C414.356 231.994 414.163 231.352 414.163 230.516ZM416.501 232.291C416.868 232.291 417.194 232.186 417.479 231.975C417.768 231.764 417.991 231.473 418.147 231.102C418.307 230.73 418.387 230.324 418.387 229.883C418.387 228.914 417.956 228.43 417.093 228.43C416.835 228.43 416.585 228.486 416.343 228.6C416.1 228.709 415.885 228.857 415.698 229.045C415.51 229.229 415.37 229.432 415.276 229.654C415.182 229.877 415.135 230.18 415.135 230.562C415.135 231.098 415.253 231.52 415.487 231.828C415.725 232.137 416.063 232.291 416.501 232.291ZM426.259 227.059C426.259 228.211 426.105 229.264 425.796 230.217C425.492 231.17 425.074 231.893 424.543 232.385C424.015 232.873 423.402 233.117 422.703 233.117C422.015 233.117 421.488 232.869 421.121 232.373C420.753 231.873 420.57 231.15 420.57 230.205C420.57 229.15 420.73 228.146 421.05 227.193C421.371 226.236 421.793 225.516 422.316 225.031C422.843 224.543 423.445 224.299 424.121 224.299C425.546 224.299 426.259 225.219 426.259 227.059ZM424.062 225.143C423.621 225.143 423.212 225.369 422.837 225.822C422.462 226.271 422.158 226.902 421.923 227.715C421.693 228.523 421.578 229.35 421.578 230.193C421.578 230.865 421.675 231.381 421.871 231.74C422.066 232.1 422.38 232.279 422.814 232.279C423.263 232.279 423.671 232.057 424.039 231.611C424.406 231.166 424.699 230.525 424.918 229.689C425.14 228.854 425.252 227.969 425.252 227.035C425.252 225.773 424.855 225.143 424.062 225.143ZM434.94 224.434L428.582 233H427.692L434.055 224.434H434.94ZM433.862 228.477C433.6 228.477 433.366 228.604 433.159 228.857C432.955 229.107 432.791 229.475 432.666 229.959C432.545 230.443 432.485 230.912 432.485 231.365C432.485 232.041 432.692 232.379 433.106 232.379C433.36 232.379 433.588 232.252 433.791 231.998C433.995 231.744 434.163 231.357 434.295 230.838C434.432 230.314 434.5 229.852 434.5 229.449C434.5 228.801 434.288 228.477 433.862 228.477ZM435.315 229.361C435.315 229.779 435.252 230.24 435.127 230.744C435.006 231.248 434.846 231.674 434.647 232.021C434.452 232.365 434.215 232.635 433.938 232.83C433.664 233.021 433.36 233.117 433.024 233.117C432.594 233.117 432.26 232.973 432.022 232.684C431.784 232.391 431.664 231.961 431.664 231.395C431.664 230.746 431.762 230.125 431.957 229.531C432.157 228.934 432.424 228.486 432.76 228.189C433.096 227.893 433.487 227.744 433.932 227.744C434.385 227.744 434.729 227.885 434.963 228.166C435.198 228.443 435.315 228.842 435.315 229.361ZM429.52 225.043C429.262 225.043 429.03 225.166 428.823 225.412C428.616 225.658 428.45 226.025 428.325 226.514C428.2 226.998 428.137 227.473 428.137 227.938C428.137 228.609 428.346 228.945 428.764 228.945C428.967 228.945 429.151 228.869 429.315 228.717C429.479 228.561 429.621 228.338 429.743 228.049C429.868 227.756 429.967 227.414 430.041 227.023C430.116 226.629 430.153 226.293 430.153 226.016C430.153 225.367 429.942 225.043 429.52 225.043ZM430.973 225.934C430.973 226.355 430.911 226.82 430.786 227.328C430.661 227.832 430.498 228.256 430.299 228.6C430.104 228.943 429.87 229.211 429.596 229.402C429.323 229.594 429.016 229.689 428.676 229.689C428.25 229.689 427.918 229.543 427.68 229.25C427.442 228.957 427.323 228.527 427.323 227.961C427.323 227.312 427.42 226.691 427.616 226.098C427.815 225.5 428.082 225.053 428.418 224.756C428.754 224.459 429.145 224.311 429.59 224.311C430.043 224.311 430.387 224.451 430.621 224.732C430.856 225.014 430.973 225.414 430.973 225.934Z" fill="#919191"/>
<circle cx="397.884" cy="228.5" r="6.5" fill="#205CAE"/>
<defs>
<filter id="filter0_dd_321_4027" x="0" y="0" width="477" height="279" filterUnits="userSpaceOnUse" color-interpolation-filters="sRGB">
<feFlood flood-opacity="0" result="BackgroundImageFix"/>
<feColorMatrix in="SourceAlpha" type="matrix" values="0 0 0 0 0 0 0 0 0 0 0 0 0 0 0 0 0 0 127 0" result="hardAlpha"/>
<feOffset dx="-1" dy="-2"/>
<feGaussianBlur stdDeviation="1.5"/>
<feComposite in2="hardAlpha" operator="out"/>
<feColorMatrix type="matrix" values="0 0 0 0 0.788235 0 0 0 0 0.294118 0 0 0 0 0.196078 0 0 0 0.05 0"/>
<feBlend mode="normal" in2="BackgroundImageFix" result="effect1_dropShadow_321_4027"/>
<feColorMatrix in="SourceAlpha" type="matrix" values="0 0 0 0 0 0 0 0 0 0 0 0 0 0 0 0 0 0 127 0" result="hardAlpha"/>
<feOffset dy="3"/>
<feGaussianBlur stdDeviation="1.5"/>
<feComposite in2="hardAlpha" operator="out"/>
<feColorMatrix type="matrix" values="0 0 0 0 0.105882 0 0 0 0 0.168627 0 0 0 0 0.254902 0 0 0 0.1 0"/>
<feBlend mode="normal" in2="effect1_dropShadow_321_4027" result="effect2_dropShadow_321_4027"/>
<feBlend mode="normal" in="SourceGraphic" in2="effect2_dropShadow_321_4027" result="shape"/>
</filter>
<filter id="filter1_i_321_4027" x="22.3843" y="28" width="423.84" height="20" filterUnits="userSpaceOnUse" color-interpolation-filters="sRGB">
<feFlood flood-opacity="0" result="BackgroundImageFix"/>
<feBlend mode="normal" in="SourceGraphic" in2="BackgroundImageFix" result="shape"/>
<feColorMatrix in="SourceAlpha" type="matrix" values="0 0 0 0 0 0 0 0 0 0 0 0 0 0 0 0 0 0 127 0" result="hardAlpha"/>
<feOffset dx="1"/>
<feGaussianBlur stdDeviation="2"/>
<feComposite in2="hardAlpha" operator="arithmetic" k2="-1" k3="1"/>
<feColorMatrix type="matrix" values="0 0 0 0 0.105882 0 0 0 0 0.168627 0 0 0 0 0.254902 0 0 0 0.1 0"/>
<feBlend mode="normal" in2="shape" result="effect1_innerShadow_321_4027"/>
</filter>
<filter id="filter2_i_321_4027" x="23.9829" y="30" width="339.912" height="16" filterUnits="userSpaceOnUse" color-interpolation-filters="sRGB">
<feFlood flood-opacity="0" result="BackgroundImageFix"/>
<feBlend mode="normal" in="SourceGraphic" in2="BackgroundImageFix" result="shape"/>
<feColorMatrix in="SourceAlpha" type="matrix" values="0 0 0 0 0 0 0 0 0 0 0 0 0 0 0 0 0 0 127 0" result="hardAlpha"/>
<feOffset dx="1"/>
<feGaussianBlur stdDeviation="2"/>
<feComposite in2="hardAlpha" operator="arithmetic" k2="-1" k3="1"/>
<feColorMatrix type="matrix" values="0 0 0 0 0.105882 0 0 0 0 0.168627 0 0 0 0 0.254902 0 0 0 0.1 0"/>
<feBlend mode="normal" in2="shape" result="effect1_innerShadow_321_4027"/>
</filter>
<filter id="filter3_i_321_4027" x="257.384" y="30" width="186.442" height="16" filterUnits="userSpaceOnUse" color-interpolation-filters="sRGB">
<feFlood flood-opacity="0" result="BackgroundImageFix"/>
<feBlend mode="normal" in="SourceGraphic" in2="BackgroundImageFix" result="shape"/>
<feColorMatrix in="SourceAlpha" type="matrix" values="0 0 0 0 0 0 0 0 0 0 0 0 0 0 0 0 0 0 127 0" result="hardAlpha"/>
<feOffset dx="1"/>
<feGaussianBlur stdDeviation="2"/>
<feComposite in2="hardAlpha" operator="arithmetic" k2="-1" k3="1"/>
<feColorMatrix type="matrix" values="0 0 0 0 0.105882 0 0 0 0 0.168627 0 0 0 0 0.254902 0 0 0 0.1 0"/>
<feBlend mode="normal" in2="shape" result="effect1_innerShadow_321_4027"/>
</filter>
<filter id="filter4_i_321_4027" x="250.19" y="30" width="141.68" height="16" filterUnits="userSpaceOnUse" color-interpolation-filters="sRGB">
<feFlood flood-opacity="0" result="BackgroundImageFix"/>
<feBlend mode="normal" in="SourceGraphic" in2="BackgroundImageFix" result="shape"/>
<feColorMatrix in="SourceAlpha" type="matrix" values="0 0 0 0 0 0 0 0 0 0 0 0 0 0 0 0 0 0 127 0" result="hardAlpha"/>
<feOffset dx="1"/>
<feGaussianBlur stdDeviation="2"/>
<feComposite in2="hardAlpha" operator="arithmetic" k2="-1" k3="1"/>
<feColorMatrix type="matrix" values="0 0 0 0 0.105882 0 0 0 0 0.168627 0 0 0 0 0.254902 0 0 0 0.1 0"/>
<feBlend mode="normal" in2="shape" result="effect1_innerShadow_321_4027"/>
</filter>
<filter id="filter5_i_321_4027" x="390.87" y="30" width="20.9829" height="16" filterUnits="userSpaceOnUse" color-interpolation-filters="sRGB">
<feFlood flood-opacity="0" result="BackgroundImageFix"/>
<feBlend mode="normal" in="SourceGraphic" in2="BackgroundImageFix" result="shape"/>
<feColorMatrix in="SourceAlpha" type="matrix" values="0 0 0 0 0 0 0 0 0 0 0 0 0 0 0 0 0 0 127 0" result="hardAlpha"/>
<feOffset dx="1"/>
<feGaussianBlur stdDeviation="2"/>
<feComposite in2="hardAlpha" operator="arithmetic" k2="-1" k3="1"/>
<feColorMatrix type="matrix" values="0 0 0 0 0.105882 0 0 0 0 0.168627 0 0 0 0 0.254902 0 0 0 0.1 0"/>
<feBlend mode="normal" in2="shape" result="effect1_innerShadow_321_4027"/>
</filter>
<filter id="filter6_i_321_4027" x="410.853" y="30" width="20.1836" height="16" filterUnits="userSpaceOnUse" color-interpolation-filters="sRGB">
<feFlood flood-opacity="0" result="BackgroundImageFix"/>
<feBlend mode="normal" in="SourceGraphic" in2="BackgroundImageFix" result="shape"/>
<feColorMatrix in="SourceAlpha" type="matrix" values="0 0 0 0 0 0 0 0 0 0 0 0 0 0 0 0 0 0 127 0" result="hardAlpha"/>
<feOffset dx="1"/>
<feGaussianBlur stdDeviation="2"/>
<feComposite in2="hardAlpha" operator="arithmetic" k2="-1" k3="1"/>
<feColorMatrix type="matrix" values="0 0 0 0 0.105882 0 0 0 0 0.168627 0 0 0 0 0.254902 0 0 0 0.1 0"/>
<feBlend mode="normal" in2="shape" result="effect1_innerShadow_321_4027"/>
</filter>
<filter id="filter7_d_321_4027" x="29.3835" y="74" width="27" height="32" filterUnits="userSpaceOnUse" color-interpolation-filters="sRGB">
<feFlood flood-opacity="0" result="BackgroundImageFix"/>
<feColorMatrix in="SourceAlpha" type="matrix" values="0 0 0 0 0 0 0 0 0 0 0 0 0 0 0 0 0 0 127 0" result="hardAlpha"/>
<feOffset/>
<feGaussianBlur stdDeviation="1"/>
<feComposite in2="hardAlpha" operator="out"/>
<feColorMatrix type="matrix" values="0 0 0 0 0 0 0 0 0 0 0 0 0 0 0 0 0 0 0.25 0"/>
<feBlend mode="normal" in2="BackgroundImageFix" result="effect1_dropShadow_321_4027"/>
<feBlend mode="normal" in="SourceGraphic" in2="effect1_dropShadow_321_4027" result="shape"/>
</filter>
<filter id="filter8_d_321_4027" x="29.3835" y="120" width="27" height="32" filterUnits="userSpaceOnUse" color-interpolation-filters="sRGB">
<feFlood flood-opacity="0" result="BackgroundImageFix"/>
<feColorMatrix in="SourceAlpha" type="matrix" values="0 0 0 0 0 0 0 0 0 0 0 0 0 0 0 0 0 0 127 0" result="hardAlpha"/>
<feOffset/>
<feGaussianBlur stdDeviation="1"/>
<feComposite in2="hardAlpha" operator="out"/>
<feColorMatrix type="matrix" values="0 0 0 0 0 0 0 0 0 0 0 0 0 0 0 0 0 0 0.25 0"/>
<feBlend mode="normal" in2="BackgroundImageFix" result="effect1_dropShadow_321_4027"/>
<feBlend mode="normal" in="SourceGraphic" in2="effect1_dropShadow_321_4027" result="shape"/>
</filter>
<filter id="filter9_d_321_4027" x="29.3835" y="166" width="27" height="32" filterUnits="userSpaceOnUse" color-interpolation-filters="sRGB">
<feFlood flood-opacity="0" result="BackgroundImageFix"/>
<feColorMatrix in="SourceAlpha" type="matrix" values="0 0 0 0 0 0 0 0 0 0 0 0 0 0 0 0 0 0 127 0" result="hardAlpha"/>
<feOffset/>
<feGaussianBlur stdDeviation="1"/>
<feComposite in2="hardAlpha" operator="out"/>
<feColorMatrix type="matrix" values="0 0 0 0 0 0 0 0 0 0 0 0 0 0 0 0 0 0 0.25 0"/>
<feBlend mode="normal" in2="BackgroundImageFix" result="effect1_dropShadow_321_4027"/>
<feBlend mode="normal" in="SourceGraphic" in2="effect1_dropShadow_321_4027" result="shape"/>
</filter>
<filter id="filter10_d_321_4027" x="29.3835" y="212" width="27" height="32" filterUnits="userSpaceOnUse" color-interpolation-filters="sRGB">
<feFlood flood-opacity="0" result="BackgroundImageFix"/>
<feColorMatrix in="SourceAlpha" type="matrix" values="0 0 0 0 0 0 0 0 0 0 0 0 0 0 0 0 0 0 127 0" result="hardAlpha"/>
<feOffset/>
<feGaussianBlur stdDeviation="1"/>
<feComposite in2="hardAlpha" operator="out"/>
<feColorMatrix type="matrix" values="0 0 0 0 0 0 0 0 0 0 0 0 0 0 0 0 0 0 0.25 0"/>
<feBlend mode="normal" in2="BackgroundImageFix" result="effect1_dropShadow_321_4027"/>
<feBlend mode="normal" in="SourceGraphic" in2="effect1_dropShadow_321_4027" result="shape"/>
</filter>
</defs>
</svg>
