<svg width="180" height="96" viewBox="0 0 180 96" fill="none" xmlns="http://www.w3.org/2000/svg">
<path d="M41.322 68.7227H45.3552C47.2498 68.7227 48.6202 69.0059 49.4666 69.5723C50.3129 70.1387 50.7361 71.0339 50.7361 72.2578C50.7361 73.1042 50.4985 73.804 50.0232 74.3574C49.5545 74.9043 48.8676 75.2591 47.9627 75.4219V75.5195C50.1306 75.8906 51.2146 77.0299 51.2146 78.9375C51.2146 80.2135 50.7817 81.2096 49.9158 81.9258C49.0564 82.6419 47.852 83 46.3025 83H41.322V68.7227ZM42.9822 74.8359H45.7166C46.8884 74.8359 47.7315 74.6536 48.2459 74.2891C48.7602 73.918 49.0173 73.2962 49.0173 72.4238C49.0173 71.623 48.7309 71.0469 48.158 70.6953C47.5851 70.3372 46.6736 70.1582 45.4236 70.1582H42.9822V74.8359ZM42.9822 76.2422V81.584H45.9607C47.113 81.584 47.9789 81.3626 48.5584 80.9199C49.1443 80.4707 49.4373 79.7708 49.4373 78.8203C49.4373 77.9349 49.1378 77.2839 48.5388 76.8672C47.9464 76.4505 47.0414 76.2422 45.824 76.2422H42.9822ZM55.3501 72.2969V79.2402C55.3501 80.1126 55.5486 80.7637 55.9458 81.1934C56.3429 81.623 56.9647 81.8379 57.811 81.8379C58.9308 81.8379 59.7479 81.5319 60.2622 80.9199C60.783 80.3079 61.0434 79.3086 61.0434 77.9219V72.2969H62.6645V83H61.3266L61.0923 81.5645H61.0044C60.6723 82.0918 60.2101 82.4954 59.6177 82.7754C59.0317 83.0553 58.3611 83.1953 57.6059 83.1953C56.3039 83.1953 55.3273 82.8861 54.6763 82.2676C54.0317 81.6491 53.7095 80.6595 53.7095 79.2988V72.2969H55.3501ZM64.1926 72.2969H65.9309L68.2746 78.4004C68.7889 79.7936 69.1079 80.7995 69.2316 81.418H69.3098C69.3944 81.0859 69.5702 80.5195 69.8371 79.7188C70.1105 78.9115 70.996 76.4375 72.4934 72.2969H74.2316L69.632 84.4844C69.1763 85.6888 68.6425 86.5417 68.0305 87.043C67.425 87.5508 66.6796 87.8047 65.7941 87.8047C65.2994 87.8047 64.8111 87.7493 64.3293 87.6387V86.3398C64.6874 86.418 65.0878 86.457 65.5305 86.457C66.6438 86.457 67.438 85.832 67.9133 84.582L68.509 83.0586L64.1926 72.2969ZM84.1823 81.8574C84.4687 81.8574 84.7454 81.8379 85.0123 81.7988C85.2793 81.7533 85.4909 81.7077 85.6471 81.6621V82.9023C85.4713 82.987 85.2109 83.0553 84.8659 83.1074C84.5273 83.166 84.2213 83.1953 83.9479 83.1953C81.8776 83.1953 80.8424 82.1048 80.8424 79.9238V73.5566H79.3092V72.7754L80.8424 72.1016L81.526 69.8164H82.4635V72.2969H85.569V73.5566H82.4635V79.8555C82.4635 80.5 82.6165 80.9948 82.9225 81.3398C83.2285 81.6849 83.6484 81.8574 84.1823 81.8574ZM96.8138 77.6387C96.8138 79.3835 96.3744 80.7474 95.4955 81.7305C94.6166 82.707 93.4024 83.1953 91.8529 83.1953C90.8959 83.1953 90.0462 82.9707 89.3041 82.5215C88.5619 82.0723 87.989 81.4277 87.5853 80.5879C87.1817 79.748 86.9798 78.765 86.9798 77.6387C86.9798 75.8939 87.416 74.5365 88.2884 73.5664C89.1608 72.5898 90.3718 72.1016 91.9212 72.1016C93.4186 72.1016 94.6068 72.5996 95.4857 73.5957C96.3711 74.5918 96.8138 75.9395 96.8138 77.6387ZM88.6595 77.6387C88.6595 79.0059 88.933 80.0475 89.4798 80.7637C90.0267 81.4798 90.8308 81.8379 91.892 81.8379C92.9532 81.8379 93.7572 81.4831 94.3041 80.7734C94.8574 80.0573 95.1341 79.0124 95.1341 77.6387C95.1341 76.278 94.8574 75.2461 94.3041 74.543C93.7572 73.8333 92.9466 73.4785 91.8724 73.4785C90.8112 73.4785 90.0104 73.8268 89.4701 74.5234C88.9297 75.2201 88.6595 76.2585 88.6595 77.6387ZM101.047 77.5215C101.327 77.1243 101.753 76.6035 102.326 75.959L105.783 72.2969H107.707L103.371 76.8574L108.01 83H106.047L102.268 77.9414L101.047 78.9961V83H99.4454V67.8047H101.047V75.8613C101.047 76.2194 101.021 76.7728 100.969 77.5215H101.047ZM114.255 83.1953C112.673 83.1953 111.423 82.7135 110.505 81.75C109.593 80.7865 109.137 79.4486 109.137 77.7363C109.137 76.0111 109.561 74.6406 110.407 73.625C111.26 72.6094 112.402 72.1016 113.835 72.1016C115.176 72.1016 116.237 72.5443 117.018 73.4297C117.8 74.3086 118.19 75.4707 118.19 76.916V77.9414H110.817C110.85 79.1979 111.165 80.1517 111.764 80.8027C112.37 81.4538 113.22 81.7793 114.313 81.7793C115.466 81.7793 116.605 81.5384 117.731 81.0566V82.502C117.158 82.7493 116.615 82.9251 116.1 83.0293C115.593 83.14 114.977 83.1953 114.255 83.1953ZM113.815 73.459C112.956 73.459 112.269 73.7389 111.755 74.2988C111.247 74.8587 110.947 75.6335 110.856 76.623H116.452C116.452 75.6009 116.224 74.8197 115.768 74.2793C115.313 73.7324 114.662 73.459 113.815 73.459ZM128.068 83V76.0762C128.068 75.2038 127.869 74.5527 127.472 74.123C127.075 73.6934 126.453 73.4785 125.607 73.4785C124.487 73.4785 123.667 73.7812 123.146 74.3867C122.625 74.9922 122.365 75.9915 122.365 77.3848V83H120.744V72.2969H122.062L122.326 73.7617H122.404C122.736 73.2344 123.201 72.8275 123.8 72.541C124.399 72.248 125.067 72.1016 125.802 72.1016C127.091 72.1016 128.061 72.4141 128.712 73.0391C129.363 73.6576 129.689 74.6504 129.689 76.0176V83H128.068ZM139.713 80.0801C139.713 81.0762 139.342 81.8444 138.6 82.3848C137.858 82.9251 136.816 83.1953 135.475 83.1953C134.056 83.1953 132.949 82.9707 132.155 82.5215V81.0176C132.669 81.278 133.219 81.4831 133.805 81.6328C134.397 81.7826 134.967 81.8574 135.514 81.8574C136.36 81.8574 137.011 81.724 137.467 81.457C137.923 81.1836 138.151 80.7702 138.151 80.2168C138.151 79.8001 137.968 79.4453 137.604 79.1523C137.246 78.8529 136.543 78.5013 135.494 78.0977C134.498 77.7266 133.789 77.4043 133.365 77.1309C132.949 76.8509 132.636 76.5352 132.428 76.1836C132.226 75.832 132.125 75.4121 132.125 74.9238C132.125 74.0514 132.48 73.3646 133.19 72.8633C133.899 72.3555 134.873 72.1016 136.11 72.1016C137.262 72.1016 138.388 72.3359 139.489 72.8047L138.912 74.123C137.838 73.6803 136.865 73.459 135.992 73.459C135.224 73.459 134.645 73.5794 134.254 73.8203C133.864 74.0612 133.668 74.3932 133.668 74.8164C133.668 75.1029 133.74 75.347 133.883 75.5488C134.033 75.7507 134.27 75.9427 134.596 76.125C134.921 76.3073 135.546 76.571 136.471 76.916C137.74 77.3783 138.597 77.8438 139.039 78.3125C139.489 78.7812 139.713 79.3704 139.713 80.0801Z" fill="#C94B32"/>
<g clip-path="url(#clip0_176_1979)">
<path d="M74.3531 4.51503L56.529 22.3391C52.3056 26.5626 52.3056 33.4101 56.529 37.6335L74.3531 55.4576C78.5766 59.681 85.4241 59.681 89.6475 55.4576L107.472 37.6335C111.695 33.4101 111.695 26.5626 107.472 22.3392L89.6475 4.51504C85.4241 0.291615 78.5766 0.291612 74.3531 4.51503Z" stroke="#C94B32" stroke-miterlimit="10" stroke-linecap="round"/>
<path d="M74.3531 4.51503L56.529 22.3391C52.3056 26.5626 52.3056 33.4101 56.529 37.6335L74.3531 55.4576C78.5766 59.681 85.4241 59.681 89.6475 55.4576L107.472 37.6335C111.695 33.4101 111.695 26.5626 107.472 22.3392L89.6475 4.51504C85.4241 0.291615 78.5766 0.291612 74.3531 4.51503Z" stroke="#C94B32" stroke-miterlimit="10" stroke-linecap="round"/>
<path d="M72.1816 22.722V37.2782C72.1816 38.6809 73.3188 39.818 74.7215 39.818H89.2777C90.6804 39.818 91.8175 38.6809 91.8175 37.2782V22.722C91.8175 21.3192 90.6804 20.1821 89.2777 20.1821H74.7215C73.3188 20.1821 72.1816 21.3192 72.1816 22.722Z" stroke="#C94B32" stroke-miterlimit="10" stroke-linecap="round"/>
<path d="M90.5342 55.4666C94.7672 59.6996 101.622 59.6996 105.855 55.4666L123.661 37.6605C125.764 35.5576 126.829 32.7993 126.829 30.0137C126.829 27.2554 125.764 24.4697 123.661 22.3669L105.855 4.56077C101.622 0.327725 94.7672 0.327725 90.5342 4.56077" stroke="#C94B32" stroke-miterlimit="10" stroke-linecap="round"/>
</g>
<defs>
<clipPath id="clip0_176_1979">
<rect width="76.1948" height="60" fill="white" transform="translate(52)"/>
</clipPath>
</defs>
</svg>
