<svg width="55" height="21" viewBox="0 0 55 21" fill="none" xmlns="http://www.w3.org/2000/svg">
<path d="M21.268 2.5H4.197C3.25977 2.5 2.5 3.25977 2.5 4.197V16.059C2.5 16.9962 3.25977 17.756 4.197 17.756H21.268C22.2052 17.756 22.965 16.9962 22.965 16.059V4.197C22.965 3.25977 22.2052 2.5 21.268 2.5Z" stroke="#C94B32" stroke-linecap="round"/>
<path d="M22.965 6.11096H2.5V8.97096H22.965V6.11096Z" stroke="#C94B32" stroke-linecap="round"/>
<path d="M5.38672 14.5H9.94472" stroke="#C94B32" stroke-linecap="round"/>
<path d="M18.4099 11.5H16.0839C15.2108 11.5 14.5029 12.2078 14.5029 13.081V13.415C14.5029 14.2882 15.2108 14.996 16.0839 14.996H18.4099C19.2831 14.996 19.9909 14.2882 19.9909 13.415V13.081C19.9909 12.2078 19.2831 11.5 18.4099 11.5Z" stroke="#C94B32" stroke-linecap="round"/>
<path d="M40.4609 5.60156C39.2057 5.60156 38.2135 6.02083 37.4844 6.85938C36.7604 7.69271 36.3984 8.83594 36.3984 10.2891C36.3984 11.7839 36.7474 12.9401 37.4453 13.7578C38.1484 14.5703 39.1484 14.9766 40.4453 14.9766C41.2422 14.9766 42.151 14.8333 43.1719 14.5469V15.7109C42.3802 16.0078 41.4036 16.1562 40.2422 16.1562C38.5599 16.1562 37.2604 15.6458 36.3438 14.625C35.4323 13.6042 34.9766 12.1536 34.9766 10.2734C34.9766 9.09635 35.1953 8.0651 35.6328 7.17969C36.0755 6.29427 36.7109 5.61198 37.5391 5.13281C38.3724 4.65365 39.3516 4.41406 40.4766 4.41406C41.6745 4.41406 42.7214 4.63281 43.6172 5.07031L43.0547 6.21094C42.1901 5.80469 41.3255 5.60156 40.4609 5.60156ZM45.4881 4.57812H48.7146C50.2303 4.57812 51.3266 4.80469 52.0037 5.25781C52.6808 5.71094 53.0193 6.42708 53.0193 7.40625C53.0193 8.08333 52.8292 8.64323 52.449 9.08594C52.074 9.52344 51.5245 9.80729 50.8006 9.9375V10.0156C52.5349 10.3125 53.4021 11.224 53.4021 12.75C53.4021 13.7708 53.0558 14.5677 52.3631 15.1406C51.6756 15.7135 50.712 16 49.4724 16H45.4881V4.57812ZM46.8162 9.46875H49.0037C49.9412 9.46875 50.6157 9.32292 51.0271 9.03125C51.4386 8.73438 51.6443 8.23698 51.6443 7.53906C51.6443 6.89844 51.4151 6.4375 50.9568 6.15625C50.4985 5.86979 49.7693 5.72656 48.7693 5.72656H46.8162V9.46875ZM46.8162 10.5938V14.8672H49.199C50.1209 14.8672 50.8136 14.6901 51.2771 14.3359C51.7459 13.9766 51.9803 13.4167 51.9803 12.6562C51.9803 11.9479 51.7407 11.4271 51.2615 11.0938C50.7875 10.7604 50.0636 10.5938 49.0896 10.5938H46.8162Z" fill="#C94B32"/>
</svg>
