<svg width="20" height="21" viewBox="0 0 20 21" fill="none" xmlns="http://www.w3.org/2000/svg">
<path d="M5.67407 4.81702H14.1931" stroke="white" stroke-linecap="round" stroke-linejoin="round"/>
<path d="M5.67407 8.34509H14.1931" stroke="white" stroke-linecap="round" stroke-linejoin="round"/>
<path d="M5.67407 11.873H14.1931" stroke="white" stroke-linecap="round" stroke-linejoin="round"/>
<path d="M16.63 0.514044H3.017C2.39433 0.472996 1.78063 0.67939 1.3093 1.08836C0.83798 1.49733 0.547137 2.07581 0.5 2.69804V13.998C0.547391 14.6202 0.838307 15.1985 1.30957 15.6074C1.78084 16.0163 2.39439 16.2228 3.017 16.182H9.739L16.262 20.487V16.182H16.63C17.2526 16.2228 17.8662 16.0163 18.3374 15.6074C18.8087 15.1985 19.0996 14.6202 19.147 13.998V2.69804C19.0999 2.07581 18.809 1.49733 18.3377 1.08836C17.8664 0.67939 17.2527 0.472996 16.63 0.514044V0.514044Z" stroke="white" stroke-linecap="round" stroke-linejoin="round"/>
</svg>
