<svg width="315" height="271" viewBox="0 0 315 271" fill="none" xmlns="http://www.w3.org/2000/svg">
<path d="M141.853 69.7132C153.569 57.9975 172.564 57.9975 184.28 69.7132L226.419 111.853C238.135 123.569 238.135 142.563 226.419 154.279L184.28 196.419C172.564 208.135 153.569 208.135 141.853 196.419L99.7136 154.279C87.9979 142.563 87.9979 123.569 99.7136 111.853L141.853 69.7132Z" fill="white"/>
<path d="M247.632 90.6396L205.493 48.5C182.061 25.0686 144.071 25.0685 120.64 48.5L78.5004 90.6396C55.069 114.071 55.0689 152.061 78.5004 175.492L120.64 217.632C144.071 241.063 182.061 241.063 205.493 217.632L247.632 175.492C271.064 152.061 271.064 114.071 247.632 90.6396Z" stroke="#C94B32" stroke-opacity="0.15" stroke-width="60"/>
<path d="M233.49 104.782L191.351 62.6421C175.73 47.0212 150.403 47.0211 134.782 62.6421L92.6425 104.782C77.0216 120.403 77.0215 145.729 92.6425 161.35L134.782 203.49C150.403 219.111 175.73 219.111 191.351 203.49L233.49 161.35C249.111 145.729 249.111 120.403 233.49 104.782Z" fill="white" stroke="#C94B32" stroke-width="20"/>
<path d="M229.955 108.317L187.815 66.1777C174.147 52.5093 151.986 52.5093 138.318 66.1777L96.1781 108.317C82.5097 121.986 82.5097 144.146 96.1781 157.815L138.318 199.954C151.986 213.623 174.147 213.623 187.815 199.954L229.955 157.815C243.623 144.146 243.623 121.986 229.955 108.317Z" fill="white" stroke="white" stroke-width="10"/>
<path d="M164.355 169.281V98.5708" stroke="#C94B32" stroke-width="2" stroke-linecap="round"/>
<path d="M199.711 133.926H129" stroke="#C94B32" stroke-width="2" stroke-linecap="round"/>
</svg>
