<svg width="40" height="40" viewBox="0 0 40 40" fill="none" xmlns="http://www.w3.org/2000/svg">
<mask id="mask0_223_4871" style="mask-type:alpha" maskUnits="userSpaceOnUse" x="0" y="0" width="40" height="40">
<circle cx="20" cy="20" r="20" fill="#919191"/>
</mask>
<g mask="url(#mask0_223_4871)">
<g filter="url(#filter0_d_223_4871)">
<rect x="9" y="17" width="23" height="19" fill="#F5841F"/>
<path d="M16 26.5C16 24.0147 18.0147 22 20.5 22C22.9853 22 25 24.0147 25 26.5V31H16V26.5Z" fill="#1B2B41"/>
<path d="M9 12.5C9 10.0147 11.0147 8 13.5 8C15.9853 8 18 10.0147 18 12.5V17H9V12.5Z" fill="#1B2B41"/>
<path d="M23 12.5C23 10.0147 25.0147 8 27.5 8C29.9853 8 32 10.0147 32 12.5V17H23V12.5Z" fill="#1B2B41"/>
<rect x="12" y="31" width="17" height="5" fill="#1B2B41"/>
<rect x="9" y="26" width="2" height="5" transform="rotate(-90 9 26)" fill="#1B2B41"/>
<rect x="27" y="26" width="2" height="5" transform="rotate(-90 27 26)" fill="#1B2B41"/>
</g>
</g>
<defs>
<filter id="filter0_d_223_4871" x="7" y="6" width="27" height="32" filterUnits="userSpaceOnUse" color-interpolation-filters="sRGB">
<feFlood flood-opacity="0" result="BackgroundImageFix"/>
<feColorMatrix in="SourceAlpha" type="matrix" values="0 0 0 0 0 0 0 0 0 0 0 0 0 0 0 0 0 0 127 0" result="hardAlpha"/>
<feOffset/>
<feGaussianBlur stdDeviation="1"/>
<feComposite in2="hardAlpha" operator="out"/>
<feColorMatrix type="matrix" values="0 0 0 0 0 0 0 0 0 0 0 0 0 0 0 0 0 0 0.25 0"/>
<feBlend mode="normal" in2="BackgroundImageFix" result="effect1_dropShadow_223_4871"/>
<feBlend mode="normal" in="SourceGraphic" in2="effect1_dropShadow_223_4871" result="shape"/>
</filter>
</defs>
</svg>
