<svg width="22" height="22" viewBox="0 0 22 22" fill="none" xmlns="http://www.w3.org/2000/svg">
<g clip-path="url(#clip0_179_3195)">
<path d="M8.18514 1.65324L1.65854 8.17984C0.112065 9.72631 0.112065 12.2336 1.65854 13.7801L8.18514 20.3067C9.73161 21.8532 12.2389 21.8532 13.7854 20.3067L20.312 13.7801C21.8585 12.2336 21.8585 9.72631 20.312 8.17984L13.7854 1.65324C12.2389 0.106766 9.73161 0.106765 8.18514 1.65324Z" stroke="#B12F15" stroke-miterlimit="10" stroke-linecap="round"/>
<path d="M8.18514 1.65324L1.65854 8.17984C0.112065 9.72631 0.112065 12.2336 1.65854 13.7801L8.18514 20.3067C9.73161 21.8532 12.2389 21.8532 13.7854 20.3067L20.312 13.7801C21.8585 12.2336 21.8585 9.72631 20.312 8.17984L13.7854 1.65324C12.2389 0.106766 9.73161 0.106765 8.18514 1.65324Z" stroke="#B12F15" stroke-miterlimit="10" stroke-linecap="round"/>
<path d="M7.38965 8.31996V13.65C7.38965 14.1636 7.80602 14.58 8.31965 14.58H13.6496C14.1633 14.58 14.5796 14.1636 14.5796 13.65V8.31996C14.5796 7.80633 14.1633 7.38996 13.6496 7.38996H8.31965C7.80602 7.38996 7.38965 7.80633 7.38965 8.31996Z" stroke="#B12F15" stroke-miterlimit="10" stroke-linecap="round"/>
</g>
<defs>
<clipPath id="clip0_179_3195">
<rect width="21.97" height="21.97" fill="white"/>
</clipPath>
</defs>
</svg>
