<svg width="14" height="14" viewBox="0 0 14 14" fill="none" xmlns="http://www.w3.org/2000/svg">
<path d="M8.76203 12.992C7.38222 13.4157 5.89955 13.3591 4.55605 12.8315C3.21255 12.3039 2.08757 11.3364 1.36475 10.0871C0.641934 8.83773 0.36397 7.38025 0.576235 5.95256C0.7885 4.52487 1.47846 3.2113 2.53348 2.22627C3.5885 1.24124 4.94627 0.642928 6.38515 0.52901C7.82403 0.415091 9.25903 0.79229 10.4559 1.59903C11.6528 2.40578 12.5408 3.59442 12.9751 4.97092C13.4094 6.34742 13.3642 7.83048 12.847 9.17801" stroke="#8E969F" stroke-miterlimit="10" stroke-linecap="round"/>
<path d="M9.01512 9.46804L6.77612 7.47804V3.36304" stroke="#8E969F" stroke-miterlimit="10" stroke-linecap="round"/>
<path d="M12.8531 11.721C12.8529 12.0097 12.7671 12.2918 12.6066 12.5318C12.4461 12.7717 12.2181 12.9587 11.9514 13.0691C11.6846 13.1794 11.3911 13.2083 11.108 13.1519C10.8249 13.0955 10.5649 12.9565 10.3607 12.7524C10.1566 12.5483 10.0176 12.2882 9.96121 12.0051C9.90484 11.722 9.93367 11.4285 10.0441 11.1618C10.1544 10.895 10.3414 10.667 10.5814 10.5065C10.8213 10.346 11.1034 10.2602 11.3921 10.26C11.7796 10.26 12.1512 10.4139 12.4252 10.6879C12.6992 10.9619 12.8531 11.3335 12.8531 11.721Z" fill="#8E969F"/>
</svg>
