<svg width="22" height="23" viewBox="0 0 22 23" fill="none" xmlns="http://www.w3.org/2000/svg">
<path d="M15.2 18.445V0.5H0.5V18.445C0.500265 19.2731 0.829412 20.0672 1.41506 20.6526C2.00071 21.2381 2.7949 21.567 3.623 21.567H17.431V21.423C16.7879 21.2332 16.2234 20.8408 15.8214 20.3042C15.4194 19.7676 15.2014 19.1155 15.2 18.445V18.445Z" stroke="#C94B32" stroke-linecap="round" stroke-linejoin="round"/>
<path d="M15.291 14.125H20.872V18.445C20.872 19.273 20.5431 20.0671 19.9576 20.6526C19.3721 21.2381 18.578 21.567 17.75 21.567" stroke="#C94B32" stroke-linecap="round" stroke-linejoin="round"/>
<path d="M8.12795 2.87H2.91895V8.079H8.12795V2.87Z" stroke="#C94B32" stroke-linecap="round" stroke-linejoin="round"/>
<path d="M10.0811 3.05499H13.0581" stroke="#C94B32" stroke-linecap="round" stroke-linejoin="round"/>
<path d="M10.0811 6.10199H13.0581" stroke="#C94B32" stroke-linecap="round" stroke-linejoin="round"/>
<path d="M3.198 11.52H13.058" stroke="#C94B32" stroke-linecap="round" stroke-linejoin="round"/>
<path d="M3.198 17.102H13.058" stroke="#C94B32" stroke-linecap="round" stroke-linejoin="round"/>
<path d="M3.198 14.218H7.105" stroke="#C94B32" stroke-linecap="round" stroke-linejoin="round"/>
</svg>
