<svg width="21" height="20" viewBox="0 0 21 20" fill="none" xmlns="http://www.w3.org/2000/svg">
<g opacity="0.8" clip-path="url(#clip0_517_2057)">
<path d="M16.6499 0H4.1499C3.15534 0 2.20151 0.395088 1.49825 1.09835C0.79499 1.80161 0.399902 2.75544 0.399902 3.75L0.399902 16.25C0.399902 17.2446 0.79499 18.1984 1.49825 18.9017C2.20151 19.6049 3.15534 20 4.1499 20H16.6499C17.6445 20 18.5983 19.6049 19.3016 18.9017C20.0048 18.1984 20.3999 17.2446 20.3999 16.25V3.75C20.3999 2.75544 20.0048 1.80161 19.3016 1.09835C18.5983 0.395088 17.6445 0 16.6499 0V0ZM16.6499 15.8C16.6497 15.9196 16.6021 16.0343 16.5175 16.1189C16.4329 16.2036 16.3182 16.2512 16.1986 16.2513H4.5999C4.48026 16.2512 4.36556 16.2036 4.28096 16.1189C4.19635 16.0343 4.14875 15.9196 4.14857 15.8V4.2C4.1491 4.08058 4.19686 3.96623 4.28143 3.88191C4.36599 3.7976 4.48049 3.75017 4.5999 3.75H16.1999C16.3196 3.75018 16.4342 3.79778 16.5188 3.88239C16.6035 3.96699 16.6511 4.08169 16.6512 4.20133L16.6499 15.8ZM12.8999 5H15.3999V7.5H12.8999V5ZM7.8999 10C7.8999 10.4945 8.04652 10.9778 8.32123 11.3889C8.59593 11.8 8.98638 12.1205 9.44319 12.3097C9.90001 12.4989 10.4027 12.5484 10.8876 12.452C11.3726 12.3555 11.818 12.1174 12.1677 11.7678C12.5173 11.4181 12.7554 10.9727 12.8519 10.4877C12.9483 10.0028 12.8988 9.50011 12.7096 9.04329C12.5204 8.58648 12.2 8.19603 11.7888 7.92133C11.3777 7.64662 10.8944 7.5 10.3999 7.5C9.73686 7.5 9.10098 7.76339 8.63214 8.23223C8.16329 8.70107 7.8999 9.33696 7.8999 10ZM14.1186 10C14.1186 10.4883 14.0224 10.9719 13.8355 11.4231C13.6486 11.8742 13.3747 12.2842 13.0294 12.6295C12.6841 12.9748 12.2741 13.2487 11.823 13.4356C11.3718 13.6225 10.8882 13.7187 10.3999 13.7187C9.91156 13.7187 9.428 13.6225 8.97683 13.4356C8.52566 13.2487 8.11572 12.9748 7.77041 12.6295C7.4251 12.2842 7.15118 11.8742 6.9643 11.4231C6.77742 10.9719 6.68124 10.4883 6.68124 10C6.68241 9.78904 6.71064 9.57911 6.76524 9.37533H5.3999V15H15.3999V9.37533H14.0346C14.0898 9.57898 14.1181 9.789 14.1186 10Z" fill="white" fill-opacity="0.8"/>
</g>
<defs>
<clipPath id="clip0_517_2057">
<rect width="20" height="20" fill="white" transform="translate(0.399902)"/>
</clipPath>
</defs>
</svg>
