<svg width="20" height="20" viewBox="0 0 20 20" fill="none" xmlns="http://www.w3.org/2000/svg">
<g opacity="0.8" clip-path="url(#clip0_517_2061)">
<path d="M16.25 0H3.75C2.75544 0 1.80161 0.395088 1.09835 1.09835C0.395088 1.80161 0 2.75544 0 3.75L0 16.25C0 17.2446 0.395088 18.1984 1.09835 18.9017C1.80161 19.6049 2.75544 20 3.75 20H16.25C17.2446 20 18.1984 19.6049 18.9017 18.9017C19.6049 18.1984 20 17.2446 20 16.25V3.75C20 2.75544 19.6049 1.80161 18.9017 1.09835C18.1984 0.395088 17.2446 0 16.25 0ZM7.5 14.844H5V6.094H7.5V14.844ZM6.32733 5.55733C6.09537 5.55733 5.86862 5.48854 5.67577 5.35966C5.48291 5.23077 5.3326 5.04759 5.24387 4.83327C5.15513 4.61896 5.13195 4.38314 5.17725 4.15565C5.22255 3.92815 5.3343 3.7192 5.49837 3.55523C5.66244 3.39126 5.87145 3.27962 6.09897 3.23445C6.32649 3.18928 6.56229 3.2126 6.77656 3.30146C6.99082 3.39031 7.17392 3.54072 7.30269 3.73365C7.43147 3.92658 7.50013 4.15337 7.5 4.38533C7.50009 4.53932 7.46981 4.69182 7.4109 4.8341C7.35199 4.97637 7.26561 5.10564 7.15669 5.21449C7.04777 5.32335 6.91846 5.40966 6.77615 5.46849C6.63384 5.52732 6.48132 5.55751 6.32733 5.55733ZM16.25 14.844H13.75V9.434C13.75 8.8 13.5687 8.35667 12.79 8.35667C12.449 8.3338 12.1103 8.42815 11.8302 8.62409C11.5502 8.82003 11.3454 9.10578 11.25 9.434V14.844H8.75V6.094H11.25V6.93333C11.9715 6.39264 12.8484 6.09963 13.75 6.098C14.5613 6.098 16.25 6.58267 16.25 9.51333V14.844Z" fill="white" fill-opacity="0.8"/>
</g>
<defs>
<clipPath id="clip0_517_2061">
<rect width="20" height="20" fill="white"/>
</clipPath>
</defs>
</svg>
