<svg width="35" height="31" viewBox="0 0 35 31" fill="none" xmlns="http://www.w3.org/2000/svg">
<g clip-path="url(#clip0_517_911)">
<path d="M15.4689 2.39627C16.2569 2.39251 17.0378 2.54507 17.7665 2.84516C18.4951 3.14525 19.157 3.58689 19.7139 4.14452L22.8046 7.23527L26.7939 11.2238C27.9179 12.3504 28.5492 13.8769 28.5492 15.4684C28.5492 17.0599 27.9179 18.5864 26.7939 19.713L23.0724 23.4345L19.7146 26.7923C18.5857 27.9119 17.06 28.5402 15.47 28.5402C13.88 28.5402 12.3543 27.9119 11.2254 26.7923L7.49637 23.0633L4.14537 19.713C3.02569 18.5841 2.39745 17.0584 2.39745 15.4684C2.39745 13.8784 3.02569 12.3527 4.14537 11.2238L7.95762 7.41227L11.2254 4.14452C11.7821 3.58695 12.4438 3.14534 13.1724 2.84525C13.9009 2.54516 14.6817 2.39256 15.4696 2.39627H15.4689ZM15.4696 -0.00373476C14.3672 -0.0064687 13.2752 0.2085 12.2561 0.628849C11.237 1.0492 10.311 1.66664 9.53112 2.44576L6.26337 5.71426L2.45112 9.52576C0.881988 11.104 0.0012207 13.2391 0.0012207 15.4646C0.0012207 17.6902 0.881988 19.8253 2.45112 21.4035L5.80212 24.7545L9.53112 28.4835C11.1095 30.0525 13.2445 30.9331 15.47 30.9331C17.6955 30.9331 19.8305 30.0525 21.4089 28.4835L24.7674 25.125L28.4896 21.4028C30.0586 19.8244 30.9392 17.6894 30.9392 15.4639C30.9392 13.2384 30.0586 11.1034 28.4896 9.52503L24.5004 5.53651L21.4089 2.44503C20.629 1.66588 19.703 1.0484 18.6839 0.628048C17.6648 0.207697 16.5727 -0.00726504 15.4704 -0.00449007" fill="white"/>
<path d="M15.4689 8.32426C15.9211 8.32212 16.3693 8.40972 16.7874 8.58198C17.2056 8.75423 17.5854 9.00772 17.9049 9.32777L21.6099 13.0328C22.2545 13.6794 22.6165 14.5553 22.6165 15.4684C22.6165 16.3815 22.2545 17.2573 21.6099 17.904L17.9049 21.609C17.257 22.2528 16.3808 22.6141 15.4674 22.6141C14.5541 22.6141 13.6778 22.2528 13.0299 21.609L9.32491 17.904C8.68029 17.2573 8.31832 16.3815 8.31832 15.4684C8.31832 14.5553 8.68029 13.6794 9.32491 13.0328L13.0299 9.32777C13.3494 9.00775 13.7293 8.75427 14.1474 8.58202C14.5655 8.40977 15.0137 8.32216 15.4659 8.32426H15.4689ZM15.4659 7.37401C14.8891 7.37257 14.3177 7.48506 13.7845 7.70502C13.2512 7.92497 12.7667 8.24808 12.3587 8.65577L8.65366 12.3608C7.8328 13.1867 7.37207 14.3039 7.37207 15.4684C7.37207 16.6329 7.8328 17.7501 8.65366 18.576L12.3587 22.281C13.1846 23.1019 14.3018 23.5626 15.4663 23.5626C16.6308 23.5626 17.748 23.1019 18.5739 22.281L22.2782 18.576C23.099 17.7501 23.5598 16.6329 23.5598 15.4684C23.5598 14.3039 23.099 13.1867 22.2782 12.3608L18.5739 8.65577C18.1658 8.24802 17.6811 7.92488 17.1477 7.70493C16.6144 7.48497 16.0428 7.37251 15.4659 7.37401Z" fill="white"/>
<path d="M16.2548 5.77426C17 5.77268 17.7349 5.94737 18.3997 6.28405C19.0644 6.62073 19.6402 7.10987 20.0798 7.71152L24.2798 13.5052C25.0065 14.5175 25.3039 15.7759 25.1072 17.0064C24.9106 18.2369 24.2358 19.3399 23.2298 20.0753L17.4361 24.2753C16.6376 24.8557 15.6752 25.1669 14.6881 25.164C13.9429 25.1656 13.2079 24.9909 12.5432 24.6542C11.8784 24.3175 11.3027 23.8284 10.863 23.2268L6.66305 17.433C5.93245 16.422 5.6327 15.1626 5.82955 13.9309C6.02639 12.6992 6.70376 11.5959 7.71305 10.863L13.5068 6.66301C14.3052 6.08259 15.2677 5.77132 16.2548 5.77426ZM16.2548 4.47602C14.9942 4.47405 13.7654 4.87156 12.7448 5.6115L6.95105 9.81151C5.66707 10.7484 4.80573 12.1551 4.55493 13.7247C4.30413 15.2943 4.68423 16.8993 5.6123 18.1897L9.8123 23.9835C10.749 25.2693 12.1566 26.1319 13.7274 26.3827C15.2983 26.6336 16.9045 26.2523 18.195 25.3223L23.9888 21.1223C25.2739 20.1851 26.136 18.7775 26.3867 17.2068C26.6374 15.6362 26.2564 14.0301 25.3268 12.7395L21.1268 6.94577C20.5679 6.17701 19.8346 5.55181 18.9872 5.12156C18.1397 4.6913 17.2022 4.46825 16.2518 4.47075" fill="white"/>
<path d="M16.6013 11.748C17.0134 11.7373 17.4183 11.8571 17.7583 12.0902C18.0982 12.3234 18.3558 12.658 18.4943 13.0462L18.4988 13.0613L18.5033 13.0762L19.3411 15.8932C19.4504 16.3352 19.3806 16.8025 19.1468 17.1933C18.913 17.584 18.5343 17.8664 18.0931 17.979L15.5828 18.6202C15.4446 18.6557 15.3025 18.6736 15.1598 18.6735C14.7759 18.6744 14.4026 18.5472 14.0991 18.3121C13.7957 18.0769 13.5793 17.7472 13.4843 17.3752L13.4806 17.3602L13.4761 17.346L12.6376 14.5312C12.5304 14.0894 12.6012 13.6231 12.8347 13.2329C13.0681 12.8428 13.4456 12.56 13.8856 12.4455H13.8946H13.9036L16.1708 11.8072C16.3117 11.7728 16.4563 11.7557 16.6013 11.7562V11.748ZM16.6013 10.9717C16.3883 10.9702 16.1759 10.9954 15.9691 11.0467L13.6921 11.688C13.0481 11.8544 12.4962 12.269 12.157 12.8411C11.8177 13.4132 11.7187 14.0964 11.8816 14.7412L12.7246 17.5747C12.8645 18.1147 13.1795 18.593 13.6203 18.9347C14.0611 19.2764 14.6028 19.4623 15.1606 19.4632C15.3686 19.4642 15.576 19.439 15.7778 19.3882L18.2881 18.747C18.9319 18.5804 19.4837 18.1658 19.8229 17.5937C20.1621 17.0217 20.2612 16.3386 20.0986 15.6937L19.2556 12.861C19.0739 12.3035 18.718 11.8191 18.2403 11.4791C17.7626 11.1391 17.1883 10.9615 16.6021 10.9725" fill="white"/>
</g>
<defs>
<clipPath id="clip0_517_911">
<rect width="120" height="30.9368" fill="white"/>
</clipPath>
</defs>
</svg>
