<svg width="235" height="31" viewBox="0 0 235 31" fill="none" xmlns="http://www.w3.org/2000/svg">
<g opacity="0.3" clip-path="url(#clip0_517_2035)">
<path d="M154.507 7.21875V18.3645C154.477 18.895 154.56 19.4258 154.752 19.9215C154.946 20.2888 155.247 20.5892 155.614 20.784L157.055 21.609L155.871 23.7195C154.711 23.2235 153.647 22.5263 152.73 21.66C152.084 20.8739 151.762 19.8705 151.83 18.855V7.21875H154.507Z" fill="white"/>
<path d="M158.011 14.7337C158.329 13.9244 158.807 13.188 159.418 12.5691C160.028 11.9503 160.758 11.462 161.563 11.1337C163.4 10.4126 165.441 10.4126 167.277 11.1337C168.082 11.4621 168.812 11.9505 169.423 12.5693C170.033 13.1881 170.512 13.9245 170.829 14.7337C171.447 16.2876 171.447 18.0189 170.829 19.5727C170.512 20.3827 170.034 21.1198 169.423 21.7392C168.813 22.3587 168.083 22.8477 167.277 23.1765C165.441 23.8971 163.4 23.8971 161.563 23.1765C160.758 22.8479 160.028 22.359 159.417 21.7394C158.806 21.1199 158.328 20.3828 158.011 19.5727C157.393 18.0189 157.393 16.2876 158.011 14.7337ZM161.536 20.0235C162.311 20.7744 163.347 21.1943 164.426 21.1943C165.504 21.1943 166.541 20.7744 167.315 20.0235C168.05 19.2488 168.461 18.2214 168.461 17.1532C168.461 16.085 168.05 15.0576 167.315 14.283C166.541 13.5319 165.504 13.1118 164.426 13.1118C163.347 13.1118 162.31 13.5319 161.536 14.283C160.793 15.0537 160.378 16.0826 160.378 17.1532C160.378 18.2238 160.793 19.2527 161.536 20.0235Z" fill="white"/>
<path d="M173.764 15.5842C173.73 14.9194 173.83 14.2545 174.058 13.6289C174.285 13.0033 174.636 12.4298 175.089 11.9422C175.505 11.5057 176.007 11.1603 176.563 10.9279C177.119 10.6955 177.717 10.5812 178.32 10.5922C179.15 10.5671 179.971 10.7766 180.688 11.1967C181.31 11.5649 181.791 12.1315 182.052 12.8055H182.103C182.367 12.1287 182.853 11.5615 183.481 11.1967C184.194 10.7797 185.01 10.5704 185.836 10.5922C186.439 10.5812 187.037 10.6955 187.593 10.9279C188.149 11.1603 188.651 11.5057 189.066 11.9422C189.52 12.4297 189.871 13.0032 190.098 13.6288C190.326 14.2544 190.426 14.9193 190.392 15.5842V23.3842H187.716V15.6097C187.749 14.9837 187.536 14.3695 187.123 13.8982C186.938 13.6946 186.711 13.5329 186.458 13.4241C186.205 13.3154 185.931 13.2619 185.656 13.2675C185.352 13.253 185.049 13.3041 184.767 13.4174C184.485 13.5306 184.231 13.7033 184.022 13.9237C183.572 14.5065 183.356 15.2367 183.417 15.9705V23.3835H180.74V15.9705C180.801 15.2367 180.585 14.5065 180.135 13.9237C179.926 13.7034 179.672 13.5307 179.39 13.4175C179.108 13.3043 178.805 13.2531 178.501 13.2675C178.226 13.2618 177.952 13.3152 177.699 13.424C177.446 13.5328 177.219 13.6945 177.033 13.8982C176.62 14.3696 176.408 14.9838 176.442 15.6097V23.3835H173.765L173.764 15.5842Z" fill="white"/>
<path d="M203.469 21.8648H203.417C202.959 22.4525 202.362 22.9166 201.68 23.2148C200.94 23.5513 200.136 23.7225 199.324 23.7166C198.402 23.7281 197.489 23.5392 196.647 23.1631C195.865 22.8124 195.164 22.3043 194.588 21.6705C194.026 21.052 193.589 20.3308 193.301 19.5465C193.013 18.7811 192.865 17.9703 192.864 17.1526C192.869 16.3537 193.026 15.5631 193.327 14.8231C193.64 14.0359 194.093 13.3121 194.665 12.687C195.257 12.0376 195.975 11.5163 196.776 11.1555C197.617 10.7745 198.53 10.5812 199.453 10.5893C200.276 10.574 201.091 10.7504 201.834 11.1046C202.473 11.3996 203.02 11.8619 203.418 12.4426H203.469V10.9238H206.146V23.3821H203.469L203.469 21.8648ZM196.004 18.7148C196.206 19.1988 196.498 19.6399 196.866 20.0146C197.228 20.3855 197.661 20.681 198.139 20.8838C198.619 21.0893 199.135 21.1942 199.657 21.192C200.172 21.1905 200.682 21.0848 201.155 20.8815C201.629 20.6781 202.056 20.3812 202.412 20.0086C202.772 19.6311 203.06 19.1905 203.262 18.7088C203.673 17.7114 203.673 16.5915 203.262 15.594C203.061 15.1123 202.772 14.6716 202.412 14.2943C201.873 13.73 201.175 13.3437 200.411 13.1872C199.647 13.0308 198.854 13.1117 198.137 13.4191C197.658 13.6235 197.225 13.921 196.862 14.2943C196.495 14.6689 196.202 15.11 196 15.594C195.588 16.5914 195.588 17.7115 196 18.7088" fill="white"/>
<path d="M219.221 21.8647H219.17C218.712 22.4526 218.115 22.9167 217.432 23.2148C216.693 23.5513 215.889 23.7225 215.076 23.7165C214.155 23.7281 213.241 23.5392 212.4 23.163C211.618 22.8124 210.917 22.3043 210.34 21.6705C209.779 21.0519 209.342 20.3307 209.053 19.5465C208.766 18.781 208.618 17.9702 208.616 17.1525C208.621 16.3536 208.779 15.5631 209.079 14.823C209.392 14.0358 209.846 13.312 210.417 12.687C211.009 12.0375 211.728 11.5163 212.529 11.1555C213.369 10.7744 214.283 10.5812 215.205 10.5892C216.028 10.574 216.844 10.7504 217.587 11.1045C218.226 11.4005 218.773 11.8642 219.17 12.4463H219.221V7.21875H221.898V23.3835H219.221V21.8647ZM211.757 18.7148C211.959 19.1988 212.252 19.6399 212.619 20.0145C212.982 20.3878 213.415 20.6853 213.894 20.8897C214.373 21.0953 214.89 21.2002 215.412 21.198C215.927 21.1964 216.437 21.0908 216.91 20.8874C217.383 20.684 217.811 20.3871 218.166 20.0145C218.527 19.6369 218.815 19.1963 219.016 18.7148C219.428 17.7173 219.428 16.5974 219.016 15.6C218.815 15.1184 218.527 14.6778 218.166 14.3002C217.81 13.9257 217.381 13.6279 216.906 13.425C216.434 13.2213 215.926 13.1163 215.412 13.1167C214.891 13.1145 214.374 13.2194 213.894 13.425C213.416 13.6295 212.982 13.927 212.619 14.3002C212.252 14.6748 211.96 15.1159 211.758 15.6C211.345 16.5973 211.345 17.7174 211.758 18.7148" fill="white"/>
<path d="M225.939 19.677C226.46 20.2259 227.081 20.6712 227.767 20.9895C228.415 21.3155 229.127 21.4916 229.852 21.5048C230.483 21.5315 231.105 21.3556 231.629 21.003C231.822 20.8943 231.986 20.7404 232.107 20.5544C232.228 20.3684 232.302 20.1559 232.323 19.935C232.33 19.7544 232.295 19.5748 232.221 19.4097C232.148 19.2447 232.037 19.0986 231.899 18.9825C231.55 18.7143 231.136 18.5454 230.699 18.4935L229.18 18.21C227.925 18.0699 226.723 17.6235 225.68 16.9103C225.358 16.6333 225.103 16.287 224.934 15.8973C224.765 15.5076 224.687 15.0846 224.705 14.6603C224.702 14.1142 224.82 13.5742 225.049 13.0784C225.278 12.5826 225.613 12.143 226.03 11.7908C227.023 10.9529 228.297 10.5239 229.595 10.5908C230.444 10.5867 231.288 10.7259 232.092 11.0025C232.965 11.3221 233.788 11.764 234.537 12.315L233.019 14.1938C232.504 13.7319 231.911 13.3659 231.268 13.113C230.758 12.9176 230.218 12.813 229.672 12.804C229.106 12.79 228.548 12.9373 228.063 13.2285C227.856 13.3398 227.684 13.5052 227.563 13.707C227.443 13.9089 227.38 14.1396 227.381 14.3745C227.381 15.061 227.921 15.4985 229.002 15.687L231.702 16.2023C233.899 16.6138 234.997 17.7205 234.997 19.5225C234.993 20.0231 234.888 20.5177 234.688 20.9768C234.465 21.4906 234.141 21.9546 233.736 22.341C233.261 22.7906 232.695 23.133 232.076 23.3453C231.319 23.6076 230.521 23.7345 229.72 23.7203C227.645 23.7018 225.649 22.9235 224.109 21.5325L225.939 19.677Z" fill="white"/>
<path d="M130.469 2.39627C131.257 2.39251 132.038 2.54507 132.766 2.84516C133.495 3.14525 134.157 3.58689 134.714 4.14452L137.805 7.23527L141.794 11.2238C142.918 12.3504 143.549 13.8769 143.549 15.4684C143.549 17.0599 142.918 18.5864 141.794 19.713L138.072 23.4345L134.715 26.7923C133.586 27.9119 132.06 28.5402 130.47 28.5402C128.88 28.5402 127.354 27.9119 126.225 26.7923L122.496 23.0633L119.145 19.713C118.026 18.5841 117.397 17.0584 117.397 15.4684C117.397 13.8784 118.026 12.3527 119.145 11.2238L122.958 7.41227L126.225 4.14452C126.782 3.58695 127.444 3.14534 128.172 2.84525C128.901 2.54516 129.682 2.39256 130.47 2.39627H130.469ZM130.47 -0.00373476C129.367 -0.0064687 128.275 0.2085 127.256 0.628849C126.237 1.0492 125.311 1.66664 124.531 2.44576L121.263 5.71426L117.451 9.52576C115.882 11.104 115.001 13.2391 115.001 15.4646C115.001 17.6902 115.882 19.8253 117.451 21.4035L120.802 24.7545L124.531 28.4835C126.109 30.0525 128.245 30.9331 130.47 30.9331C132.695 30.9331 134.831 30.0525 136.409 28.4835L139.767 25.125L143.49 21.4028C145.059 19.8244 145.939 17.6894 145.939 15.4639C145.939 13.2384 145.059 11.1034 143.49 9.52503L139.5 5.53651L136.409 2.44503C135.629 1.66588 134.703 1.0484 133.684 0.628048C132.665 0.207697 131.573 -0.00726504 130.47 -0.00449007" fill="white"/>
<path d="M130.469 8.32429C130.921 8.32215 131.369 8.40976 131.787 8.58201C132.206 8.75426 132.585 9.00775 132.905 9.3278L136.61 13.0328C137.255 13.6795 137.617 14.5553 137.617 15.4684C137.617 16.3815 137.255 17.2574 136.61 17.904L132.905 21.609C132.257 22.2528 131.381 22.6141 130.467 22.6141C129.554 22.6141 128.678 22.2528 128.03 21.609L124.325 17.904C123.68 17.2574 123.318 16.3815 123.318 15.4684C123.318 14.5553 123.68 13.6795 124.325 13.0328L128.03 9.3278C128.349 9.00778 128.729 8.7543 129.147 8.58205C129.566 8.4098 130.014 8.32219 130.466 8.32429H130.469ZM130.466 7.37404C129.889 7.3726 129.318 7.48509 128.784 7.70505C128.251 7.925 127.767 8.24811 127.359 8.6558L123.654 12.3608C122.833 13.1868 122.372 14.3039 122.372 15.4684C122.372 16.6329 122.833 17.7501 123.654 18.576L127.359 22.281C128.185 23.1019 129.302 23.5626 130.466 23.5626C131.631 23.5626 132.748 23.1019 133.574 22.281L137.278 18.576C138.099 17.7501 138.56 16.6329 138.56 15.4684C138.56 14.3039 138.099 13.1868 137.278 12.3608L133.574 8.6558C133.166 8.24805 132.681 7.92491 132.148 7.70496C131.614 7.485 131.043 7.37254 130.466 7.37404Z" fill="white"/>
<path d="M131.255 5.77423C132 5.77265 132.735 5.94733 133.4 6.28402C134.064 6.6207 134.64 7.10984 135.08 7.71148L139.28 13.5052C140.006 14.5175 140.304 15.7759 140.107 17.0064C139.911 18.2369 139.236 19.3399 138.23 20.0752L132.436 24.2752C131.638 24.8556 130.675 25.1669 129.688 25.164C128.943 25.1656 128.208 24.9909 127.543 24.6542C126.878 24.3175 126.303 23.8284 125.863 23.2267L121.663 17.433C120.932 16.422 120.633 15.1626 120.83 13.9309C121.026 12.6992 121.704 11.5959 122.713 10.863L128.507 6.66298C129.305 6.08256 130.268 5.77129 131.255 5.77423ZM131.255 4.47599C129.994 4.47402 128.765 4.87153 127.745 5.61147L121.951 9.81148C120.667 10.7484 119.806 12.1551 119.555 13.7247C119.304 15.2943 119.684 16.8993 120.612 18.1897L124.812 23.9835C125.749 25.2692 127.157 26.1318 128.727 26.3827C130.298 26.6336 131.905 26.2523 133.195 25.3222L138.989 21.1222C140.274 20.1851 141.136 18.7775 141.387 17.2068C141.637 15.6362 141.256 14.0301 140.327 12.7395L136.127 6.94574C135.568 6.17698 134.835 5.55178 133.987 5.12153C133.14 4.69127 132.202 4.46822 131.252 4.47072" fill="white"/>
<path d="M131.601 11.748C132.013 11.7373 132.418 11.8571 132.758 12.0902C133.098 12.3234 133.356 12.658 133.494 13.0462L133.499 13.0613L133.503 13.0762L134.341 15.8932C134.45 16.3352 134.381 16.8025 134.147 17.1933C133.913 17.584 133.534 17.8664 133.093 17.979L130.583 18.6202C130.445 18.6557 130.302 18.6736 130.16 18.6735C129.776 18.6744 129.403 18.5472 129.099 18.3121C128.796 18.0769 128.579 17.7472 128.484 17.3752L128.481 17.3602L128.476 17.346L127.638 14.5312C127.53 14.0894 127.601 13.6231 127.835 13.2329C128.068 12.8428 128.446 12.56 128.886 12.4455H128.895H128.904L131.171 11.8072C131.312 11.7728 131.456 11.7557 131.601 11.7562V11.748ZM131.601 10.9717C131.388 10.9702 131.176 10.9954 130.969 11.0467L128.692 11.688C128.048 11.8544 127.496 12.269 127.157 12.8411C126.818 13.4132 126.719 14.0964 126.882 14.7412L127.725 17.5747C127.864 18.1147 128.179 18.593 128.62 18.9347C129.061 19.2764 129.603 19.4623 130.161 19.4632C130.369 19.4642 130.576 19.439 130.778 19.3882L133.288 18.747C133.932 18.5804 134.484 18.1658 134.823 17.5937C135.162 17.0217 135.261 16.3386 135.099 15.6937L134.256 12.861C134.074 12.3035 133.718 11.8191 133.24 11.4791C132.763 11.1391 132.188 10.9615 131.602 10.9725" fill="white"/>
</g>
<path opacity="0.3" d="M0.9 21H2.268V15.288L4.824 21H5.772L8.316 15.288V21H9.684V12.66H8.22L5.304 19.2L2.376 12.66H0.9V21ZM10.894 17.664C10.894 19.704 12.274 21.108 13.99 21.108C15.094 21.108 15.886 20.58 16.306 20.016V21H17.686V14.388H16.306V15.348C15.898 14.808 15.13 14.28 14.014 14.28C12.274 14.28 10.894 15.624 10.894 17.664ZM16.306 17.688C16.306 19.116 15.334 19.92 14.302 19.92C13.282 19.92 12.298 19.092 12.298 17.664C12.298 16.236 13.282 15.468 14.302 15.468C15.334 15.468 16.306 16.272 16.306 17.688ZM18.8948 17.664C18.8948 19.704 20.2748 21.108 22.0148 21.108C23.0948 21.108 23.8868 20.604 24.3068 20.004V21H25.6868V12.12H24.3068V15.312C23.8028 14.688 22.8908 14.28 22.0268 14.28C20.2748 14.28 18.8948 15.624 18.8948 17.664ZM24.3068 17.688C24.3068 19.116 23.3348 19.92 22.3028 19.92C21.2828 19.92 20.2988 19.092 20.2988 17.664C20.2988 16.236 21.2828 15.468 22.3028 15.468C23.3348 15.468 24.3068 16.272 24.3068 17.688ZM30.1357 15.432C31.1557 15.432 31.9597 16.08 31.9837 17.1H28.3237C28.4677 16.056 29.2117 15.432 30.1357 15.432ZM33.2317 19.032H31.7557C31.5037 19.548 31.0357 19.956 30.1957 19.956C29.1877 19.956 28.4077 19.296 28.3117 18.204H33.3637C33.3997 17.976 33.4117 17.76 33.4117 17.532C33.4117 15.588 32.0797 14.28 30.1957 14.28C28.2397 14.28 26.8957 15.612 26.8957 17.688C26.8957 19.764 28.2997 21.108 30.1957 21.108C31.8157 21.108 32.8597 20.184 33.2317 19.032ZM38.9791 15.36V14.388H37.6111V24.144H38.9791V20.04C39.4111 20.556 40.1911 21.108 41.2831 21.108C43.0231 21.108 44.3911 19.704 44.3911 17.664C44.3911 15.624 43.0231 14.28 41.2831 14.28C40.2031 14.28 39.3991 14.808 38.9791 15.36ZM42.9991 17.664C42.9991 19.092 42.0151 19.92 40.9831 19.92C39.9631 19.92 38.9791 19.116 38.9791 17.688C38.9791 16.272 39.9631 15.468 40.9831 15.468C42.0151 15.468 42.9991 16.236 42.9991 17.664ZM51.9119 17.688C51.9119 15.612 50.4239 14.28 48.5399 14.28C46.6559 14.28 45.1679 15.612 45.1679 17.688C45.1679 19.764 46.5959 21.108 48.4799 21.108C50.3759 21.108 51.9119 19.764 51.9119 17.688ZM46.5599 17.688C46.5599 16.188 47.4839 15.468 48.5159 15.468C49.5359 15.468 50.5079 16.188 50.5079 17.688C50.5079 19.188 49.4999 19.92 48.4799 19.92C47.4479 19.92 46.5599 19.188 46.5599 17.688ZM58.0643 19.152C57.9923 16.764 54.2603 17.508 54.2603 16.176C54.2603 15.732 54.6443 15.432 55.3763 15.432C56.1203 15.432 56.5643 15.828 56.6123 16.404H57.9803C57.9083 15.084 56.9243 14.28 55.4243 14.28C53.8643 14.28 52.8803 15.132 52.8803 16.188C52.8803 18.612 56.7203 17.868 56.7203 19.164C56.7203 19.62 56.3003 19.956 55.5083 19.956C54.7523 19.956 54.2363 19.512 54.1883 18.972H52.7723C52.8323 20.172 53.9483 21.108 55.5323 21.108C57.0923 21.108 58.0643 20.268 58.0643 19.152ZM64.3424 19.152C64.2704 16.764 60.5384 17.508 60.5384 16.176C60.5384 15.732 60.9224 15.432 61.6544 15.432C62.3984 15.432 62.8424 15.828 62.8904 16.404H64.2584C64.1864 15.084 63.2024 14.28 61.7024 14.28C60.1424 14.28 59.1584 15.132 59.1584 16.188C59.1584 18.612 62.9984 17.868 62.9984 19.164C62.9984 19.62 62.5784 19.956 61.7864 19.956C61.0304 19.956 60.5144 19.512 60.4664 18.972H59.0504C59.1104 20.172 60.2264 21.108 61.8104 21.108C63.3704 21.108 64.3424 20.268 64.3424 19.152ZM65.6886 21H67.0566V14.388H65.6886V21ZM66.3846 13.512C66.8646 13.512 67.2486 13.128 67.2486 12.636C67.2486 12.144 66.8646 11.76 66.3846 11.76C65.8926 11.76 65.5086 12.144 65.5086 12.636C65.5086 13.128 65.8926 13.512 66.3846 13.512ZM70.0886 15.372V12.12H68.7206V21H70.0886V20.04C70.5206 20.616 71.3006 21.108 72.3926 21.108C74.1326 21.108 75.5006 19.704 75.5006 17.664C75.5006 15.624 74.1446 14.28 72.3926 14.28C71.3486 14.28 70.5206 14.772 70.0886 15.372ZM74.1086 17.664C74.1086 19.092 73.1246 19.92 72.0926 19.92C71.0726 19.92 70.0886 19.116 70.0886 17.688C70.0886 16.272 71.0726 15.468 72.0926 15.468C73.1246 15.468 74.1086 16.236 74.1086 17.664ZM76.7214 21H78.0894V12.12H76.7214V21ZM82.5375 15.432C83.5575 15.432 84.3615 16.08 84.3855 17.1H80.7255C80.8695 16.056 81.6135 15.432 82.5375 15.432ZM85.6335 19.032H84.1575C83.9055 19.548 83.4375 19.956 82.5975 19.956C81.5895 19.956 80.8095 19.296 80.7135 18.204H85.7655C85.8015 17.976 85.8135 17.76 85.8135 17.532C85.8135 15.588 84.4815 14.28 82.5975 14.28C80.6415 14.28 79.2975 15.612 79.2975 17.688C79.2975 19.764 80.7015 21.108 82.5975 21.108C84.2175 21.108 85.2615 20.184 85.6335 19.032ZM91.3809 15.372V12.12H90.0129V21H91.3809V20.04C91.8129 20.616 92.5929 21.108 93.6849 21.108C95.4249 21.108 96.7929 19.704 96.7929 17.664C96.7929 15.624 95.4369 14.28 93.6849 14.28C92.6409 14.28 91.8129 14.772 91.3809 15.372ZM95.4009 17.664C95.4009 19.092 94.4169 19.92 93.3849 19.92C92.3649 19.92 91.3809 19.116 91.3809 17.688C91.3809 16.272 92.3649 15.468 93.3849 15.468C94.4169 15.468 95.4009 16.236 95.4009 17.664ZM100.618 19.428L98.7577 14.388H97.2337L99.8377 20.892L98.4937 24.108H99.9097L103.966 14.388H102.55L100.618 19.428Z" fill="white"/>
<defs>
<clipPath id="clip0_517_2035">
<rect width="120" height="30.9368" fill="white" transform="translate(115)"/>
</clipPath>
</defs>
</svg>
