<svg width="187" height="50" viewBox="0 0 187 50" fill="none" xmlns="http://www.w3.org/2000/svg">
<g filter="url(#filter0_i_389_3512)">
<path d="M187 50L10 50C4.47715 50 -3.91405e-07 45.5229 -8.74228e-07 40L-3.49691e-06 10C-3.97973e-06 4.47716 4.47715 6.97865e-07 10 2.15042e-07L187 -1.52588e-05L187 50Z" fill="white"/>
</g>
<path d="M64.625 30L60.75 19.875H60.6875C60.7604 20.6771 60.7969 21.6302 60.7969 22.7344V30H59.5703V18.5781H61.5703L65.1875 28H65.25L68.8984 18.5781H70.8828V30H69.5547V22.6406C69.5547 21.7969 69.5911 20.8802 69.6641 19.8906H69.6016L65.6953 30H64.625ZM81.0271 30L79.6053 26.3672H75.0271L73.6209 30H72.2771L76.7928 18.5312H77.9099L82.4021 30H81.0271ZM79.1912 25.1719L77.8631 21.6328C77.6912 21.1849 77.5141 20.6354 77.3318 19.9844C77.2172 20.4844 77.0532 21.0339 76.8396 21.6328L75.4959 25.1719H79.1912ZM87.3121 30H85.9839V19.7578H82.3668V18.5781H90.9293V19.7578H87.3121V30ZM92.4798 30V18.5781H93.8079V30H92.4798ZM101.663 19.6016C100.408 19.6016 99.4158 20.0208 98.6866 20.8594C97.9627 21.6927 97.6007 22.8359 97.6007 24.2891C97.6007 25.7839 97.9496 26.9401 98.6476 27.7578C99.3507 28.5703 100.351 28.9766 101.648 28.9766C102.444 28.9766 103.353 28.8333 104.374 28.5469V29.7109C103.582 30.0078 102.606 30.1562 101.444 30.1562C99.7621 30.1562 98.4627 29.6458 97.546 28.625C96.6345 27.6042 96.1788 26.1536 96.1788 24.2734C96.1788 23.0964 96.3976 22.0651 96.8351 21.1797C97.2778 20.2943 97.9132 19.612 98.7413 19.1328C99.5746 18.6536 100.554 18.4141 101.679 18.4141C102.877 18.4141 103.924 18.6328 104.819 19.0703L104.257 20.2109C103.392 19.8047 102.528 19.6016 101.663 19.6016Z" fill="#C94B32"/>
<path d="M36.2235 20.7468C35.7595 20.4848 35.1629 20.4848 34.6326 20.7468L30.9205 22.9084L28.4015 24.284L24.7557 26.4456C24.2917 26.7076 23.6951 26.7076 23.1648 26.4456L20.3144 24.7425C19.8504 24.4805 19.5189 23.9565 19.5189 23.367V20.0918C19.5189 19.5678 19.7841 19.0437 20.3144 18.7162L23.1648 17.0787C23.6288 16.8166 24.2254 16.8166 24.7557 17.0787L27.6061 18.7817C28.0701 19.0437 28.4015 19.5678 28.4015 20.1573V22.3189L30.9205 20.8778V18.6507C30.9205 18.1267 30.6553 17.6027 30.125 17.2752L24.822 14.1965C24.358 13.9345 23.7614 13.9345 23.2311 14.1965L17.7955 17.3407C17.2652 17.6027 17 18.1267 17 18.6507V24.808C17 25.3321 17.2652 25.8561 17.7955 26.1836L23.1648 29.2623C23.6288 29.5243 24.2254 29.5243 24.7557 29.2623L28.4015 27.1661L30.9205 25.7251L34.5663 23.629C35.0303 23.367 35.6269 23.367 36.1572 23.629L39.0076 25.2666C39.4716 25.5286 39.803 26.0526 39.803 26.6421V29.9173C39.803 30.4413 39.5379 30.9653 39.0076 31.2928L36.2235 32.9304C35.7595 33.1924 35.1629 33.1924 34.6326 32.9304L31.7822 31.2928C31.3182 31.0308 30.9867 30.5068 30.9867 29.9173V27.8212L28.4678 29.2623V31.4239C28.4678 31.9479 28.733 32.4719 29.2633 32.7994L34.6326 35.8781C35.0966 36.1401 35.6932 36.1401 36.2235 35.8781L41.5928 32.7994C42.0568 32.5374 42.3883 32.0134 42.3883 31.4239V25.2011C42.3883 24.677 42.1231 24.153 41.5928 23.8255L36.2235 20.7468Z" fill="#C94B32"/>
<g clip-path="url(#clip0_389_3512)">
<path d="M161.526 21.4758L156.5 26.524L151.474 21.4758" stroke="#C94B32" stroke-linecap="round"/>
</g>
<defs>
<filter id="filter0_i_389_3512" x="0" y="0" width="188" height="50" filterUnits="userSpaceOnUse" color-interpolation-filters="sRGB">
<feFlood flood-opacity="0" result="BackgroundImageFix"/>
<feBlend mode="normal" in="SourceGraphic" in2="BackgroundImageFix" result="shape"/>
<feColorMatrix in="SourceAlpha" type="matrix" values="0 0 0 0 0 0 0 0 0 0 0 0 0 0 0 0 0 0 127 0" result="hardAlpha"/>
<feOffset dx="1"/>
<feGaussianBlur stdDeviation="2"/>
<feComposite in2="hardAlpha" operator="arithmetic" k2="-1" k3="1"/>
<feColorMatrix type="matrix" values="0 0 0 0 0.105882 0 0 0 0 0.168627 0 0 0 0 0.254902 0 0 0 0.1 0"/>
<feBlend mode="normal" in2="shape" result="effect1_innerShadow_389_3512"/>
</filter>
<clipPath id="clip0_389_3512">
<rect width="11" height="6" fill="white" transform="translate(151 21)"/>
</clipPath>
</defs>
</svg>
