<svg width="28" height="22" viewBox="0 0 28 22" fill="none" xmlns="http://www.w3.org/2000/svg">
<path d="M11 21.5C8.9233 21.5 6.89323 20.8842 5.16652 19.7304C3.4398 18.5767 2.09399 16.9368 1.29927 15.0182C0.504549 13.0996 0.296614 10.9884 0.701759 8.95156C1.1069 6.91476 2.10693 5.04384 3.57538 3.57538C5.04384 2.10693 6.91476 1.1069 8.95156 0.701759C10.9884 0.296614 13.0996 0.504549 15.0182 1.29927C16.9368 2.09399 18.5767 3.4398 19.7304 5.16652C20.8842 6.89323 21.5 8.9233 21.5 11C21.5 13.7848 20.3938 16.4555 18.4246 18.4246C16.4555 20.3938 13.7848 21.5 11 21.5V21.5Z" stroke="white" stroke-linecap="round" stroke-linejoin="round"/>
<path d="M12.81 0.567006C13.2051 0.522452 13.6024 0.500083 14 0.500006C16.6715 0.497097 19.2437 1.51259 21.1927 3.33969C23.1417 5.16679 24.3209 7.66809 24.4903 10.3342C24.6597 13.0003 23.8065 15.6308 22.1044 17.6898C20.4023 19.7489 17.9794 21.0818 15.329 21.417C14.4237 21.5306 13.5076 21.5276 12.603 21.408" stroke="white" stroke-linecap="round" stroke-linejoin="round"/>
<path d="M15.531 0.567006C15.9261 0.522452 16.3234 0.500083 16.721 0.500006C19.3925 0.497097 21.9646 1.51259 23.9136 3.33969C25.8626 5.16679 27.0419 7.66809 27.2113 10.3342C27.3807 13.0003 26.5275 15.6308 24.8254 17.6898C23.1233 19.7489 20.7004 21.0818 18.05 21.417C17.1447 21.5306 16.2285 21.5276 15.324 21.408" stroke="white" stroke-linecap="round" stroke-linejoin="round"/>
<path d="M14.3999 9.60706C14.4001 10.2617 14.2061 10.9017 13.8424 11.446C13.4786 11.9903 12.9616 12.4144 12.3567 12.6647C11.7518 12.915 11.0862 12.9802 10.4442 12.852C9.80227 12.7238 9.21276 12.4081 8.75035 11.9447C8.28794 11.4813 7.97342 10.8911 7.8466 10.2489C7.71978 9.60662 7.78638 8.9412 8.03795 8.33682C8.28952 7.73244 8.71476 7.2163 9.25983 6.85373C9.8049 6.49116 10.4453 6.29848 11.0999 6.30006C11.9756 6.30244 12.8147 6.65184 13.4332 7.27171C14.0518 7.89158 14.3994 8.73136 14.3999 9.60706V9.60706Z" stroke="white" stroke-miterlimit="10" stroke-linecap="round"/>
<path d="M15.4999 20.113C15.461 18.9461 14.9701 17.84 14.1309 17.0284C13.2917 16.2167 12.1699 15.7629 11.0024 15.7629C9.83488 15.7629 8.71307 16.2167 7.87388 17.0284C7.03468 17.84 6.54379 18.9461 6.50488 20.113" stroke="white" stroke-miterlimit="10" stroke-linecap="round"/>
</svg>
