<svg width="265" height="131" viewBox="0 0 265 131" fill="none" xmlns="http://www.w3.org/2000/svg">
<g filter="url(#filter0_dd_411_2252)">
<rect x="11" y="11" width="247" height="111" rx="10" fill="white"/>
</g>
<path d="M199.256 66.64C198.372 66.0569 197.398 65.6423 196.476 65.124C195.878 64.7871 195.241 64.489 194.722 64.0614C193.838 63.3358 194.02 61.9105 194.943 61.2885C196.268 60.4074 198.463 60.8997 198.697 62.7009C198.697 62.7397 198.736 62.7657 198.775 62.7657H200.776C200.828 62.7657 200.867 62.7268 200.854 62.675C200.75 61.431 200.269 60.3944 199.386 59.7335C198.541 59.0986 197.58 58.7617 196.553 58.7617C191.266 58.7617 190.785 64.3465 193.63 66.1088C193.955 66.3161 196.748 67.7155 197.736 68.3245C198.723 68.9335 199.035 70.0479 198.606 70.929C198.216 71.7324 197.203 72.2896 196.19 72.2248C195.085 72.16 194.228 71.564 193.929 70.631C193.877 70.4626 193.851 70.1386 193.851 69.9961C193.851 69.9572 193.812 69.9183 193.773 69.9183H191.604C191.565 69.9183 191.526 69.9572 191.526 69.9961C191.526 71.564 191.916 72.4321 192.981 73.2226C193.981 73.9741 195.072 74.2851 196.203 74.2851C199.165 74.2851 200.698 72.6135 201.009 70.8772C201.282 69.1797 200.776 67.6507 199.256 66.64Z" fill="#161616"/>
<path d="M105.057 59.0469H104.096H103.043C103.004 59.0469 102.978 59.0728 102.965 59.0987L101.186 64.9556C101.16 65.0334 101.056 65.0334 101.03 64.9556L99.25 59.0987C99.237 59.0598 99.211 59.0469 99.172 59.0469H98.1198H97.1583H95.8592C95.8202 59.0469 95.7812 59.0857 95.7812 59.1246V74.0779C95.7812 74.1167 95.8202 74.1556 95.8592 74.1556H98.0288C98.0678 74.1556 98.1068 74.1167 98.1068 74.0779V62.7139C98.1068 62.6232 98.2366 62.6103 98.2626 62.688L100.055 68.5838L100.185 68.9984C100.198 69.0373 100.224 69.0503 100.263 69.0503H101.926C101.965 69.0503 101.991 69.0243 102.004 68.9984L102.134 68.5838L103.927 62.688C103.953 62.5973 104.083 62.6232 104.083 62.7139V74.0779C104.083 74.1167 104.122 74.1556 104.161 74.1556H106.33C106.369 74.1556 106.408 74.1167 106.408 74.0779V59.1246C106.408 59.0857 106.369 59.0469 106.33 59.0469H105.057Z" fill="#161616"/>
<path d="M166.037 59.0469C165.998 59.0469 165.972 59.0728 165.959 59.0987L164.18 64.9556C164.154 65.0334 164.05 65.0334 164.024 64.9556L162.244 59.0987C162.231 59.0598 162.205 59.0469 162.166 59.0469H158.866C158.827 59.0469 158.788 59.0857 158.788 59.1246V74.0779C158.788 74.1167 158.827 74.1556 158.866 74.1556H161.036C161.075 74.1556 161.114 74.1167 161.114 74.0779V62.7139C161.114 62.6232 161.244 62.6103 161.27 62.688L163.062 68.5838L163.192 68.9984C163.205 69.0373 163.231 69.0503 163.27 69.0503H164.933C164.972 69.0503 164.998 69.0243 165.011 68.9984L165.141 68.5838L166.934 62.688C166.96 62.5973 167.09 62.6232 167.09 62.7139V74.0779C167.09 74.1167 167.129 74.1556 167.168 74.1556H169.337C169.376 74.1556 169.415 74.1167 169.415 74.0779V59.1246C169.415 59.0857 169.376 59.0469 169.337 59.0469H166.037Z" fill="#161616"/>
<path d="M138.054 59.0469H134.014H131.845H127.804C127.765 59.0469 127.726 59.0857 127.726 59.1246V60.9905C127.726 61.0294 127.765 61.0683 127.804 61.0683H131.767V74.0779C131.767 74.1167 131.806 74.1556 131.845 74.1556H134.014C134.053 74.1556 134.092 74.1167 134.092 74.0779V61.0683H138.054C138.093 61.0683 138.132 61.0294 138.132 60.9905V59.1246C138.132 59.0857 138.106 59.0469 138.054 59.0469Z" fill="#161616"/>
<path d="M150.851 74.1554H152.825C152.877 74.1554 152.916 74.1036 152.903 74.0518L148.824 59.0467C148.811 59.0078 148.785 58.9949 148.746 58.9949H147.993H146.668H145.914C145.875 58.9949 145.849 59.0208 145.836 59.0467L141.757 74.0518C141.744 74.1036 141.783 74.1554 141.835 74.1554H143.81C143.849 74.1554 143.875 74.1295 143.888 74.1036L145.07 69.7368C145.083 69.698 145.109 69.685 145.148 69.685H149.513C149.552 69.685 149.578 69.7109 149.591 69.7368L150.773 74.1036C150.786 74.1295 150.825 74.1554 150.851 74.1554ZM145.667 67.547L147.252 61.703C147.278 61.6253 147.382 61.6253 147.408 61.703L148.993 67.547C149.006 67.5988 148.967 67.6506 148.915 67.6506H145.745C145.693 67.6506 145.654 67.5988 145.667 67.547Z" fill="#161616"/>
<path d="M184.524 74.1554H186.498C186.55 74.1554 186.589 74.1036 186.576 74.0518L182.497 59.0467C182.484 59.0078 182.458 58.9949 182.419 58.9949H181.666H180.341H179.587C179.548 58.9949 179.522 59.0208 179.509 59.0467L175.43 74.0518C175.417 74.1036 175.456 74.1554 175.508 74.1554H177.483C177.522 74.1554 177.548 74.1295 177.561 74.1036L178.743 69.7368C178.756 69.698 178.782 69.685 178.821 69.685H183.186C183.225 69.685 183.251 69.7109 183.264 69.7368L184.446 74.1036C184.459 74.1295 184.485 74.1554 184.524 74.1554ZM179.34 67.547L180.925 61.703C180.951 61.6253 181.055 61.6253 181.081 61.703L182.666 67.547C182.679 67.5988 182.64 67.6506 182.588 67.6506H179.418C179.366 67.6506 179.327 67.5988 179.34 67.547Z" fill="#161616"/>
<path d="M115.216 71.9398V67.3009C115.216 67.2621 115.255 67.2232 115.294 67.2232H121.075C121.114 67.2232 121.153 67.1843 121.153 67.1454V65.2795C121.153 65.2407 121.114 65.2018 121.075 65.2018H115.294C115.255 65.2018 115.216 65.1629 115.216 65.124V61.159C115.216 61.1201 115.255 61.0812 115.294 61.0812H121.868C121.907 61.0812 121.946 61.0423 121.946 61.0035V59.1376C121.946 59.0987 121.907 59.0598 121.868 59.0598H115.216H112.969C112.93 59.0598 112.891 59.0987 112.891 59.1376V61.0812V65.2147V67.2362V72.0305V74.0778C112.891 74.1167 112.93 74.1556 112.969 74.1556H115.216H122.14C122.179 74.1556 122.218 74.1167 122.218 74.0778V72.1083C122.218 72.0694 122.179 72.0305 122.14 72.0305H115.281C115.242 72.0176 115.216 71.9916 115.216 71.9398Z" fill="#161616"/>
<path d="M219.08 74.026L211.571 66.2902C211.545 66.2643 211.545 66.2125 211.571 66.1866L218.327 59.1894C218.379 59.1376 218.34 59.0598 218.275 59.0598H215.508C215.482 59.0598 215.469 59.0728 215.456 59.0857L209.727 65.0204C209.675 65.0722 209.597 65.0333 209.597 64.9685V59.1376C209.597 59.0987 209.558 59.0598 209.519 59.0598H207.349C207.31 59.0598 207.271 59.0987 207.271 59.1376V74.0908C207.271 74.1297 207.31 74.1686 207.349 74.1686H209.519C209.558 74.1686 209.597 74.1297 209.597 74.0908V67.5083C209.597 67.4435 209.688 67.4046 209.727 67.4564L216.222 74.1426C216.235 74.1556 216.261 74.1686 216.274 74.1686H219.041C219.093 74.1556 219.132 74.0649 219.08 74.026Z" fill="#161616"/>
<path d="M80.9583 51L67.8242 60.7183L70.2666 54.991L80.9583 51Z" fill="#E17726" stroke="#E17726" stroke-width="0.25" stroke-linecap="round" stroke-linejoin="round"/>
<path d="M50.6628 51L63.68 60.809L61.3546 54.991L50.6628 51Z" fill="#E27625" stroke="#E27625" stroke-width="0.25" stroke-linecap="round" stroke-linejoin="round"/>
<path d="M76.2292 73.5334L72.7346 78.872L80.2175 80.9323L82.3611 73.6501L76.2292 73.5334Z" fill="#E27625" stroke="#E27625" stroke-width="0.25" stroke-linecap="round" stroke-linejoin="round"/>
<path d="M49.2727 73.6501L51.4032 80.9323L58.8732 78.872L55.3915 73.5334L49.2727 73.6501Z" fill="#E27625" stroke="#E27625" stroke-width="0.25" stroke-linecap="round" stroke-linejoin="round"/>
<path d="M58.4704 64.5149L56.3918 67.6507L63.7968 67.9876L63.55 60.0186L58.4704 64.5149Z" fill="#E27625" stroke="#E27625" stroke-width="0.25" stroke-linecap="round" stroke-linejoin="round"/>
<path d="M73.1503 64.515L67.9929 59.928L67.824 67.9877L75.2289 67.6508L73.1503 64.515Z" fill="#E27625" stroke="#E27625" stroke-width="0.25" stroke-linecap="round" stroke-linejoin="round"/>
<path d="M58.8733 78.872L63.3552 76.7081L59.4969 73.7019L58.8733 78.872Z" fill="#E27625" stroke="#E27625" stroke-width="0.25" stroke-linecap="round" stroke-linejoin="round"/>
<path d="M68.2659 76.7081L72.7348 78.872L72.1242 73.7019L68.2659 76.7081Z" fill="#E27625" stroke="#E27625" stroke-width="0.25" stroke-linecap="round" stroke-linejoin="round"/>
<path d="M72.7348 78.8722L68.2659 76.7083L68.6296 79.6108L68.5906 80.8418L72.7348 78.8722Z" fill="#D5BFB2" stroke="#D5BFB2" stroke-width="0.25" stroke-linecap="round" stroke-linejoin="round"/>
<path d="M58.8733 78.8722L63.0305 80.8418L63.0045 79.6108L63.3552 76.7083L58.8733 78.8722Z" fill="#D5BFB2" stroke="#D5BFB2" stroke-width="0.25" stroke-linecap="round" stroke-linejoin="round"/>
<path d="M63.1083 71.7842L59.3928 70.6958L62.017 69.4907L63.1083 71.7842Z" fill="#233447" stroke="#233447" stroke-width="0.25" stroke-linecap="round" stroke-linejoin="round"/>
<path d="M68.5127 71.7842L69.604 69.4907L72.2412 70.6958L68.5127 71.7842Z" fill="#233447" stroke="#233447" stroke-width="0.25" stroke-linecap="round" stroke-linejoin="round"/>
<path d="M58.8732 78.872L59.5228 73.5334L55.3916 73.6501L58.8732 78.872Z" fill="#CC6228" stroke="#CC6228" stroke-width="0.25" stroke-linecap="round" stroke-linejoin="round"/>
<path d="M72.0981 73.5334L72.7347 78.872L76.2293 73.6501L72.0981 73.5334Z" fill="#CC6228" stroke="#CC6228" stroke-width="0.25" stroke-linecap="round" stroke-linejoin="round"/>
<path d="M75.2289 67.6506L67.824 67.9875L68.5125 71.7842L69.6038 69.4906L72.241 70.6957L75.2289 67.6506Z" fill="#CC6228" stroke="#CC6228" stroke-width="0.25" stroke-linecap="round" stroke-linejoin="round"/>
<path d="M59.3928 70.6957L62.017 69.4906L63.1083 71.7842L63.7968 67.9875L56.3918 67.6506L59.3928 70.6957Z" fill="#CC6228" stroke="#CC6228" stroke-width="0.25" stroke-linecap="round" stroke-linejoin="round"/>
<path d="M56.3921 67.6506L59.497 73.7019L59.393 70.6957L56.3921 67.6506Z" fill="#E27525" stroke="#E27525" stroke-width="0.25" stroke-linecap="round" stroke-linejoin="round"/>
<path d="M72.2412 70.6957L72.1243 73.7019L75.2292 67.6506L72.2412 70.6957Z" fill="#E27525" stroke="#E27525" stroke-width="0.25" stroke-linecap="round" stroke-linejoin="round"/>
<path d="M63.7972 67.9875L63.1086 71.7843L63.979 76.2675L64.1739 70.3589L63.7972 67.9875Z" fill="#E27525" stroke="#E27525" stroke-width="0.25" stroke-linecap="round" stroke-linejoin="round"/>
<path d="M67.8242 67.9875L67.4604 70.3459L67.6423 76.2675L68.5127 71.7843L67.8242 67.9875Z" fill="#E27525" stroke="#E27525" stroke-width="0.25" stroke-linecap="round" stroke-linejoin="round"/>
<path d="M68.5127 71.7843L67.6423 76.2676L68.2659 76.7082L72.1243 73.702L72.2412 70.6958L68.5127 71.7843Z" fill="#F5841F" stroke="#F5841F" stroke-width="0.25" stroke-linecap="round" stroke-linejoin="round"/>
<path d="M59.3928 70.6958L59.4968 73.702L63.3551 76.7082L63.9787 76.2676L63.1083 71.7843L59.3928 70.6958Z" fill="#F5841F" stroke="#F5841F" stroke-width="0.25" stroke-linecap="round" stroke-linejoin="round"/>
<path d="M68.5907 80.8417L68.6296 79.6107L68.2919 79.3256H63.3293L63.0045 79.6107L63.0305 80.8417L58.8733 78.8721L60.3283 80.0642L63.2773 82.0986H68.3308L71.2928 80.0642L72.7348 78.8721L68.5907 80.8417Z" fill="#C0AC9D" stroke="#C0AC9D" stroke-width="0.25" stroke-linecap="round" stroke-linejoin="round"/>
<path d="M68.2658 76.7081L67.6422 76.2676H63.9787L63.3552 76.7081L63.0044 79.6107L63.3292 79.3256H68.2918L68.6296 79.6107L68.2658 76.7081Z" fill="#161616" stroke="#161616" stroke-width="0.25" stroke-linecap="round" stroke-linejoin="round"/>
<path d="M81.5168 61.3532L82.6211 55.9887L80.9582 51L68.2659 60.3944L73.1505 64.5149L80.0488 66.5234L81.5688 64.7482L80.9063 64.2687L81.9585 63.3099L81.1531 62.6879L82.2054 61.8845L81.5168 61.3532Z" fill="#763E1A" stroke="#763E1A" stroke-width="0.25" stroke-linecap="round" stroke-linejoin="round"/>
<path d="M49 55.9887L50.1172 61.3532L49.4027 61.8845L50.468 62.6879L49.6625 63.3099L50.7148 64.2687L50.0523 64.7482L51.5722 66.5234L58.4706 64.5149L63.3552 60.3944L50.6629 51L49 55.9887Z" fill="#763E1A" stroke="#763E1A" stroke-width="0.25" stroke-linecap="round" stroke-linejoin="round"/>
<path d="M80.0489 66.5233L73.1506 64.5149L75.2292 67.6507L72.1243 73.7019L76.2295 73.6501H82.3613L80.0489 66.5233Z" fill="#F5841F" stroke="#F5841F" stroke-width="0.25" stroke-linecap="round" stroke-linejoin="round"/>
<path d="M58.4704 64.5149L51.5721 66.5233L49.2727 73.6501H55.3915L59.4967 73.7019L56.3919 67.6507L58.4704 64.5149Z" fill="#F5841F" stroke="#F5841F" stroke-width="0.25" stroke-linecap="round" stroke-linejoin="round"/>
<path d="M67.8241 67.9876L68.2658 60.3943L70.2664 54.991H61.3545L63.3551 60.3943L63.7968 67.9876L63.9657 70.3718L63.9787 76.2676H67.6422L67.6552 70.3718L67.8241 67.9876Z" fill="#F5841F" stroke="#F5841F" stroke-width="0.25" stroke-linecap="round" stroke-linejoin="round"/>
<defs>
<filter id="filter0_dd_411_2252" x="0" y="0" width="265" height="131" filterUnits="userSpaceOnUse" color-interpolation-filters="sRGB">
<feFlood flood-opacity="0" result="BackgroundImageFix"/>
<feColorMatrix in="SourceAlpha" type="matrix" values="0 0 0 0 0 0 0 0 0 0 0 0 0 0 0 0 0 0 127 0" result="hardAlpha"/>
<feOffset dx="-3" dy="-3"/>
<feGaussianBlur stdDeviation="4"/>
<feComposite in2="hardAlpha" operator="out"/>
<feColorMatrix type="matrix" values="0 0 0 0 0.788235 0 0 0 0 0.294118 0 0 0 0 0.196078 0 0 0 0.1 0"/>
<feBlend mode="normal" in2="BackgroundImageFix" result="effect1_dropShadow_411_2252"/>
<feColorMatrix in="SourceAlpha" type="matrix" values="0 0 0 0 0 0 0 0 0 0 0 0 0 0 0 0 0 0 127 0" result="hardAlpha"/>
<feOffset dx="3" dy="5"/>
<feGaussianBlur stdDeviation="2"/>
<feComposite in2="hardAlpha" operator="out"/>
<feColorMatrix type="matrix" values="0 0 0 0 0.105882 0 0 0 0 0.168627 0 0 0 0 0.254902 0 0 0 0.05 0"/>
<feBlend mode="normal" in2="effect1_dropShadow_411_2252" result="effect2_dropShadow_411_2252"/>
<feBlend mode="normal" in="SourceGraphic" in2="effect2_dropShadow_411_2252" result="shape"/>
</filter>
</defs>
</svg>
