<svg width="30" height="28" viewBox="0 0 30 28" fill="none" xmlns="http://www.w3.org/2000/svg">
<g opacity="0.8" clip-path="url(#clip0_517_2065)">
<path d="M19.4706 3.81345L15.0363 7.23189L10.6021 3.81345L15.0363 0.403076L19.4706 3.81345Z" stroke="white" stroke-linecap="round" stroke-linejoin="round"/>
<path d="M10.6021 3.81348V8.37677L15.0363 11.7871L19.4706 8.37677V3.81348" stroke="white" stroke-linecap="round" stroke-linejoin="round"/>
<path d="M15.0364 7.23193V11.7872" stroke="white" stroke-linecap="round" stroke-linejoin="round"/>
<path d="M29.5969 11.0939L25.1626 14.5042L20.7283 11.0939L25.1626 7.67542L29.5969 11.0939Z" stroke="white" stroke-linecap="round" stroke-linejoin="round"/>
<path d="M20.7283 11.0938V15.649L25.1626 19.0674L29.5969 15.649V11.0938" stroke="white" stroke-linecap="round" stroke-linejoin="round"/>
<path d="M25.1626 14.5042V19.0674" stroke="white" stroke-linecap="round" stroke-linejoin="round"/>
<path d="M9.27166 11.0939L4.83737 14.5042L0.403076 11.0939L4.83737 7.67542L9.27166 11.0939Z" stroke="white" stroke-linecap="round" stroke-linejoin="round"/>
<path d="M0.403076 11.0938V15.649L4.83737 19.0674L9.27166 15.649V11.0938" stroke="white" stroke-linecap="round" stroke-linejoin="round"/>
<path d="M4.8374 14.5042V19.0674" stroke="white" stroke-linecap="round" stroke-linejoin="round"/>
<path d="M19.4706 18.8901L15.0363 22.3005L10.6021 18.8901L15.0363 15.4797L19.4706 18.8901Z" stroke="white" stroke-linecap="round" stroke-linejoin="round"/>
<path d="M10.6021 18.8901V23.4534L15.0363 26.8638L19.4706 23.4534V18.8901" stroke="white" stroke-linecap="round" stroke-linejoin="round"/>
<path d="M15.0364 22.3004V26.8637" stroke="white" stroke-linecap="round" stroke-linejoin="round"/>
<path d="M12.5531 17.3019L9.24756 14.7542" stroke="white" stroke-linecap="round" stroke-linejoin="round"/>
<path d="M20.5186 15.1814L17.6887 17.3663" stroke="white" stroke-linecap="round" stroke-linejoin="round"/>
<path d="M19.2932 8.38489L21.591 10.1505" stroke="white" stroke-linecap="round" stroke-linejoin="round"/>
<path d="M8.73145 10.0698L10.7712 8.49768" stroke="white" stroke-linecap="round" stroke-linejoin="round"/>
</g>
<defs>
<clipPath id="clip0_517_2065">
<rect width="30" height="27.2669" fill="white"/>
</clipPath>
</defs>
</svg>
