<svg width="216" height="25" viewBox="0 0 216 25" fill="none" xmlns="http://www.w3.org/2000/svg">
<line x1="-5.1307e-09" y1="11.5" x2="70.5782" y2="11.5" stroke="#F0F0F0"/>
<line x1="144.745" y1="11.5" x2="215.323" y2="11.5" stroke="#F0F0F0"/>
<g clip-path="url(#clip0_386_7630)">
<path d="M107.337 1.88122L99.91 9.30794C98.1502 11.0677 98.1502 13.9208 99.91 15.6806L107.337 23.1073C109.096 24.8671 111.95 24.8671 113.709 23.1073L121.136 15.6806C122.896 13.9208 122.896 11.0677 121.136 9.30794L113.709 1.88122C111.95 0.121465 109.096 0.121464 107.337 1.88122Z" stroke="#B12F15" stroke-miterlimit="10" stroke-linecap="round"/>
<path d="M107.337 1.88122L99.91 9.30794C98.1502 11.0677 98.1502 13.9208 99.91 15.6806L107.337 23.1073C109.096 24.8671 111.95 24.8671 113.709 23.1073L121.136 15.6806C122.896 13.9208 122.896 11.0677 121.136 9.30794L113.709 1.88122C111.95 0.121465 109.096 0.121464 107.337 1.88122Z" stroke="#B12F15" stroke-miterlimit="10" stroke-linecap="round"/>
<path d="M106.432 9.46747L106.432 15.5326C106.432 16.117 106.906 16.5908 107.49 16.5908L113.555 16.5908C114.14 16.5908 114.614 16.117 114.614 15.5326L114.614 9.46747C114.614 8.88301 114.14 8.40921 113.555 8.40921L107.49 8.40921C106.906 8.40921 106.432 8.88301 106.432 9.46747Z" stroke="#B12F15" stroke-miterlimit="10" stroke-linecap="round"/>
</g>
<defs>
<clipPath id="clip0_386_7630">
<rect width="25" height="25" fill="white" transform="translate(98.0229)"/>
</clipPath>
</defs>
</svg>
