<svg width="27" height="32" viewBox="0 0 27 32" fill="none" xmlns="http://www.w3.org/2000/svg">
<g filter="url(#filter0_d_460_2215)">
<rect x="2" y="11" width="23" height="19" fill="#F5841F"/>
<path d="M9 20.5C9 18.0147 11.0147 16 13.5 16C15.9853 16 18 18.0147 18 20.5V25H9V20.5Z" fill="#1B2B41"/>
<path d="M2 6.5C2 4.01472 4.01472 2 6.5 2C8.98528 2 11 4.01472 11 6.5V11H2V6.5Z" fill="#1B2B41"/>
<path d="M16 6.5C16 4.01472 18.0147 2 20.5 2C22.9853 2 25 4.01472 25 6.5V11H16V6.5Z" fill="#1B2B41"/>
<rect x="5" y="25" width="17" height="5" fill="#1B2B41"/>
<rect x="2" y="20" width="2" height="5" transform="rotate(-90 2 20)" fill="#1B2B41"/>
<rect x="20" y="20" width="2" height="5" transform="rotate(-90 20 20)" fill="#1B2B41"/>
</g>
<defs>
<filter id="filter0_d_460_2215" x="0" y="0" width="27" height="32" filterUnits="userSpaceOnUse" color-interpolation-filters="sRGB">
<feFlood flood-opacity="0" result="BackgroundImageFix"/>
<feColorMatrix in="SourceAlpha" type="matrix" values="0 0 0 0 0 0 0 0 0 0 0 0 0 0 0 0 0 0 127 0" result="hardAlpha"/>
<feOffset/>
<feGaussianBlur stdDeviation="1"/>
<feComposite in2="hardAlpha" operator="out"/>
<feColorMatrix type="matrix" values="0 0 0 0 0 0 0 0 0 0 0 0 0 0 0 0 0 0 0.25 0"/>
<feBlend mode="normal" in2="BackgroundImageFix" result="effect1_dropShadow_460_2215"/>
<feBlend mode="normal" in="SourceGraphic" in2="effect1_dropShadow_460_2215" result="shape"/>
</filter>
</defs>
</svg>
