<svg width="29" height="23" viewBox="0 0 29 23" fill="none" xmlns="http://www.w3.org/2000/svg">
<path d="M15.756 8.12804C15.7571 6.88582 15.4549 5.66212 14.8755 4.56328C14.2962 3.46443 13.4573 2.52368 12.4317 1.82276C11.4061 1.12184 10.2249 0.681965 8.99064 0.541348C7.7564 0.40073 6.5065 0.563628 5.34953 1.01589C4.19257 1.46814 3.16354 2.19608 2.35186 3.13645C1.54018 4.07681 0.970411 5.20116 0.692051 6.41178C0.413692 7.62241 0.435166 8.8827 0.754609 10.0831C1.07405 11.2836 1.6818 12.3879 2.52504 13.3C3.69819 14.5458 4.35721 16.1889 4.37004 17.9V18.5C4.37004 19.0246 4.57844 19.5277 4.94939 19.8987C5.32033 20.2696 5.82345 20.478 6.34804 20.478H9.90804C10.4326 20.4778 10.9355 20.2693 11.3064 19.8984C11.6773 19.5275 11.8858 19.0246 11.886 18.5V17.9C11.8884 16.2025 12.537 14.5695 13.7 13.333C15.0237 11.9235 15.7591 10.0617 15.756 8.12804V8.12804Z" stroke="white" stroke-linecap="round" stroke-linejoin="round"/>
<path d="M8.12793 6.03503V11.035" stroke="white" stroke-linecap="round" stroke-linejoin="round"/>
<path d="M5.62793 8.53503H10.6279" stroke="white" stroke-linecap="round" stroke-linejoin="round"/>
<path d="M4.47095 17.9191H11.7269" stroke="white" stroke-linecap="round" stroke-linejoin="round"/>
<path d="M15.564 5.26709H28.331V12.2001H14.866" stroke="white" stroke-linecap="round" stroke-linejoin="round"/>
<path d="M13.0521 14.826H28.3311V21.755H9.90015V20.477" stroke="white" stroke-linecap="round" stroke-linejoin="round"/>
</svg>
