<svg width="478" height="279" viewBox="0 0 478 279" fill="none" xmlns="http://www.w3.org/2000/svg">
<g filter="url(#filter0_dd_321_4455)">
<path d="M4 10C4 7.23858 6.23858 5 9 5H470C472.761 5 475 7.23858 475 10V268C475 270.761 472.761 273 470 273H9C6.23857 273 4 270.761 4 268V10Z" fill="white"/>
<path d="M4.5 10C4.5 7.51472 6.51472 5.5 9 5.5H470C472.485 5.5 474.5 7.51472 474.5 10V268C474.5 270.485 472.485 272.5 470 272.5H9C6.51472 272.5 4.5 270.485 4.5 268V10Z" stroke="white"/>
</g>
<path d="M377.944 41.9014C376.846 41.9014 375.978 42.2682 375.34 43.002C374.706 43.7311 374.39 44.7314 374.39 46.0029C374.39 47.3109 374.695 48.3226 375.306 49.0381C375.921 49.749 376.796 50.1045 377.931 50.1045C378.628 50.1045 379.423 49.9792 380.316 49.7285V50.7471C379.624 51.0068 378.769 51.1367 377.753 51.1367C376.281 51.1367 375.144 50.6901 374.342 49.7969C373.544 48.9036 373.146 47.6344 373.146 45.9893C373.146 44.9593 373.337 44.057 373.72 43.2822C374.107 42.5075 374.663 41.9105 375.388 41.4912C376.117 41.0719 376.974 40.8623 377.958 40.8623C379.006 40.8623 379.922 41.0537 380.706 41.4365L380.214 42.4346C379.457 42.0791 378.701 41.9014 377.944 41.9014ZM388.793 47.2471C388.793 48.4684 388.485 49.4232 387.87 50.1113C387.255 50.7949 386.405 51.1367 385.32 51.1367C384.65 51.1367 384.056 50.9795 383.536 50.665C383.017 50.3506 382.616 49.8994 382.333 49.3115C382.05 48.7236 381.909 48.0355 381.909 47.2471C381.909 46.0257 382.215 45.0755 382.825 44.3965C383.436 43.7129 384.284 43.3711 385.368 43.3711C386.416 43.3711 387.248 43.7197 387.863 44.417C388.483 45.1143 388.793 46.0576 388.793 47.2471ZM383.085 47.2471C383.085 48.2041 383.276 48.9333 383.659 49.4346C384.042 49.9359 384.605 50.1865 385.348 50.1865C386.09 50.1865 386.653 49.9382 387.036 49.4414C387.424 48.9401 387.617 48.2087 387.617 47.2471C387.617 46.2946 387.424 45.5723 387.036 45.0801C386.653 44.5833 386.086 44.335 385.334 44.335C384.591 44.335 384.031 44.5788 383.652 45.0664C383.274 45.554 383.085 46.2809 383.085 47.2471ZM400.339 51V46.126C400.339 45.529 400.211 45.0824 399.956 44.7861C399.701 44.4854 399.304 44.335 398.767 44.335C398.06 44.335 397.538 44.5378 397.201 44.9434C396.864 45.349 396.695 45.9733 396.695 46.8164V51H395.561V46.126C395.561 45.529 395.433 45.0824 395.178 44.7861C394.923 44.4854 394.524 44.335 393.981 44.335C393.271 44.335 392.749 44.5492 392.416 44.9775C392.088 45.4014 391.924 46.0986 391.924 47.0693V51H390.789V43.5078H391.712L391.896 44.5332H391.951C392.165 44.1686 392.466 43.8838 392.854 43.6787C393.245 43.4736 393.683 43.3711 394.166 43.3711C395.337 43.3711 396.103 43.7949 396.463 44.6426H396.518C396.741 44.2507 397.064 43.9408 397.488 43.7129C397.912 43.485 398.395 43.3711 398.938 43.3711C399.785 43.3711 400.419 43.5898 400.838 44.0273C401.262 44.4603 401.474 45.1553 401.474 46.1123V51H400.339ZM407.305 51.1367C406.817 51.1367 406.37 51.0479 405.965 50.8701C405.564 50.6878 405.227 50.4098 404.953 50.0361H404.871C404.926 50.4736 404.953 50.8883 404.953 51.2803V54.3633H403.818V43.5078H404.741L404.898 44.5332H404.953C405.245 44.123 405.584 43.8268 405.972 43.6445C406.359 43.4622 406.803 43.3711 407.305 43.3711C408.298 43.3711 409.064 43.7106 409.602 44.3896C410.144 45.0687 410.415 46.0212 410.415 47.2471C410.415 48.4775 410.139 49.4346 409.588 50.1182C409.041 50.7972 408.28 51.1367 407.305 51.1367ZM407.141 44.335C406.375 44.335 405.821 44.5469 405.479 44.9707C405.138 45.3945 404.962 46.069 404.953 46.9941V47.2471C404.953 48.2998 405.129 49.054 405.479 49.5098C405.83 49.9609 406.393 50.1865 407.168 50.1865C407.815 50.1865 408.321 49.9245 408.686 49.4004C409.055 48.8763 409.239 48.154 409.239 47.2334C409.239 46.2992 409.055 45.5837 408.686 45.0869C408.321 44.5856 407.806 44.335 407.141 44.335ZM413.539 51H412.404V40.3633H413.539V51ZM419.11 51.1367C418.003 51.1367 417.128 50.7995 416.485 50.125C415.847 49.4505 415.528 48.514 415.528 47.3154C415.528 46.1077 415.825 45.1484 416.417 44.4375C417.014 43.7266 417.814 43.3711 418.816 43.3711C419.755 43.3711 420.498 43.681 421.045 44.3008C421.592 44.916 421.865 45.7295 421.865 46.7412V47.459H416.704C416.727 48.3385 416.948 49.0062 417.367 49.4619C417.791 49.9176 418.386 50.1455 419.151 50.1455C419.958 50.1455 420.756 49.9769 421.544 49.6396V50.6514C421.143 50.8245 420.762 50.9476 420.402 51.0205C420.047 51.098 419.616 51.1367 419.11 51.1367ZM418.803 44.3213C418.201 44.3213 417.72 44.5173 417.36 44.9092C417.005 45.3011 416.795 45.8434 416.731 46.5361H420.648C420.648 45.8206 420.489 45.2738 420.17 44.8955C419.851 44.5127 419.395 44.3213 418.803 44.3213ZM426.227 50.2002C426.427 50.2002 426.621 50.1865 426.808 50.1592C426.994 50.1273 427.143 50.0954 427.252 50.0635V50.9316C427.129 50.9909 426.947 51.0387 426.705 51.0752C426.468 51.1162 426.254 51.1367 426.062 51.1367C424.613 51.1367 423.889 50.3734 423.889 48.8467V44.3896H422.815V43.8428L423.889 43.3711L424.367 41.7715H425.023V43.5078H427.197V44.3896H425.023V48.7988C425.023 49.25 425.131 49.5964 425.345 49.8379C425.559 50.0794 425.853 50.2002 426.227 50.2002ZM431.921 51.1367C430.813 51.1367 429.938 50.7995 429.296 50.125C428.658 49.4505 428.339 48.514 428.339 47.3154C428.339 46.1077 428.635 45.1484 429.228 44.4375C429.825 43.7266 430.624 43.3711 431.627 43.3711C432.566 43.3711 433.309 43.681 433.855 44.3008C434.402 44.916 434.676 45.7295 434.676 46.7412V47.459H429.515C429.537 48.3385 429.758 49.0062 430.178 49.4619C430.602 49.9176 431.196 50.1455 431.962 50.1455C432.769 50.1455 433.566 49.9769 434.354 49.6396V50.6514C433.953 50.8245 433.573 50.9476 433.213 51.0205C432.857 51.098 432.427 51.1367 431.921 51.1367ZM431.613 44.3213C431.012 44.3213 430.531 44.5173 430.171 44.9092C429.815 45.3011 429.606 45.8434 429.542 46.5361H433.459C433.459 45.8206 433.299 45.2738 432.98 44.8955C432.661 44.5127 432.206 44.3213 431.613 44.3213ZM441.717 49.9951H441.655C441.131 50.7562 440.347 51.1367 439.304 51.1367C438.324 51.1367 437.561 50.8018 437.014 50.1318C436.471 49.4619 436.2 48.5094 436.2 47.2744C436.2 46.0394 436.474 45.0801 437.021 44.3965C437.567 43.7129 438.328 43.3711 439.304 43.3711C440.32 43.3711 441.099 43.7402 441.642 44.4785H441.73L441.683 43.9385L441.655 43.4121V40.3633H442.79V51H441.867L441.717 49.9951ZM439.447 50.1865C440.222 50.1865 440.783 49.9769 441.129 49.5576C441.48 49.1338 441.655 48.4525 441.655 47.5137V47.2744C441.655 46.2126 441.478 45.4561 441.122 45.0049C440.771 44.5492 440.208 44.3213 439.434 44.3213C438.768 44.3213 438.258 44.5811 437.902 45.1006C437.551 45.6156 437.376 46.3447 437.376 47.2881C437.376 48.2451 437.551 48.9674 437.902 49.4551C438.253 49.9427 438.768 50.1865 439.447 50.1865Z" fill="#76808D" fill-opacity="0.5"/>
<path d="M377.944 115.901C376.846 115.901 375.978 116.268 375.34 117.002C374.706 117.731 374.39 118.731 374.39 120.003C374.39 121.311 374.695 122.323 375.306 123.038C375.921 123.749 376.796 124.104 377.931 124.104C378.628 124.104 379.423 123.979 380.316 123.729V124.747C379.624 125.007 378.769 125.137 377.753 125.137C376.281 125.137 375.144 124.69 374.342 123.797C373.544 122.904 373.146 121.634 373.146 119.989C373.146 118.959 373.337 118.057 373.72 117.282C374.107 116.507 374.663 115.91 375.388 115.491C376.117 115.072 376.974 114.862 377.958 114.862C379.006 114.862 379.922 115.054 380.706 115.437L380.214 116.435C379.457 116.079 378.701 115.901 377.944 115.901ZM388.793 121.247C388.793 122.468 388.485 123.423 387.87 124.111C387.255 124.795 386.405 125.137 385.32 125.137C384.65 125.137 384.056 124.979 383.536 124.665C383.017 124.351 382.616 123.899 382.333 123.312C382.05 122.724 381.909 122.035 381.909 121.247C381.909 120.026 382.215 119.076 382.825 118.396C383.436 117.713 384.284 117.371 385.368 117.371C386.416 117.371 387.248 117.72 387.863 118.417C388.483 119.114 388.793 120.058 388.793 121.247ZM383.085 121.247C383.085 122.204 383.276 122.933 383.659 123.435C384.042 123.936 384.605 124.187 385.348 124.187C386.09 124.187 386.653 123.938 387.036 123.441C387.424 122.94 387.617 122.209 387.617 121.247C387.617 120.295 387.424 119.572 387.036 119.08C386.653 118.583 386.086 118.335 385.334 118.335C384.591 118.335 384.031 118.579 383.652 119.066C383.274 119.554 383.085 120.281 383.085 121.247ZM400.339 125V120.126C400.339 119.529 400.211 119.082 399.956 118.786C399.701 118.485 399.304 118.335 398.767 118.335C398.06 118.335 397.538 118.538 397.201 118.943C396.864 119.349 396.695 119.973 396.695 120.816V125H395.561V120.126C395.561 119.529 395.433 119.082 395.178 118.786C394.923 118.485 394.524 118.335 393.981 118.335C393.271 118.335 392.749 118.549 392.416 118.978C392.088 119.401 391.924 120.099 391.924 121.069V125H390.789V117.508H391.712L391.896 118.533H391.951C392.165 118.169 392.466 117.884 392.854 117.679C393.245 117.474 393.683 117.371 394.166 117.371C395.337 117.371 396.103 117.795 396.463 118.643H396.518C396.741 118.251 397.064 117.941 397.488 117.713C397.912 117.485 398.395 117.371 398.938 117.371C399.785 117.371 400.419 117.59 400.838 118.027C401.262 118.46 401.474 119.155 401.474 120.112V125H400.339ZM407.305 125.137C406.817 125.137 406.37 125.048 405.965 124.87C405.564 124.688 405.227 124.41 404.953 124.036H404.871C404.926 124.474 404.953 124.888 404.953 125.28V128.363H403.818V117.508H404.741L404.898 118.533H404.953C405.245 118.123 405.584 117.827 405.972 117.645C406.359 117.462 406.803 117.371 407.305 117.371C408.298 117.371 409.064 117.711 409.602 118.39C410.144 119.069 410.415 120.021 410.415 121.247C410.415 122.478 410.139 123.435 409.588 124.118C409.041 124.797 408.28 125.137 407.305 125.137ZM407.141 118.335C406.375 118.335 405.821 118.547 405.479 118.971C405.138 119.395 404.962 120.069 404.953 120.994V121.247C404.953 122.3 405.129 123.054 405.479 123.51C405.83 123.961 406.393 124.187 407.168 124.187C407.815 124.187 408.321 123.924 408.686 123.4C409.055 122.876 409.239 122.154 409.239 121.233C409.239 120.299 409.055 119.584 408.686 119.087C408.321 118.586 407.806 118.335 407.141 118.335ZM413.539 125H412.404V114.363H413.539V125ZM419.11 125.137C418.003 125.137 417.128 124.799 416.485 124.125C415.847 123.451 415.528 122.514 415.528 121.315C415.528 120.108 415.825 119.148 416.417 118.438C417.014 117.727 417.814 117.371 418.816 117.371C419.755 117.371 420.498 117.681 421.045 118.301C421.592 118.916 421.865 119.729 421.865 120.741V121.459H416.704C416.727 122.339 416.948 123.006 417.367 123.462C417.791 123.918 418.386 124.146 419.151 124.146C419.958 124.146 420.756 123.977 421.544 123.64V124.651C421.143 124.825 420.762 124.948 420.402 125.021C420.047 125.098 419.616 125.137 419.11 125.137ZM418.803 118.321C418.201 118.321 417.72 118.517 417.36 118.909C417.005 119.301 416.795 119.843 416.731 120.536H420.648C420.648 119.821 420.489 119.274 420.17 118.896C419.851 118.513 419.395 118.321 418.803 118.321ZM426.227 124.2C426.427 124.2 426.621 124.187 426.808 124.159C426.994 124.127 427.143 124.095 427.252 124.063V124.932C427.129 124.991 426.947 125.039 426.705 125.075C426.468 125.116 426.254 125.137 426.062 125.137C424.613 125.137 423.889 124.373 423.889 122.847V118.39H422.815V117.843L423.889 117.371L424.367 115.771H425.023V117.508H427.197V118.39H425.023V122.799C425.023 123.25 425.131 123.596 425.345 123.838C425.559 124.079 425.853 124.2 426.227 124.2ZM431.921 125.137C430.813 125.137 429.938 124.799 429.296 124.125C428.658 123.451 428.339 122.514 428.339 121.315C428.339 120.108 428.635 119.148 429.228 118.438C429.825 117.727 430.624 117.371 431.627 117.371C432.566 117.371 433.309 117.681 433.855 118.301C434.402 118.916 434.676 119.729 434.676 120.741V121.459H429.515C429.537 122.339 429.758 123.006 430.178 123.462C430.602 123.918 431.196 124.146 431.962 124.146C432.769 124.146 433.566 123.977 434.354 123.64V124.651C433.953 124.825 433.573 124.948 433.213 125.021C432.857 125.098 432.427 125.137 431.921 125.137ZM431.613 118.321C431.012 118.321 430.531 118.517 430.171 118.909C429.815 119.301 429.606 119.843 429.542 120.536H433.459C433.459 119.821 433.299 119.274 432.98 118.896C432.661 118.513 432.206 118.321 431.613 118.321ZM441.717 123.995H441.655C441.131 124.756 440.347 125.137 439.304 125.137C438.324 125.137 437.561 124.802 437.014 124.132C436.471 123.462 436.2 122.509 436.2 121.274C436.2 120.039 436.474 119.08 437.021 118.396C437.567 117.713 438.328 117.371 439.304 117.371C440.32 117.371 441.099 117.74 441.642 118.479H441.73L441.683 117.938L441.655 117.412V114.363H442.79V125H441.867L441.717 123.995ZM439.447 124.187C440.222 124.187 440.783 123.977 441.129 123.558C441.48 123.134 441.655 122.452 441.655 121.514V121.274C441.655 120.213 441.478 119.456 441.122 119.005C440.771 118.549 440.208 118.321 439.434 118.321C438.768 118.321 438.258 118.581 437.902 119.101C437.551 119.616 437.376 120.345 437.376 121.288C437.376 122.245 437.551 122.967 437.902 123.455C438.253 123.943 438.768 124.187 439.447 124.187Z" fill="#76808D" fill-opacity="0.5"/>
<path d="M377.944 189.901C376.846 189.901 375.978 190.268 375.34 191.002C374.706 191.731 374.39 192.731 374.39 194.003C374.39 195.311 374.695 196.323 375.306 197.038C375.921 197.749 376.796 198.104 377.931 198.104C378.628 198.104 379.423 197.979 380.316 197.729V198.747C379.624 199.007 378.769 199.137 377.753 199.137C376.281 199.137 375.144 198.69 374.342 197.797C373.544 196.904 373.146 195.634 373.146 193.989C373.146 192.959 373.337 192.057 373.72 191.282C374.107 190.507 374.663 189.91 375.388 189.491C376.117 189.072 376.974 188.862 377.958 188.862C379.006 188.862 379.922 189.054 380.706 189.437L380.214 190.435C379.457 190.079 378.701 189.901 377.944 189.901ZM388.793 195.247C388.793 196.468 388.485 197.423 387.87 198.111C387.255 198.795 386.405 199.137 385.32 199.137C384.65 199.137 384.056 198.979 383.536 198.665C383.017 198.351 382.616 197.899 382.333 197.312C382.05 196.724 381.909 196.035 381.909 195.247C381.909 194.026 382.215 193.076 382.825 192.396C383.436 191.713 384.284 191.371 385.368 191.371C386.416 191.371 387.248 191.72 387.863 192.417C388.483 193.114 388.793 194.058 388.793 195.247ZM383.085 195.247C383.085 196.204 383.276 196.933 383.659 197.435C384.042 197.936 384.605 198.187 385.348 198.187C386.09 198.187 386.653 197.938 387.036 197.441C387.424 196.94 387.617 196.209 387.617 195.247C387.617 194.295 387.424 193.572 387.036 193.08C386.653 192.583 386.086 192.335 385.334 192.335C384.591 192.335 384.031 192.579 383.652 193.066C383.274 193.554 383.085 194.281 383.085 195.247ZM400.339 199V194.126C400.339 193.529 400.211 193.082 399.956 192.786C399.701 192.485 399.304 192.335 398.767 192.335C398.06 192.335 397.538 192.538 397.201 192.943C396.864 193.349 396.695 193.973 396.695 194.816V199H395.561V194.126C395.561 193.529 395.433 193.082 395.178 192.786C394.923 192.485 394.524 192.335 393.981 192.335C393.271 192.335 392.749 192.549 392.416 192.978C392.088 193.401 391.924 194.099 391.924 195.069V199H390.789V191.508H391.712L391.896 192.533H391.951C392.165 192.169 392.466 191.884 392.854 191.679C393.245 191.474 393.683 191.371 394.166 191.371C395.337 191.371 396.103 191.795 396.463 192.643H396.518C396.741 192.251 397.064 191.941 397.488 191.713C397.912 191.485 398.395 191.371 398.938 191.371C399.785 191.371 400.419 191.59 400.838 192.027C401.262 192.46 401.474 193.155 401.474 194.112V199H400.339ZM407.305 199.137C406.817 199.137 406.37 199.048 405.965 198.87C405.564 198.688 405.227 198.41 404.953 198.036H404.871C404.926 198.474 404.953 198.888 404.953 199.28V202.363H403.818V191.508H404.741L404.898 192.533H404.953C405.245 192.123 405.584 191.827 405.972 191.645C406.359 191.462 406.803 191.371 407.305 191.371C408.298 191.371 409.064 191.711 409.602 192.39C410.144 193.069 410.415 194.021 410.415 195.247C410.415 196.478 410.139 197.435 409.588 198.118C409.041 198.797 408.28 199.137 407.305 199.137ZM407.141 192.335C406.375 192.335 405.821 192.547 405.479 192.971C405.138 193.395 404.962 194.069 404.953 194.994V195.247C404.953 196.3 405.129 197.054 405.479 197.51C405.83 197.961 406.393 198.187 407.168 198.187C407.815 198.187 408.321 197.924 408.686 197.4C409.055 196.876 409.239 196.154 409.239 195.233C409.239 194.299 409.055 193.584 408.686 193.087C408.321 192.586 407.806 192.335 407.141 192.335ZM413.539 199H412.404V188.363H413.539V199ZM419.11 199.137C418.003 199.137 417.128 198.799 416.485 198.125C415.847 197.451 415.528 196.514 415.528 195.315C415.528 194.108 415.825 193.148 416.417 192.438C417.014 191.727 417.814 191.371 418.816 191.371C419.755 191.371 420.498 191.681 421.045 192.301C421.592 192.916 421.865 193.729 421.865 194.741V195.459H416.704C416.727 196.339 416.948 197.006 417.367 197.462C417.791 197.918 418.386 198.146 419.151 198.146C419.958 198.146 420.756 197.977 421.544 197.64V198.651C421.143 198.825 420.762 198.948 420.402 199.021C420.047 199.098 419.616 199.137 419.11 199.137ZM418.803 192.321C418.201 192.321 417.72 192.517 417.36 192.909C417.005 193.301 416.795 193.843 416.731 194.536H420.648C420.648 193.821 420.489 193.274 420.17 192.896C419.851 192.513 419.395 192.321 418.803 192.321ZM426.227 198.2C426.427 198.2 426.621 198.187 426.808 198.159C426.994 198.127 427.143 198.095 427.252 198.063V198.932C427.129 198.991 426.947 199.039 426.705 199.075C426.468 199.116 426.254 199.137 426.062 199.137C424.613 199.137 423.889 198.373 423.889 196.847V192.39H422.815V191.843L423.889 191.371L424.367 189.771H425.023V191.508H427.197V192.39H425.023V196.799C425.023 197.25 425.131 197.596 425.345 197.838C425.559 198.079 425.853 198.2 426.227 198.2ZM431.921 199.137C430.813 199.137 429.938 198.799 429.296 198.125C428.658 197.451 428.339 196.514 428.339 195.315C428.339 194.108 428.635 193.148 429.228 192.438C429.825 191.727 430.624 191.371 431.627 191.371C432.566 191.371 433.309 191.681 433.855 192.301C434.402 192.916 434.676 193.729 434.676 194.741V195.459H429.515C429.537 196.339 429.758 197.006 430.178 197.462C430.602 197.918 431.196 198.146 431.962 198.146C432.769 198.146 433.566 197.977 434.354 197.64V198.651C433.953 198.825 433.573 198.948 433.213 199.021C432.857 199.098 432.427 199.137 431.921 199.137ZM431.613 192.321C431.012 192.321 430.531 192.517 430.171 192.909C429.815 193.301 429.606 193.843 429.542 194.536H433.459C433.459 193.821 433.299 193.274 432.98 192.896C432.661 192.513 432.206 192.321 431.613 192.321ZM441.717 197.995H441.655C441.131 198.756 440.347 199.137 439.304 199.137C438.324 199.137 437.561 198.802 437.014 198.132C436.471 197.462 436.2 196.509 436.2 195.274C436.2 194.039 436.474 193.08 437.021 192.396C437.567 191.713 438.328 191.371 439.304 191.371C440.32 191.371 441.099 191.74 441.642 192.479H441.73L441.683 191.938L441.655 191.412V188.363H442.79V199H441.867L441.717 197.995ZM439.447 198.187C440.222 198.187 440.783 197.977 441.129 197.558C441.48 197.134 441.655 196.452 441.655 195.514V195.274C441.655 194.213 441.478 193.456 441.122 193.005C440.771 192.549 440.208 192.321 439.434 192.321C438.768 192.321 438.258 192.581 437.902 193.101C437.551 193.616 437.376 194.345 437.376 195.288C437.376 196.245 437.551 196.967 437.902 197.455C438.253 197.943 438.768 198.187 439.447 198.187Z" fill="#76808D" fill-opacity="0.5"/>
<path d="M377.944 78.9014C376.846 78.9014 375.978 79.2682 375.34 80.002C374.706 80.7311 374.39 81.7314 374.39 83.0029C374.39 84.3109 374.695 85.3226 375.306 86.0381C375.921 86.749 376.796 87.1045 377.931 87.1045C378.628 87.1045 379.423 86.9792 380.316 86.7285V87.7471C379.624 88.0068 378.769 88.1367 377.753 88.1367C376.281 88.1367 375.144 87.6901 374.342 86.7969C373.544 85.9036 373.146 84.6344 373.146 82.9893C373.146 81.9593 373.337 81.057 373.72 80.2822C374.107 79.5075 374.663 78.9105 375.388 78.4912C376.117 78.0719 376.974 77.8623 377.958 77.8623C379.006 77.8623 379.922 78.0537 380.706 78.4365L380.214 79.4346C379.457 79.0791 378.701 78.9014 377.944 78.9014ZM388.793 84.2471C388.793 85.4684 388.485 86.4232 387.87 87.1113C387.255 87.7949 386.405 88.1367 385.32 88.1367C384.65 88.1367 384.056 87.9795 383.536 87.665C383.017 87.3506 382.616 86.8994 382.333 86.3115C382.05 85.7236 381.909 85.0355 381.909 84.2471C381.909 83.0257 382.215 82.0755 382.825 81.3965C383.436 80.7129 384.284 80.3711 385.368 80.3711C386.416 80.3711 387.248 80.7197 387.863 81.417C388.483 82.1143 388.793 83.0576 388.793 84.2471ZM383.085 84.2471C383.085 85.2041 383.276 85.9333 383.659 86.4346C384.042 86.9359 384.605 87.1865 385.348 87.1865C386.09 87.1865 386.653 86.9382 387.036 86.4414C387.424 85.9401 387.617 85.2087 387.617 84.2471C387.617 83.2946 387.424 82.5723 387.036 82.0801C386.653 81.5833 386.086 81.335 385.334 81.335C384.591 81.335 384.031 81.5788 383.652 82.0664C383.274 82.554 383.085 83.2809 383.085 84.2471ZM400.339 88V83.126C400.339 82.529 400.211 82.0824 399.956 81.7861C399.701 81.4854 399.304 81.335 398.767 81.335C398.06 81.335 397.538 81.5378 397.201 81.9434C396.864 82.349 396.695 82.9733 396.695 83.8164V88H395.561V83.126C395.561 82.529 395.433 82.0824 395.178 81.7861C394.923 81.4854 394.524 81.335 393.981 81.335C393.271 81.335 392.749 81.5492 392.416 81.9775C392.088 82.4014 391.924 83.0986 391.924 84.0693V88H390.789V80.5078H391.712L391.896 81.5332H391.951C392.165 81.1686 392.466 80.8838 392.854 80.6787C393.245 80.4736 393.683 80.3711 394.166 80.3711C395.337 80.3711 396.103 80.7949 396.463 81.6426H396.518C396.741 81.2507 397.064 80.9408 397.488 80.7129C397.912 80.485 398.395 80.3711 398.938 80.3711C399.785 80.3711 400.419 80.5898 400.838 81.0273C401.262 81.4603 401.474 82.1553 401.474 83.1123V88H400.339ZM407.305 88.1367C406.817 88.1367 406.37 88.0479 405.965 87.8701C405.564 87.6878 405.227 87.4098 404.953 87.0361H404.871C404.926 87.4736 404.953 87.8883 404.953 88.2803V91.3633H403.818V80.5078H404.741L404.898 81.5332H404.953C405.245 81.123 405.584 80.8268 405.972 80.6445C406.359 80.4622 406.803 80.3711 407.305 80.3711C408.298 80.3711 409.064 80.7106 409.602 81.3896C410.144 82.0687 410.415 83.0212 410.415 84.2471C410.415 85.4775 410.139 86.4346 409.588 87.1182C409.041 87.7972 408.28 88.1367 407.305 88.1367ZM407.141 81.335C406.375 81.335 405.821 81.5469 405.479 81.9707C405.138 82.3945 404.962 83.069 404.953 83.9941V84.2471C404.953 85.2998 405.129 86.054 405.479 86.5098C405.83 86.9609 406.393 87.1865 407.168 87.1865C407.815 87.1865 408.321 86.9245 408.686 86.4004C409.055 85.8763 409.239 85.154 409.239 84.2334C409.239 83.2992 409.055 82.5837 408.686 82.0869C408.321 81.5856 407.806 81.335 407.141 81.335ZM413.539 88H412.404V77.3633H413.539V88ZM419.11 88.1367C418.003 88.1367 417.128 87.7995 416.485 87.125C415.847 86.4505 415.528 85.514 415.528 84.3154C415.528 83.1077 415.825 82.1484 416.417 81.4375C417.014 80.7266 417.814 80.3711 418.816 80.3711C419.755 80.3711 420.498 80.681 421.045 81.3008C421.592 81.916 421.865 82.7295 421.865 83.7412V84.459H416.704C416.727 85.3385 416.948 86.0062 417.367 86.4619C417.791 86.9176 418.386 87.1455 419.151 87.1455C419.958 87.1455 420.756 86.9769 421.544 86.6396V87.6514C421.143 87.8245 420.762 87.9476 420.402 88.0205C420.047 88.098 419.616 88.1367 419.11 88.1367ZM418.803 81.3213C418.201 81.3213 417.72 81.5173 417.36 81.9092C417.005 82.3011 416.795 82.8434 416.731 83.5361H420.648C420.648 82.8206 420.489 82.2738 420.17 81.8955C419.851 81.5127 419.395 81.3213 418.803 81.3213ZM426.227 87.2002C426.427 87.2002 426.621 87.1865 426.808 87.1592C426.994 87.1273 427.143 87.0954 427.252 87.0635V87.9316C427.129 87.9909 426.947 88.0387 426.705 88.0752C426.468 88.1162 426.254 88.1367 426.062 88.1367C424.613 88.1367 423.889 87.3734 423.889 85.8467V81.3896H422.815V80.8428L423.889 80.3711L424.367 78.7715H425.023V80.5078H427.197V81.3896H425.023V85.7988C425.023 86.25 425.131 86.5964 425.345 86.8379C425.559 87.0794 425.853 87.2002 426.227 87.2002ZM431.921 88.1367C430.813 88.1367 429.938 87.7995 429.296 87.125C428.658 86.4505 428.339 85.514 428.339 84.3154C428.339 83.1077 428.635 82.1484 429.228 81.4375C429.825 80.7266 430.624 80.3711 431.627 80.3711C432.566 80.3711 433.309 80.681 433.855 81.3008C434.402 81.916 434.676 82.7295 434.676 83.7412V84.459H429.515C429.537 85.3385 429.758 86.0062 430.178 86.4619C430.602 86.9176 431.196 87.1455 431.962 87.1455C432.769 87.1455 433.566 86.9769 434.354 86.6396V87.6514C433.953 87.8245 433.573 87.9476 433.213 88.0205C432.857 88.098 432.427 88.1367 431.921 88.1367ZM431.613 81.3213C431.012 81.3213 430.531 81.5173 430.171 81.9092C429.815 82.3011 429.606 82.8434 429.542 83.5361H433.459C433.459 82.8206 433.299 82.2738 432.98 81.8955C432.661 81.5127 432.206 81.3213 431.613 81.3213ZM441.717 86.9951H441.655C441.131 87.7562 440.347 88.1367 439.304 88.1367C438.324 88.1367 437.561 87.8018 437.014 87.1318C436.471 86.4619 436.2 85.5094 436.2 84.2744C436.2 83.0394 436.474 82.0801 437.021 81.3965C437.567 80.7129 438.328 80.3711 439.304 80.3711C440.32 80.3711 441.099 80.7402 441.642 81.4785H441.73L441.683 80.9385L441.655 80.4121V77.3633H442.79V88H441.867L441.717 86.9951ZM439.447 87.1865C440.222 87.1865 440.783 86.9769 441.129 86.5576C441.48 86.1338 441.655 85.4525 441.655 84.5137V84.2744C441.655 83.2126 441.478 82.4561 441.122 82.0049C440.771 81.5492 440.208 81.3213 439.434 81.3213C438.768 81.3213 438.258 81.5811 437.902 82.1006C437.551 82.6156 437.376 83.3447 437.376 84.2881C437.376 85.2451 437.551 85.9674 437.902 86.4551C438.253 86.9427 438.768 87.1865 439.447 87.1865Z" fill="#76808D" fill-opacity="0.5"/>
<path d="M377.944 152.901C376.846 152.901 375.978 153.268 375.34 154.002C374.706 154.731 374.39 155.731 374.39 157.003C374.39 158.311 374.695 159.323 375.306 160.038C375.921 160.749 376.796 161.104 377.931 161.104C378.628 161.104 379.423 160.979 380.316 160.729V161.747C379.624 162.007 378.769 162.137 377.753 162.137C376.281 162.137 375.144 161.69 374.342 160.797C373.544 159.904 373.146 158.634 373.146 156.989C373.146 155.959 373.337 155.057 373.72 154.282C374.107 153.507 374.663 152.91 375.388 152.491C376.117 152.072 376.974 151.862 377.958 151.862C379.006 151.862 379.922 152.054 380.706 152.437L380.214 153.435C379.457 153.079 378.701 152.901 377.944 152.901ZM388.793 158.247C388.793 159.468 388.485 160.423 387.87 161.111C387.255 161.795 386.405 162.137 385.32 162.137C384.65 162.137 384.056 161.979 383.536 161.665C383.017 161.351 382.616 160.899 382.333 160.312C382.05 159.724 381.909 159.035 381.909 158.247C381.909 157.026 382.215 156.076 382.825 155.396C383.436 154.713 384.284 154.371 385.368 154.371C386.416 154.371 387.248 154.72 387.863 155.417C388.483 156.114 388.793 157.058 388.793 158.247ZM383.085 158.247C383.085 159.204 383.276 159.933 383.659 160.435C384.042 160.936 384.605 161.187 385.348 161.187C386.09 161.187 386.653 160.938 387.036 160.441C387.424 159.94 387.617 159.209 387.617 158.247C387.617 157.295 387.424 156.572 387.036 156.08C386.653 155.583 386.086 155.335 385.334 155.335C384.591 155.335 384.031 155.579 383.652 156.066C383.274 156.554 383.085 157.281 383.085 158.247ZM400.339 162V157.126C400.339 156.529 400.211 156.082 399.956 155.786C399.701 155.485 399.304 155.335 398.767 155.335C398.06 155.335 397.538 155.538 397.201 155.943C396.864 156.349 396.695 156.973 396.695 157.816V162H395.561V157.126C395.561 156.529 395.433 156.082 395.178 155.786C394.923 155.485 394.524 155.335 393.981 155.335C393.271 155.335 392.749 155.549 392.416 155.978C392.088 156.401 391.924 157.099 391.924 158.069V162H390.789V154.508H391.712L391.896 155.533H391.951C392.165 155.169 392.466 154.884 392.854 154.679C393.245 154.474 393.683 154.371 394.166 154.371C395.337 154.371 396.103 154.795 396.463 155.643H396.518C396.741 155.251 397.064 154.941 397.488 154.713C397.912 154.485 398.395 154.371 398.938 154.371C399.785 154.371 400.419 154.59 400.838 155.027C401.262 155.46 401.474 156.155 401.474 157.112V162H400.339ZM407.305 162.137C406.817 162.137 406.37 162.048 405.965 161.87C405.564 161.688 405.227 161.41 404.953 161.036H404.871C404.926 161.474 404.953 161.888 404.953 162.28V165.363H403.818V154.508H404.741L404.898 155.533H404.953C405.245 155.123 405.584 154.827 405.972 154.645C406.359 154.462 406.803 154.371 407.305 154.371C408.298 154.371 409.064 154.711 409.602 155.39C410.144 156.069 410.415 157.021 410.415 158.247C410.415 159.478 410.139 160.435 409.588 161.118C409.041 161.797 408.28 162.137 407.305 162.137ZM407.141 155.335C406.375 155.335 405.821 155.547 405.479 155.971C405.138 156.395 404.962 157.069 404.953 157.994V158.247C404.953 159.3 405.129 160.054 405.479 160.51C405.83 160.961 406.393 161.187 407.168 161.187C407.815 161.187 408.321 160.924 408.686 160.4C409.055 159.876 409.239 159.154 409.239 158.233C409.239 157.299 409.055 156.584 408.686 156.087C408.321 155.586 407.806 155.335 407.141 155.335ZM413.539 162H412.404V151.363H413.539V162ZM419.11 162.137C418.003 162.137 417.128 161.799 416.485 161.125C415.847 160.451 415.528 159.514 415.528 158.315C415.528 157.108 415.825 156.148 416.417 155.438C417.014 154.727 417.814 154.371 418.816 154.371C419.755 154.371 420.498 154.681 421.045 155.301C421.592 155.916 421.865 156.729 421.865 157.741V158.459H416.704C416.727 159.339 416.948 160.006 417.367 160.462C417.791 160.918 418.386 161.146 419.151 161.146C419.958 161.146 420.756 160.977 421.544 160.64V161.651C421.143 161.825 420.762 161.948 420.402 162.021C420.047 162.098 419.616 162.137 419.11 162.137ZM418.803 155.321C418.201 155.321 417.72 155.517 417.36 155.909C417.005 156.301 416.795 156.843 416.731 157.536H420.648C420.648 156.821 420.489 156.274 420.17 155.896C419.851 155.513 419.395 155.321 418.803 155.321ZM426.227 161.2C426.427 161.2 426.621 161.187 426.808 161.159C426.994 161.127 427.143 161.095 427.252 161.063V161.932C427.129 161.991 426.947 162.039 426.705 162.075C426.468 162.116 426.254 162.137 426.062 162.137C424.613 162.137 423.889 161.373 423.889 159.847V155.39H422.815V154.843L423.889 154.371L424.367 152.771H425.023V154.508H427.197V155.39H425.023V159.799C425.023 160.25 425.131 160.596 425.345 160.838C425.559 161.079 425.853 161.2 426.227 161.2ZM431.921 162.137C430.813 162.137 429.938 161.799 429.296 161.125C428.658 160.451 428.339 159.514 428.339 158.315C428.339 157.108 428.635 156.148 429.228 155.438C429.825 154.727 430.624 154.371 431.627 154.371C432.566 154.371 433.309 154.681 433.855 155.301C434.402 155.916 434.676 156.729 434.676 157.741V158.459H429.515C429.537 159.339 429.758 160.006 430.178 160.462C430.602 160.918 431.196 161.146 431.962 161.146C432.769 161.146 433.566 160.977 434.354 160.64V161.651C433.953 161.825 433.573 161.948 433.213 162.021C432.857 162.098 432.427 162.137 431.921 162.137ZM431.613 155.321C431.012 155.321 430.531 155.517 430.171 155.909C429.815 156.301 429.606 156.843 429.542 157.536H433.459C433.459 156.821 433.299 156.274 432.98 155.896C432.661 155.513 432.206 155.321 431.613 155.321ZM441.717 160.995H441.655C441.131 161.756 440.347 162.137 439.304 162.137C438.324 162.137 437.561 161.802 437.014 161.132C436.471 160.462 436.2 159.509 436.2 158.274C436.2 157.039 436.474 156.08 437.021 155.396C437.567 154.713 438.328 154.371 439.304 154.371C440.32 154.371 441.099 154.74 441.642 155.479H441.73L441.683 154.938L441.655 154.412V151.363H442.79V162H441.867L441.717 160.995ZM439.447 161.187C440.222 161.187 440.783 160.977 441.129 160.558C441.48 160.134 441.655 159.452 441.655 158.514V158.274C441.655 157.213 441.478 156.456 441.122 156.005C440.771 155.549 440.208 155.321 439.434 155.321C438.768 155.321 438.258 155.581 437.902 156.101C437.551 156.616 437.376 157.345 437.376 158.288C437.376 159.245 437.551 159.967 437.902 160.455C438.253 160.943 438.768 161.187 439.447 161.187Z" fill="#76808D" fill-opacity="0.5"/>
<path d="M377.944 226.901C376.846 226.901 375.978 227.268 375.34 228.002C374.706 228.731 374.39 229.731 374.39 231.003C374.39 232.311 374.695 233.323 375.306 234.038C375.921 234.749 376.796 235.104 377.931 235.104C378.628 235.104 379.423 234.979 380.316 234.729V235.747C379.624 236.007 378.769 236.137 377.753 236.137C376.281 236.137 375.144 235.69 374.342 234.797C373.544 233.904 373.146 232.634 373.146 230.989C373.146 229.959 373.337 229.057 373.72 228.282C374.107 227.507 374.663 226.91 375.388 226.491C376.117 226.072 376.974 225.862 377.958 225.862C379.006 225.862 379.922 226.054 380.706 226.437L380.214 227.435C379.457 227.079 378.701 226.901 377.944 226.901ZM388.793 232.247C388.793 233.468 388.485 234.423 387.87 235.111C387.255 235.795 386.405 236.137 385.32 236.137C384.65 236.137 384.056 235.979 383.536 235.665C383.017 235.351 382.616 234.899 382.333 234.312C382.05 233.724 381.909 233.035 381.909 232.247C381.909 231.026 382.215 230.076 382.825 229.396C383.436 228.713 384.284 228.371 385.368 228.371C386.416 228.371 387.248 228.72 387.863 229.417C388.483 230.114 388.793 231.058 388.793 232.247ZM383.085 232.247C383.085 233.204 383.276 233.933 383.659 234.435C384.042 234.936 384.605 235.187 385.348 235.187C386.09 235.187 386.653 234.938 387.036 234.441C387.424 233.94 387.617 233.209 387.617 232.247C387.617 231.295 387.424 230.572 387.036 230.08C386.653 229.583 386.086 229.335 385.334 229.335C384.591 229.335 384.031 229.579 383.652 230.066C383.274 230.554 383.085 231.281 383.085 232.247ZM400.339 236V231.126C400.339 230.529 400.211 230.082 399.956 229.786C399.701 229.485 399.304 229.335 398.767 229.335C398.06 229.335 397.538 229.538 397.201 229.943C396.864 230.349 396.695 230.973 396.695 231.816V236H395.561V231.126C395.561 230.529 395.433 230.082 395.178 229.786C394.923 229.485 394.524 229.335 393.981 229.335C393.271 229.335 392.749 229.549 392.416 229.978C392.088 230.401 391.924 231.099 391.924 232.069V236H390.789V228.508H391.712L391.896 229.533H391.951C392.165 229.169 392.466 228.884 392.854 228.679C393.245 228.474 393.683 228.371 394.166 228.371C395.337 228.371 396.103 228.795 396.463 229.643H396.518C396.741 229.251 397.064 228.941 397.488 228.713C397.912 228.485 398.395 228.371 398.938 228.371C399.785 228.371 400.419 228.59 400.838 229.027C401.262 229.46 401.474 230.155 401.474 231.112V236H400.339ZM407.305 236.137C406.817 236.137 406.37 236.048 405.965 235.87C405.564 235.688 405.227 235.41 404.953 235.036H404.871C404.926 235.474 404.953 235.888 404.953 236.28V239.363H403.818V228.508H404.741L404.898 229.533H404.953C405.245 229.123 405.584 228.827 405.972 228.645C406.359 228.462 406.803 228.371 407.305 228.371C408.298 228.371 409.064 228.711 409.602 229.39C410.144 230.069 410.415 231.021 410.415 232.247C410.415 233.478 410.139 234.435 409.588 235.118C409.041 235.797 408.28 236.137 407.305 236.137ZM407.141 229.335C406.375 229.335 405.821 229.547 405.479 229.971C405.138 230.395 404.962 231.069 404.953 231.994V232.247C404.953 233.3 405.129 234.054 405.479 234.51C405.83 234.961 406.393 235.187 407.168 235.187C407.815 235.187 408.321 234.924 408.686 234.4C409.055 233.876 409.239 233.154 409.239 232.233C409.239 231.299 409.055 230.584 408.686 230.087C408.321 229.586 407.806 229.335 407.141 229.335ZM413.539 236H412.404V225.363H413.539V236ZM419.11 236.137C418.003 236.137 417.128 235.799 416.485 235.125C415.847 234.451 415.528 233.514 415.528 232.315C415.528 231.108 415.825 230.148 416.417 229.438C417.014 228.727 417.814 228.371 418.816 228.371C419.755 228.371 420.498 228.681 421.045 229.301C421.592 229.916 421.865 230.729 421.865 231.741V232.459H416.704C416.727 233.339 416.948 234.006 417.367 234.462C417.791 234.918 418.386 235.146 419.151 235.146C419.958 235.146 420.756 234.977 421.544 234.64V235.651C421.143 235.825 420.762 235.948 420.402 236.021C420.047 236.098 419.616 236.137 419.11 236.137ZM418.803 229.321C418.201 229.321 417.72 229.517 417.36 229.909C417.005 230.301 416.795 230.843 416.731 231.536H420.648C420.648 230.821 420.489 230.274 420.17 229.896C419.851 229.513 419.395 229.321 418.803 229.321ZM426.227 235.2C426.427 235.2 426.621 235.187 426.808 235.159C426.994 235.127 427.143 235.095 427.252 235.063V235.932C427.129 235.991 426.947 236.039 426.705 236.075C426.468 236.116 426.254 236.137 426.062 236.137C424.613 236.137 423.889 235.373 423.889 233.847V229.39H422.815V228.843L423.889 228.371L424.367 226.771H425.023V228.508H427.197V229.39H425.023V233.799C425.023 234.25 425.131 234.596 425.345 234.838C425.559 235.079 425.853 235.2 426.227 235.2ZM431.921 236.137C430.813 236.137 429.938 235.799 429.296 235.125C428.658 234.451 428.339 233.514 428.339 232.315C428.339 231.108 428.635 230.148 429.228 229.438C429.825 228.727 430.624 228.371 431.627 228.371C432.566 228.371 433.309 228.681 433.855 229.301C434.402 229.916 434.676 230.729 434.676 231.741V232.459H429.515C429.537 233.339 429.758 234.006 430.178 234.462C430.602 234.918 431.196 235.146 431.962 235.146C432.769 235.146 433.566 234.977 434.354 234.64V235.651C433.953 235.825 433.573 235.948 433.213 236.021C432.857 236.098 432.427 236.137 431.921 236.137ZM431.613 229.321C431.012 229.321 430.531 229.517 430.171 229.909C429.815 230.301 429.606 230.843 429.542 231.536H433.459C433.459 230.821 433.299 230.274 432.98 229.896C432.661 229.513 432.206 229.321 431.613 229.321ZM441.717 234.995H441.655C441.131 235.756 440.347 236.137 439.304 236.137C438.324 236.137 437.561 235.802 437.014 235.132C436.471 234.462 436.2 233.509 436.2 232.274C436.2 231.039 436.474 230.08 437.021 229.396C437.567 228.713 438.328 228.371 439.304 228.371C440.32 228.371 441.099 228.74 441.642 229.479H441.73L441.683 228.938L441.655 228.412V225.363H442.79V236H441.867L441.717 234.995ZM439.447 235.187C440.222 235.187 440.783 234.977 441.129 234.558C441.48 234.134 441.655 233.452 441.655 232.514V232.274C441.655 231.213 441.478 230.456 441.122 230.005C440.771 229.549 440.208 229.321 439.434 229.321C438.768 229.321 438.258 229.581 437.902 230.101C437.551 230.616 437.376 231.345 437.376 232.288C437.376 233.245 437.551 233.967 437.902 234.455C438.253 234.943 438.768 235.187 439.447 235.187Z" fill="#76808D" fill-opacity="0.5"/>
<path d="M72.7393 46.0479H76.3604V47.2607H72.7393V51.0049H71.5176V47.2607H67.9141V46.0479H71.5176V42.2861H72.7393V46.0479ZM91.082 49.0537C91.082 49.8506 90.7832 50.5098 90.1855 51.0312C89.5879 51.5469 88.7529 51.8721 87.6807 52.0068V54.0459H86.5469V52.0859C85.8906 52.0859 85.2549 52.0361 84.6396 51.9365C84.0244 51.8311 83.5205 51.6875 83.1279 51.5059V50.1348C83.6143 50.3516 84.1738 50.5303 84.8066 50.6709C85.4453 50.8057 86.0254 50.873 86.5469 50.873V47.0059C85.3457 46.625 84.502 46.1826 84.0156 45.6787C83.5352 45.1748 83.2949 44.5244 83.2949 43.7275C83.2949 42.96 83.5908 42.3301 84.1826 41.8379C84.7803 41.3457 85.5684 41.0469 86.5469 40.9414V39.3418H87.6807V40.9238C88.7588 40.9531 89.7988 41.1699 90.8008 41.5742L90.3438 42.7256C89.4707 42.3799 88.583 42.1748 87.6807 42.1104V45.9248C88.6006 46.2178 89.2891 46.5049 89.7461 46.7861C90.2031 47.0615 90.54 47.3809 90.7568 47.7441C90.9736 48.1016 91.082 48.5381 91.082 49.0537ZM89.5879 49.168C89.5879 48.7461 89.4561 48.4062 89.1924 48.1484C88.9346 47.8848 88.4307 47.624 87.6807 47.3662V50.7852C88.9521 50.6094 89.5879 50.0703 89.5879 49.168ZM84.7803 43.71C84.7803 44.1553 84.9121 44.5127 85.1758 44.7822C85.4395 45.0518 85.8965 45.3066 86.5469 45.5469V42.1455C85.9668 42.2393 85.5273 42.4238 85.2285 42.6992C84.9297 42.9688 84.7803 43.3057 84.7803 43.71ZM102.209 50.0469H100.302V53H98.9043V50.0469H92.6553V48.7725L98.7549 40.0801H100.302V48.7197H102.209V50.0469ZM98.9043 48.7197V44.4482C98.9043 43.6104 98.9336 42.6641 98.9922 41.6094H98.9219C98.6406 42.1719 98.377 42.6377 98.1309 43.0068L94.1143 48.7197H98.9043ZM111.903 45.6348C111.903 50.6621 109.958 53.1758 106.067 53.1758C105.388 53.1758 104.849 53.1172 104.45 53V51.7432C104.919 51.8955 105.452 51.9717 106.05 51.9717C107.456 51.9717 108.517 51.5381 109.231 50.6709C109.952 49.7979 110.345 48.4619 110.409 46.6631H110.304C109.981 47.1494 109.554 47.5215 109.021 47.7793C108.487 48.0312 107.887 48.1572 107.219 48.1572C106.082 48.1572 105.18 47.8174 104.512 47.1377C103.844 46.458 103.51 45.5088 103.51 44.29C103.51 42.9541 103.882 41.8994 104.626 41.126C105.376 40.3525 106.36 39.9658 107.579 39.9658C108.452 39.9658 109.214 40.1914 109.864 40.6426C110.521 41.0879 111.024 41.7412 111.376 42.6025C111.728 43.458 111.903 44.4688 111.903 45.6348ZM107.579 41.2139C106.741 41.2139 106.094 41.4834 105.637 42.0225C105.18 42.5615 104.951 43.3115 104.951 44.2725C104.951 45.1162 105.162 45.7812 105.584 46.2676C106.006 46.748 106.647 46.9883 107.509 46.9883C108.042 46.9883 108.531 46.8799 108.977 46.6631C109.428 46.4463 109.782 46.1504 110.04 45.7754C110.298 45.4004 110.427 45.0078 110.427 44.5977C110.427 43.9824 110.307 43.4141 110.066 42.8926C109.826 42.3711 109.489 41.9609 109.056 41.6621C108.628 41.3633 108.136 41.2139 107.579 41.2139ZM119.163 53H117.739V43.8418C117.739 43.0801 117.763 42.3594 117.81 41.6797C117.687 41.8027 117.549 41.9316 117.396 42.0664C117.244 42.2012 116.547 42.7725 115.305 43.7803L114.531 42.7783L117.933 40.1504H119.163V53ZM124.516 52.0684C124.516 51.6758 124.604 51.3799 124.779 51.1807C124.961 50.9756 125.219 50.873 125.553 50.873C125.893 50.873 126.156 50.9756 126.344 51.1807C126.537 51.3799 126.634 51.6758 126.634 52.0684C126.634 52.4492 126.537 52.7422 126.344 52.9473C126.15 53.1523 125.887 53.2549 125.553 53.2549C125.254 53.2549 125.005 53.1641 124.806 52.9824C124.612 52.7949 124.516 52.4902 124.516 52.0684ZM130.483 53L135.81 41.4951H128.805V40.1504H137.356V41.3193L132.101 53H130.483ZM143.175 45.1514C144.528 45.1514 145.592 45.4883 146.365 46.1621C147.145 46.8301 147.534 47.7471 147.534 48.9131C147.534 50.2432 147.109 51.2861 146.26 52.042C145.416 52.7979 144.25 53.1758 142.762 53.1758C141.314 53.1758 140.21 52.9443 139.448 52.4814V51.0752C139.858 51.3389 140.368 51.5469 140.978 51.6992C141.587 51.8457 142.188 51.9189 142.779 51.9189C143.811 51.9189 144.61 51.6758 145.179 51.1895C145.753 50.7031 146.04 50 146.04 49.0801C146.04 47.2871 144.941 46.3906 142.744 46.3906C142.188 46.3906 141.443 46.4756 140.512 46.6455L139.756 46.1621L140.239 40.1504H146.629V41.4951H141.487L141.162 45.3535C141.836 45.2188 142.507 45.1514 143.175 45.1514ZM156.033 53L151.674 41.6094H151.604C151.686 42.5117 151.727 43.584 151.727 44.8262V53H150.347V40.1504H152.597L156.666 50.75H156.736L160.841 40.1504H163.073V53H161.579V44.7207C161.579 43.7715 161.62 42.7402 161.702 41.627H161.632L157.237 53H156.033Z" fill="#76808D"/>
<path d="M72.7393 84.0479H76.3604V85.2607H72.7393V89.0049H71.5176V85.2607H67.9141V84.0479H71.5176V80.2861H72.7393V84.0479ZM91.082 87.0537C91.082 87.8506 90.7832 88.5098 90.1855 89.0312C89.5879 89.5469 88.7529 89.8721 87.6807 90.0068V92.0459H86.5469V90.0859C85.8906 90.0859 85.2549 90.0361 84.6396 89.9365C84.0244 89.8311 83.5205 89.6875 83.1279 89.5059V88.1348C83.6143 88.3516 84.1738 88.5303 84.8066 88.6709C85.4453 88.8057 86.0254 88.873 86.5469 88.873V85.0059C85.3457 84.625 84.502 84.1826 84.0156 83.6787C83.5352 83.1748 83.2949 82.5244 83.2949 81.7275C83.2949 80.96 83.5908 80.3301 84.1826 79.8379C84.7803 79.3457 85.5684 79.0469 86.5469 78.9414V77.3418H87.6807V78.9238C88.7588 78.9531 89.7988 79.1699 90.8008 79.5742L90.3438 80.7256C89.4707 80.3799 88.583 80.1748 87.6807 80.1104V83.9248C88.6006 84.2178 89.2891 84.5049 89.7461 84.7861C90.2031 85.0615 90.54 85.3809 90.7568 85.7441C90.9736 86.1016 91.082 86.5381 91.082 87.0537ZM89.5879 87.168C89.5879 86.7461 89.4561 86.4062 89.1924 86.1484C88.9346 85.8848 88.4307 85.624 87.6807 85.3662V88.7852C88.9521 88.6094 89.5879 88.0703 89.5879 87.168ZM84.7803 81.71C84.7803 82.1553 84.9121 82.5127 85.1758 82.7822C85.4395 83.0518 85.8965 83.3066 86.5469 83.5469V80.1455C85.9668 80.2393 85.5273 80.4238 85.2285 80.6992C84.9297 80.9688 84.7803 81.3057 84.7803 81.71ZM102.209 88.0469H100.302V91H98.9043V88.0469H92.6553V86.7725L98.7549 78.0801H100.302V86.7197H102.209V88.0469ZM98.9043 86.7197V82.4482C98.9043 81.6104 98.9336 80.6641 98.9922 79.6094H98.9219C98.6406 80.1719 98.377 80.6377 98.1309 81.0068L94.1143 86.7197H98.9043ZM111.903 83.6348C111.903 88.6621 109.958 91.1758 106.067 91.1758C105.388 91.1758 104.849 91.1172 104.45 91V89.7432C104.919 89.8955 105.452 89.9717 106.05 89.9717C107.456 89.9717 108.517 89.5381 109.231 88.6709C109.952 87.7979 110.345 86.4619 110.409 84.6631H110.304C109.981 85.1494 109.554 85.5215 109.021 85.7793C108.487 86.0312 107.887 86.1572 107.219 86.1572C106.082 86.1572 105.18 85.8174 104.512 85.1377C103.844 84.458 103.51 83.5088 103.51 82.29C103.51 80.9541 103.882 79.8994 104.626 79.126C105.376 78.3525 106.36 77.9658 107.579 77.9658C108.452 77.9658 109.214 78.1914 109.864 78.6426C110.521 79.0879 111.024 79.7412 111.376 80.6025C111.728 81.458 111.903 82.4688 111.903 83.6348ZM107.579 79.2139C106.741 79.2139 106.094 79.4834 105.637 80.0225C105.18 80.5615 104.951 81.3115 104.951 82.2725C104.951 83.1162 105.162 83.7812 105.584 84.2676C106.006 84.748 106.647 84.9883 107.509 84.9883C108.042 84.9883 108.531 84.8799 108.977 84.6631C109.428 84.4463 109.782 84.1504 110.04 83.7754C110.298 83.4004 110.427 83.0078 110.427 82.5977C110.427 81.9824 110.307 81.4141 110.066 80.8926C109.826 80.3711 109.489 79.9609 109.056 79.6621C108.628 79.3633 108.136 79.2139 107.579 79.2139ZM119.163 91H117.739V81.8418C117.739 81.0801 117.763 80.3594 117.81 79.6797C117.687 79.8027 117.549 79.9316 117.396 80.0664C117.244 80.2012 116.547 80.7725 115.305 81.7803L114.531 80.7783L117.933 78.1504H119.163V91ZM124.516 90.0684C124.516 89.6758 124.604 89.3799 124.779 89.1807C124.961 88.9756 125.219 88.873 125.553 88.873C125.893 88.873 126.156 88.9756 126.344 89.1807C126.537 89.3799 126.634 89.6758 126.634 90.0684C126.634 90.4492 126.537 90.7422 126.344 90.9473C126.15 91.1523 125.887 91.2549 125.553 91.2549C125.254 91.2549 125.005 91.1641 124.806 90.9824C124.612 90.7949 124.516 90.4902 124.516 90.0684ZM130.483 91L135.81 79.4951H128.805V78.1504H137.356V79.3193L132.101 91H130.483ZM143.175 83.1514C144.528 83.1514 145.592 83.4883 146.365 84.1621C147.145 84.8301 147.534 85.7471 147.534 86.9131C147.534 88.2432 147.109 89.2861 146.26 90.042C145.416 90.7979 144.25 91.1758 142.762 91.1758C141.314 91.1758 140.21 90.9443 139.448 90.4814V89.0752C139.858 89.3389 140.368 89.5469 140.978 89.6992C141.587 89.8457 142.188 89.9189 142.779 89.9189C143.811 89.9189 144.61 89.6758 145.179 89.1895C145.753 88.7031 146.04 88 146.04 87.0801C146.04 85.2871 144.941 84.3906 142.744 84.3906C142.188 84.3906 141.443 84.4756 140.512 84.6455L139.756 84.1621L140.239 78.1504H146.629V79.4951H141.487L141.162 83.3535C141.836 83.2188 142.507 83.1514 143.175 83.1514ZM156.033 91L151.674 79.6094H151.604C151.686 80.5117 151.727 81.584 151.727 82.8262V91H150.347V78.1504H152.597L156.666 88.75H156.736L160.841 78.1504H163.073V91H161.579V82.7207C161.579 81.7715 161.62 80.7402 161.702 79.627H161.632L157.237 91H156.033Z" fill="#76808D"/>
<path d="M72.7393 120.048H76.3604V121.261H72.7393V125.005H71.5176V121.261H67.9141V120.048H71.5176V116.286H72.7393V120.048ZM91.082 123.054C91.082 123.851 90.7832 124.51 90.1855 125.031C89.5879 125.547 88.7529 125.872 87.6807 126.007V128.046H86.5469V126.086C85.8906 126.086 85.2549 126.036 84.6396 125.937C84.0244 125.831 83.5205 125.688 83.1279 125.506V124.135C83.6143 124.352 84.1738 124.53 84.8066 124.671C85.4453 124.806 86.0254 124.873 86.5469 124.873V121.006C85.3457 120.625 84.502 120.183 84.0156 119.679C83.5352 119.175 83.2949 118.524 83.2949 117.728C83.2949 116.96 83.5908 116.33 84.1826 115.838C84.7803 115.346 85.5684 115.047 86.5469 114.941V113.342H87.6807V114.924C88.7588 114.953 89.7988 115.17 90.8008 115.574L90.3438 116.726C89.4707 116.38 88.583 116.175 87.6807 116.11V119.925C88.6006 120.218 89.2891 120.505 89.7461 120.786C90.2031 121.062 90.54 121.381 90.7568 121.744C90.9736 122.102 91.082 122.538 91.082 123.054ZM89.5879 123.168C89.5879 122.746 89.4561 122.406 89.1924 122.148C88.9346 121.885 88.4307 121.624 87.6807 121.366V124.785C88.9521 124.609 89.5879 124.07 89.5879 123.168ZM84.7803 117.71C84.7803 118.155 84.9121 118.513 85.1758 118.782C85.4395 119.052 85.8965 119.307 86.5469 119.547V116.146C85.9668 116.239 85.5273 116.424 85.2285 116.699C84.9297 116.969 84.7803 117.306 84.7803 117.71ZM102.209 124.047H100.302V127H98.9043V124.047H92.6553V122.772L98.7549 114.08H100.302V122.72H102.209V124.047ZM98.9043 122.72V118.448C98.9043 117.61 98.9336 116.664 98.9922 115.609H98.9219C98.6406 116.172 98.377 116.638 98.1309 117.007L94.1143 122.72H98.9043ZM111.903 119.635C111.903 124.662 109.958 127.176 106.067 127.176C105.388 127.176 104.849 127.117 104.45 127V125.743C104.919 125.896 105.452 125.972 106.05 125.972C107.456 125.972 108.517 125.538 109.231 124.671C109.952 123.798 110.345 122.462 110.409 120.663H110.304C109.981 121.149 109.554 121.521 109.021 121.779C108.487 122.031 107.887 122.157 107.219 122.157C106.082 122.157 105.18 121.817 104.512 121.138C103.844 120.458 103.51 119.509 103.51 118.29C103.51 116.954 103.882 115.899 104.626 115.126C105.376 114.353 106.36 113.966 107.579 113.966C108.452 113.966 109.214 114.191 109.864 114.643C110.521 115.088 111.024 115.741 111.376 116.603C111.728 117.458 111.903 118.469 111.903 119.635ZM107.579 115.214C106.741 115.214 106.094 115.483 105.637 116.022C105.18 116.562 104.951 117.312 104.951 118.272C104.951 119.116 105.162 119.781 105.584 120.268C106.006 120.748 106.647 120.988 107.509 120.988C108.042 120.988 108.531 120.88 108.977 120.663C109.428 120.446 109.782 120.15 110.04 119.775C110.298 119.4 110.427 119.008 110.427 118.598C110.427 117.982 110.307 117.414 110.066 116.893C109.826 116.371 109.489 115.961 109.056 115.662C108.628 115.363 108.136 115.214 107.579 115.214ZM119.163 127H117.739V117.842C117.739 117.08 117.763 116.359 117.81 115.68C117.687 115.803 117.549 115.932 117.396 116.066C117.244 116.201 116.547 116.772 115.305 117.78L114.531 116.778L117.933 114.15H119.163V127ZM124.516 126.068C124.516 125.676 124.604 125.38 124.779 125.181C124.961 124.976 125.219 124.873 125.553 124.873C125.893 124.873 126.156 124.976 126.344 125.181C126.537 125.38 126.634 125.676 126.634 126.068C126.634 126.449 126.537 126.742 126.344 126.947C126.15 127.152 125.887 127.255 125.553 127.255C125.254 127.255 125.005 127.164 124.806 126.982C124.612 126.795 124.516 126.49 124.516 126.068ZM130.483 127L135.81 115.495H128.805V114.15H137.356V115.319L132.101 127H130.483ZM143.175 119.151C144.528 119.151 145.592 119.488 146.365 120.162C147.145 120.83 147.534 121.747 147.534 122.913C147.534 124.243 147.109 125.286 146.26 126.042C145.416 126.798 144.25 127.176 142.762 127.176C141.314 127.176 140.21 126.944 139.448 126.481V125.075C139.858 125.339 140.368 125.547 140.978 125.699C141.587 125.846 142.188 125.919 142.779 125.919C143.811 125.919 144.61 125.676 145.179 125.189C145.753 124.703 146.04 124 146.04 123.08C146.04 121.287 144.941 120.391 142.744 120.391C142.188 120.391 141.443 120.476 140.512 120.646L139.756 120.162L140.239 114.15H146.629V115.495H141.487L141.162 119.354C141.836 119.219 142.507 119.151 143.175 119.151ZM156.033 127L151.674 115.609H151.604C151.686 116.512 151.727 117.584 151.727 118.826V127H150.347V114.15H152.597L156.666 124.75H156.736L160.841 114.15H163.073V127H161.579V118.721C161.579 117.771 161.62 116.74 161.702 115.627H161.632L157.237 127H156.033Z" fill="#76808D"/>
<path d="M72.7393 192.048H76.3604V193.261H72.7393V197.005H71.5176V193.261H67.9141V192.048H71.5176V188.286H72.7393V192.048ZM91.082 195.054C91.082 195.851 90.7832 196.51 90.1855 197.031C89.5879 197.547 88.7529 197.872 87.6807 198.007V200.046H86.5469V198.086C85.8906 198.086 85.2549 198.036 84.6396 197.937C84.0244 197.831 83.5205 197.688 83.1279 197.506V196.135C83.6143 196.352 84.1738 196.53 84.8066 196.671C85.4453 196.806 86.0254 196.873 86.5469 196.873V193.006C85.3457 192.625 84.502 192.183 84.0156 191.679C83.5352 191.175 83.2949 190.524 83.2949 189.728C83.2949 188.96 83.5908 188.33 84.1826 187.838C84.7803 187.346 85.5684 187.047 86.5469 186.941V185.342H87.6807V186.924C88.7588 186.953 89.7988 187.17 90.8008 187.574L90.3438 188.726C89.4707 188.38 88.583 188.175 87.6807 188.11V191.925C88.6006 192.218 89.2891 192.505 89.7461 192.786C90.2031 193.062 90.54 193.381 90.7568 193.744C90.9736 194.102 91.082 194.538 91.082 195.054ZM89.5879 195.168C89.5879 194.746 89.4561 194.406 89.1924 194.148C88.9346 193.885 88.4307 193.624 87.6807 193.366V196.785C88.9521 196.609 89.5879 196.07 89.5879 195.168ZM84.7803 189.71C84.7803 190.155 84.9121 190.513 85.1758 190.782C85.4395 191.052 85.8965 191.307 86.5469 191.547V188.146C85.9668 188.239 85.5273 188.424 85.2285 188.699C84.9297 188.969 84.7803 189.306 84.7803 189.71ZM102.209 196.047H100.302V199H98.9043V196.047H92.6553V194.772L98.7549 186.08H100.302V194.72H102.209V196.047ZM98.9043 194.72V190.448C98.9043 189.61 98.9336 188.664 98.9922 187.609H98.9219C98.6406 188.172 98.377 188.638 98.1309 189.007L94.1143 194.72H98.9043ZM111.903 191.635C111.903 196.662 109.958 199.176 106.067 199.176C105.388 199.176 104.849 199.117 104.45 199V197.743C104.919 197.896 105.452 197.972 106.05 197.972C107.456 197.972 108.517 197.538 109.231 196.671C109.952 195.798 110.345 194.462 110.409 192.663H110.304C109.981 193.149 109.554 193.521 109.021 193.779C108.487 194.031 107.887 194.157 107.219 194.157C106.082 194.157 105.18 193.817 104.512 193.138C103.844 192.458 103.51 191.509 103.51 190.29C103.51 188.954 103.882 187.899 104.626 187.126C105.376 186.353 106.36 185.966 107.579 185.966C108.452 185.966 109.214 186.191 109.864 186.643C110.521 187.088 111.024 187.741 111.376 188.603C111.728 189.458 111.903 190.469 111.903 191.635ZM107.579 187.214C106.741 187.214 106.094 187.483 105.637 188.022C105.18 188.562 104.951 189.312 104.951 190.272C104.951 191.116 105.162 191.781 105.584 192.268C106.006 192.748 106.647 192.988 107.509 192.988C108.042 192.988 108.531 192.88 108.977 192.663C109.428 192.446 109.782 192.15 110.04 191.775C110.298 191.4 110.427 191.008 110.427 190.598C110.427 189.982 110.307 189.414 110.066 188.893C109.826 188.371 109.489 187.961 109.056 187.662C108.628 187.363 108.136 187.214 107.579 187.214ZM119.163 199H117.739V189.842C117.739 189.08 117.763 188.359 117.81 187.68C117.687 187.803 117.549 187.932 117.396 188.066C117.244 188.201 116.547 188.772 115.305 189.78L114.531 188.778L117.933 186.15H119.163V199ZM124.516 198.068C124.516 197.676 124.604 197.38 124.779 197.181C124.961 196.976 125.219 196.873 125.553 196.873C125.893 196.873 126.156 196.976 126.344 197.181C126.537 197.38 126.634 197.676 126.634 198.068C126.634 198.449 126.537 198.742 126.344 198.947C126.15 199.152 125.887 199.255 125.553 199.255C125.254 199.255 125.005 199.164 124.806 198.982C124.612 198.795 124.516 198.49 124.516 198.068ZM130.483 199L135.81 187.495H128.805V186.15H137.356V187.319L132.101 199H130.483ZM143.175 191.151C144.528 191.151 145.592 191.488 146.365 192.162C147.145 192.83 147.534 193.747 147.534 194.913C147.534 196.243 147.109 197.286 146.26 198.042C145.416 198.798 144.25 199.176 142.762 199.176C141.314 199.176 140.21 198.944 139.448 198.481V197.075C139.858 197.339 140.368 197.547 140.978 197.699C141.587 197.846 142.188 197.919 142.779 197.919C143.811 197.919 144.61 197.676 145.179 197.189C145.753 196.703 146.04 196 146.04 195.08C146.04 193.287 144.941 192.391 142.744 192.391C142.188 192.391 141.443 192.476 140.512 192.646L139.756 192.162L140.239 186.15H146.629V187.495H141.487L141.162 191.354C141.836 191.219 142.507 191.151 143.175 191.151ZM156.033 199L151.674 187.609H151.604C151.686 188.512 151.727 189.584 151.727 190.826V199H150.347V186.15H152.597L156.666 196.75H156.736L160.841 186.15H163.073V199H161.579V190.721C161.579 189.771 161.62 188.74 161.702 187.627H161.632L157.237 199H156.033Z" fill="#76808D"/>
<path d="M67.7383 233.843V232.507H72.0537V233.843H67.7383ZM86.582 234.054C86.582 234.851 86.2832 235.51 85.6855 236.031C85.0879 236.547 84.2529 236.872 83.1807 237.007V239.046H82.0469V237.086C81.3906 237.086 80.7549 237.036 80.1396 236.937C79.5244 236.831 79.0205 236.688 78.6279 236.506V235.135C79.1143 235.352 79.6738 235.53 80.3066 235.671C80.9453 235.806 81.5254 235.873 82.0469 235.873V232.006C80.8457 231.625 80.002 231.183 79.5156 230.679C79.0352 230.175 78.7949 229.524 78.7949 228.728C78.7949 227.96 79.0908 227.33 79.6826 226.838C80.2803 226.346 81.0684 226.047 82.0469 225.941V224.342H83.1807V225.924C84.2588 225.953 85.2988 226.17 86.3008 226.574L85.8438 227.726C84.9707 227.38 84.083 227.175 83.1807 227.11V230.925C84.1006 231.218 84.7891 231.505 85.2461 231.786C85.7031 232.062 86.04 232.381 86.2568 232.744C86.4736 233.102 86.582 233.538 86.582 234.054ZM85.0879 234.168C85.0879 233.746 84.9561 233.406 84.6924 233.148C84.4346 232.885 83.9307 232.624 83.1807 232.366V235.785C84.4521 235.609 85.0879 235.07 85.0879 234.168ZM80.2803 228.71C80.2803 229.155 80.4121 229.513 80.6758 229.782C80.9395 230.052 81.3965 230.307 82.0469 230.547V227.146C81.4668 227.239 81.0273 227.424 80.7285 227.699C80.4297 227.969 80.2803 228.306 80.2803 228.71ZM94.0615 238H92.6377V228.842C92.6377 228.08 92.6611 227.359 92.708 226.68C92.585 226.803 92.4473 226.932 92.2949 227.066C92.1426 227.201 91.4453 227.772 90.2031 228.78L89.4297 227.778L92.8311 225.15H94.0615V238ZM107.474 231.558C107.474 233.778 107.122 235.437 106.419 236.532C105.722 237.628 104.652 238.176 103.211 238.176C101.828 238.176 100.776 237.616 100.056 236.497C99.335 235.372 98.9746 233.726 98.9746 231.558C98.9746 229.319 99.3232 227.658 100.021 226.574C100.718 225.49 101.781 224.948 103.211 224.948C104.605 224.948 105.663 225.514 106.384 226.645C107.11 227.775 107.474 229.413 107.474 231.558ZM100.451 231.558C100.451 233.427 100.671 234.789 101.11 235.645C101.55 236.494 102.25 236.919 103.211 236.919C104.184 236.919 104.887 236.488 105.32 235.627C105.76 234.76 105.979 233.403 105.979 231.558C105.979 229.712 105.76 228.361 105.32 227.506C104.887 226.645 104.184 226.214 103.211 226.214C102.25 226.214 101.55 226.639 101.11 227.488C100.671 228.332 100.451 229.688 100.451 231.558ZM117.774 231.558C117.774 233.778 117.423 235.437 116.72 236.532C116.022 237.628 114.953 238.176 113.512 238.176C112.129 238.176 111.077 237.616 110.356 236.497C109.636 235.372 109.275 233.726 109.275 231.558C109.275 229.319 109.624 227.658 110.321 226.574C111.019 225.49 112.082 224.948 113.512 224.948C114.906 224.948 115.964 225.514 116.685 226.645C117.411 227.775 117.774 229.413 117.774 231.558ZM110.752 231.558C110.752 233.427 110.972 234.789 111.411 235.645C111.851 236.494 112.551 236.919 113.512 236.919C114.484 236.919 115.188 236.488 115.621 235.627C116.061 234.76 116.28 233.403 116.28 231.558C116.28 229.712 116.061 228.361 115.621 227.506C115.188 226.645 114.484 226.214 113.512 226.214C112.551 226.214 111.851 226.639 111.411 227.488C110.972 228.332 110.752 229.688 110.752 231.558Z" fill="#76808D"/>
<path d="M67.7383 159.843V158.507H72.0537V159.843H67.7383ZM86.582 160.054C86.582 160.851 86.2832 161.51 85.6855 162.031C85.0879 162.547 84.2529 162.872 83.1807 163.007V165.046H82.0469V163.086C81.3906 163.086 80.7549 163.036 80.1396 162.937C79.5244 162.831 79.0205 162.688 78.6279 162.506V161.135C79.1143 161.352 79.6738 161.53 80.3066 161.671C80.9453 161.806 81.5254 161.873 82.0469 161.873V158.006C80.8457 157.625 80.002 157.183 79.5156 156.679C79.0352 156.175 78.7949 155.524 78.7949 154.728C78.7949 153.96 79.0908 153.33 79.6826 152.838C80.2803 152.346 81.0684 152.047 82.0469 151.941V150.342H83.1807V151.924C84.2588 151.953 85.2988 152.17 86.3008 152.574L85.8438 153.726C84.9707 153.38 84.083 153.175 83.1807 153.11V156.925C84.1006 157.218 84.7891 157.505 85.2461 157.786C85.7031 158.062 86.04 158.381 86.2568 158.744C86.4736 159.102 86.582 159.538 86.582 160.054ZM85.0879 160.168C85.0879 159.746 84.9561 159.406 84.6924 159.148C84.4346 158.885 83.9307 158.624 83.1807 158.366V161.785C84.4521 161.609 85.0879 161.07 85.0879 160.168ZM80.2803 154.71C80.2803 155.155 80.4121 155.513 80.6758 155.782C80.9395 156.052 81.3965 156.307 82.0469 156.547V153.146C81.4668 153.239 81.0273 153.424 80.7285 153.699C80.4297 153.969 80.2803 154.306 80.2803 154.71ZM94.0615 164H92.6377V154.842C92.6377 154.08 92.6611 153.359 92.708 152.68C92.585 152.803 92.4473 152.932 92.2949 153.066C92.1426 153.201 91.4453 153.772 90.2031 154.78L89.4297 153.778L92.8311 151.15H94.0615V164ZM107.474 157.558C107.474 159.778 107.122 161.437 106.419 162.532C105.722 163.628 104.652 164.176 103.211 164.176C101.828 164.176 100.776 163.616 100.056 162.497C99.335 161.372 98.9746 159.726 98.9746 157.558C98.9746 155.319 99.3232 153.658 100.021 152.574C100.718 151.49 101.781 150.948 103.211 150.948C104.605 150.948 105.663 151.514 106.384 152.645C107.11 153.775 107.474 155.413 107.474 157.558ZM100.451 157.558C100.451 159.427 100.671 160.789 101.11 161.645C101.55 162.494 102.25 162.919 103.211 162.919C104.184 162.919 104.887 162.488 105.32 161.627C105.76 160.76 105.979 159.403 105.979 157.558C105.979 155.712 105.76 154.361 105.32 153.506C104.887 152.645 104.184 152.214 103.211 152.214C102.25 152.214 101.55 152.639 101.11 153.488C100.671 154.332 100.451 155.688 100.451 157.558ZM117.774 157.558C117.774 159.778 117.423 161.437 116.72 162.532C116.022 163.628 114.953 164.176 113.512 164.176C112.129 164.176 111.077 163.616 110.356 162.497C109.636 161.372 109.275 159.726 109.275 157.558C109.275 155.319 109.624 153.658 110.321 152.574C111.019 151.49 112.082 150.948 113.512 150.948C114.906 150.948 115.964 151.514 116.685 152.645C117.411 153.775 117.774 155.413 117.774 157.558ZM110.752 157.558C110.752 159.427 110.972 160.789 111.411 161.645C111.851 162.494 112.551 162.919 113.512 162.919C114.484 162.919 115.188 162.488 115.621 161.627C116.061 160.76 116.28 159.403 116.28 157.558C116.28 155.712 116.061 154.361 115.621 153.506C115.188 152.645 114.484 152.214 113.512 152.214C112.551 152.214 111.851 152.639 111.411 153.488C110.972 154.332 110.752 155.688 110.752 157.558Z" fill="#76808D"/>
<g clip-path="url(#clip0_321_4455)">
<path d="M38.8484 37.6584L32.6471 43.8598C31.1006 45.4062 31.1006 47.9136 32.6471 49.4601L38.8484 55.6614C40.3949 57.2079 42.9022 57.2079 44.4487 55.6614L50.65 49.4601C52.1965 47.9136 52.1965 45.4062 50.65 43.8598L44.4487 37.6584C42.9022 36.112 40.3949 36.112 38.8484 37.6584Z" fill="#C94B32" stroke="#C94B32" stroke-miterlimit="10" stroke-linecap="round"/>
<path d="M37.1699 48.6599L41.6599 53.1499L46.1399 48.6599" stroke="white" stroke-linecap="round"/>
<path d="M41.6599 53.1499V40.1699" stroke="white" stroke-linecap="round"/>
</g>
<g clip-path="url(#clip1_321_4455)">
<path d="M38.8484 75.6584L32.6471 81.8598C31.1006 83.4062 31.1006 85.9136 32.6471 87.4601L38.8484 93.6614C40.3949 95.2079 42.9022 95.2079 44.4487 93.6614L50.65 87.4601C52.1965 85.9136 52.1965 83.4062 50.65 81.8598L44.4487 75.6584C42.9022 74.112 40.3949 74.112 38.8484 75.6584Z" fill="#C94B32" stroke="#C94B32" stroke-miterlimit="10" stroke-linecap="round"/>
<path d="M37.1699 86.6599L41.6599 91.1499L46.1399 86.6599" stroke="white" stroke-linecap="round"/>
<path d="M41.6599 91.1499V78.1699" stroke="white" stroke-linecap="round"/>
</g>
<g clip-path="url(#clip2_321_4455)">
<path d="M38.8484 111.658L32.6471 117.86C31.1006 119.406 31.1006 121.914 32.6471 123.46L38.8484 129.661C40.3949 131.208 42.9022 131.208 44.4487 129.661L50.65 123.46C52.1965 121.914 52.1965 119.406 50.65 117.86L44.4487 111.658C42.9022 110.112 40.3949 110.112 38.8484 111.658Z" fill="#C94B32" stroke="#C94B32" stroke-miterlimit="10" stroke-linecap="round"/>
<path d="M37.1699 122.66L41.6599 127.15L46.1399 122.66" stroke="white" stroke-linecap="round"/>
<path d="M41.6599 127.15V114.17" stroke="white" stroke-linecap="round"/>
</g>
<g clip-path="url(#clip3_321_4455)">
<path d="M38.8484 183.658L32.6471 189.86C31.1006 191.406 31.1006 193.914 32.6471 195.46L38.8484 201.661C40.3949 203.208 42.9022 203.208 44.4487 201.661L50.65 195.46C52.1965 193.914 52.1965 191.406 50.65 189.86L44.4487 183.658C42.9022 182.112 40.3949 182.112 38.8484 183.658Z" fill="#C94B32" stroke="#C94B32" stroke-miterlimit="10" stroke-linecap="round"/>
<path d="M37.1699 194.66L41.6599 199.15L46.1399 194.66" stroke="white" stroke-linecap="round"/>
<path d="M41.6599 199.15V186.17" stroke="white" stroke-linecap="round"/>
</g>
<g clip-path="url(#clip4_321_4455)">
<path d="M44.4717 239.661L50.673 233.46C52.2195 231.914 52.2195 229.406 50.673 227.86L44.4717 221.658C42.9252 220.112 40.4179 220.112 38.8714 221.658L32.6701 227.86C31.1236 229.406 31.1236 231.914 32.6701 233.46L38.8714 239.661C40.4179 241.208 42.9252 241.208 44.4717 239.661Z" stroke="#76808D" stroke-miterlimit="10" stroke-linecap="round"/>
<path d="M46.1501 228.66L41.6601 224.17L37.1801 228.66" stroke="#76808D" stroke-linecap="round"/>
<path d="M41.6602 224.17L41.6602 237.15" stroke="#76808D" stroke-linecap="round"/>
</g>
<g clip-path="url(#clip5_321_4455)">
<path d="M44.4717 165.661L50.673 159.46C52.2195 157.914 52.2195 155.406 50.673 153.86L44.4717 147.658C42.9252 146.112 40.4179 146.112 38.8714 147.658L32.6701 153.86C31.1236 155.406 31.1236 157.914 32.6701 159.46L38.8714 165.661C40.4179 167.208 42.9252 167.208 44.4717 165.661Z" stroke="#76808D" stroke-miterlimit="10" stroke-linecap="round"/>
<path d="M46.1501 154.66L41.6601 150.17L37.1801 154.66" stroke="#76808D" stroke-linecap="round"/>
<path d="M41.6602 150.17L41.6602 163.15" stroke="#76808D" stroke-linecap="round"/>
</g>
<defs>
<filter id="filter0_dd_321_4455" x="0" y="0" width="478" height="279" filterUnits="userSpaceOnUse" color-interpolation-filters="sRGB">
<feFlood flood-opacity="0" result="BackgroundImageFix"/>
<feColorMatrix in="SourceAlpha" type="matrix" values="0 0 0 0 0 0 0 0 0 0 0 0 0 0 0 0 0 0 127 0" result="hardAlpha"/>
<feOffset dx="-1" dy="-2"/>
<feGaussianBlur stdDeviation="1.5"/>
<feComposite in2="hardAlpha" operator="out"/>
<feColorMatrix type="matrix" values="0 0 0 0 0.788235 0 0 0 0 0.294118 0 0 0 0 0.196078 0 0 0 0.05 0"/>
<feBlend mode="normal" in2="BackgroundImageFix" result="effect1_dropShadow_321_4455"/>
<feColorMatrix in="SourceAlpha" type="matrix" values="0 0 0 0 0 0 0 0 0 0 0 0 0 0 0 0 0 0 127 0" result="hardAlpha"/>
<feOffset dy="3"/>
<feGaussianBlur stdDeviation="1.5"/>
<feComposite in2="hardAlpha" operator="out"/>
<feColorMatrix type="matrix" values="0 0 0 0 0.105882 0 0 0 0 0.168627 0 0 0 0 0.254902 0 0 0 0.1 0"/>
<feBlend mode="normal" in2="effect1_dropShadow_321_4455" result="effect2_dropShadow_321_4455"/>
<feBlend mode="normal" in="SourceGraphic" in2="effect2_dropShadow_321_4455" result="shape"/>
</filter>
<clipPath id="clip0_321_4455">
<rect width="21.32" height="21.32" fill="white" transform="translate(31 36)"/>
</clipPath>
<clipPath id="clip1_321_4455">
<rect width="21.32" height="21.32" fill="white" transform="translate(31 74)"/>
</clipPath>
<clipPath id="clip2_321_4455">
<rect width="21.32" height="21.32" fill="white" transform="translate(31 110)"/>
</clipPath>
<clipPath id="clip3_321_4455">
<rect width="21.32" height="21.32" fill="white" transform="translate(31 182)"/>
</clipPath>
<clipPath id="clip4_321_4455">
<rect width="21.32" height="21.32" fill="white" transform="translate(52.3201 241.32) rotate(180)"/>
</clipPath>
<clipPath id="clip5_321_4455">
<rect width="21.32" height="21.32" fill="white" transform="translate(52.3201 167.32) rotate(180)"/>
</clipPath>
</defs>
</svg>
