<svg width="595" height="355" viewBox="0 0 595 355" fill="none" xmlns="http://www.w3.org/2000/svg">
<g filter="url(#filter0_dd_321_4017)">
<path d="M4 10C4 7.23858 6.23858 5 9 5H587C589.761 5 592 7.23858 592 10V344C592 346.761 589.761 349 587 349H8.99999C6.23856 349 4 346.761 4 344V10Z" fill="white"/>
<path d="M4.5 10C4.5 7.51472 6.51472 5.5 9 5.5H587C589.485 5.5 591.5 7.51472 591.5 10V344C591.5 346.485 589.485 348.5 587 348.5H8.99999C6.51471 348.5 4.5 346.485 4.5 344V10Z" stroke="white"/>
</g>
<line x1="3" y1="310.5" x2="592" y2="310.5" stroke="#76808D" stroke-opacity="0.5"/>
<line x1="3" y1="242.463" x2="592" y2="242.463" stroke="#F0F0F0"/>
<line x1="3" y1="174.427" x2="592" y2="174.427" stroke="#F0F0F0"/>
<line x1="3" y1="106.39" x2="592" y2="106.39" stroke="#F0F0F0"/>
<rect x="33" y="283.087" width="41" height="27.9124" fill="#76808D"/>
<rect x="255" y="256.92" width="41" height="54.0803" fill="#76808D"/>
<rect x="77" y="288.321" width="41" height="22.6788" fill="#76808D"/>
<rect x="298" y="267.387" width="42" height="43.6131" fill="#76808D"/>
<rect x="121" y="256.92" width="42" height="54.0803" fill="#76808D"/>
<rect x="342" y="206.328" width="41" height="104.672" fill="#76808D"/>
<rect x="165" y="246.452" width="43" height="64.5474" fill="#76808D"/>
<rect x="386" y="185.394" width="42" height="125.606" fill="#76808D"/>
<rect x="476" y="133.058" width="43" height="177.942" fill="#76808D"/>
<rect x="211" y="237.73" width="41" height="73.2701" fill="#76808D"/>
<rect x="430" y="167.949" width="43" height="143.051" fill="#76808D"/>
<rect x="521" y="106.89" width="41" height="204.109" fill="#76808D"/>
<path d="M40.082 211.026C40.082 211.645 39.8496 212.158 39.3848 212.564C38.9199 212.965 38.2705 213.218 37.4365 213.323V214.908H36.5547V213.384C36.0443 213.384 35.5498 213.345 35.0713 213.268C34.5928 213.186 34.2008 213.074 33.8955 212.933V211.866C34.2738 212.035 34.709 212.174 35.2012 212.283C35.6979 212.388 36.1491 212.441 36.5547 212.441V209.433C35.6204 209.137 34.9642 208.793 34.5859 208.401C34.2122 208.009 34.0254 207.503 34.0254 206.883C34.0254 206.286 34.2555 205.796 34.7158 205.413C35.1807 205.031 35.7936 204.798 36.5547 204.716V203.472H37.4365V204.702C38.2751 204.725 39.084 204.894 39.8633 205.208L39.5078 206.104C38.8288 205.835 38.1383 205.675 37.4365 205.625V208.592C38.152 208.82 38.6875 209.043 39.043 209.262C39.3984 209.476 39.6605 209.725 39.8291 210.007C39.9977 210.285 40.082 210.625 40.082 211.026ZM38.9199 211.115C38.9199 210.786 38.8174 210.522 38.6123 210.322C38.4118 210.116 38.0199 209.914 37.4365 209.713V212.372C38.4255 212.236 38.9199 211.816 38.9199 211.115ZM35.1807 206.869C35.1807 207.216 35.2832 207.494 35.4883 207.703C35.6934 207.913 36.0488 208.111 36.5547 208.298V205.653C36.1035 205.726 35.7617 205.869 35.5293 206.083C35.2969 206.293 35.1807 206.555 35.1807 206.869ZM44.8193 207.99C45.8721 207.99 46.6992 208.253 47.3008 208.777C47.9069 209.296 48.21 210.009 48.21 210.916C48.21 211.951 47.8796 212.762 47.2188 213.35C46.5625 213.938 45.6556 214.232 44.498 214.232C43.3724 214.232 42.5133 214.052 41.9209 213.692V212.598C42.2399 212.803 42.6364 212.965 43.1104 213.083C43.5843 213.197 44.0514 213.254 44.5117 213.254C45.3138 213.254 45.9359 213.065 46.3779 212.687C46.8245 212.309 47.0479 211.762 47.0479 211.046C47.0479 209.652 46.1934 208.954 44.4844 208.954C44.0514 208.954 43.4727 209.02 42.748 209.153L42.1602 208.777L42.5361 204.101H47.5059V205.147H43.5068L43.2539 208.148C43.778 208.043 44.2998 207.99 44.8193 207.99ZM56.3311 209.084C56.3311 210.811 56.0576 212.101 55.5107 212.953C54.9684 213.806 54.1367 214.232 53.0156 214.232C51.9401 214.232 51.1221 213.796 50.5615 212.926C50.001 212.051 49.7207 210.77 49.7207 209.084C49.7207 207.343 49.9919 206.051 50.5342 205.208C51.0765 204.365 51.9036 203.944 53.0156 203.944C54.1003 203.944 54.9229 204.383 55.4834 205.263C56.0485 206.142 56.3311 207.416 56.3311 209.084ZM50.8691 209.084C50.8691 210.538 51.04 211.598 51.3818 212.263C51.7236 212.924 52.2682 213.254 53.0156 213.254C53.7721 213.254 54.319 212.919 54.6562 212.249C54.998 211.575 55.1689 210.52 55.1689 209.084C55.1689 207.649 54.998 206.598 54.6562 205.933C54.319 205.263 53.7721 204.928 53.0156 204.928C52.2682 204.928 51.7236 205.258 51.3818 205.919C51.04 206.575 50.8691 207.63 50.8691 209.084ZM64.3428 209.084C64.3428 210.811 64.0693 212.101 63.5225 212.953C62.9801 213.806 62.1484 214.232 61.0273 214.232C59.9518 214.232 59.1338 213.796 58.5732 212.926C58.0127 212.051 57.7324 210.77 57.7324 209.084C57.7324 207.343 58.0036 206.051 58.5459 205.208C59.0882 204.365 59.9154 203.944 61.0273 203.944C62.112 203.944 62.9346 204.383 63.4951 205.263C64.0602 206.142 64.3428 207.416 64.3428 209.084ZM58.8809 209.084C58.8809 210.538 59.0518 211.598 59.3936 212.263C59.7354 212.924 60.2799 213.254 61.0273 213.254C61.7839 213.254 62.3307 212.919 62.668 212.249C63.0098 211.575 63.1807 210.52 63.1807 209.084C63.1807 207.649 63.0098 206.598 62.668 205.933C62.3307 205.263 61.7839 204.928 61.0273 204.928C60.2799 204.928 59.7354 205.258 59.3936 205.919C59.0518 206.575 58.8809 207.63 58.8809 209.084Z" fill="#76808D" fill-opacity="0.5"/>
<path d="M40.082 146.478C40.082 147.098 39.8496 147.611 39.3848 148.016C38.9199 148.417 38.2705 148.67 37.4365 148.775V150.361H36.5547V148.836C36.0443 148.836 35.5498 148.798 35.0713 148.72C34.5928 148.638 34.2008 148.527 33.8955 148.385V147.319C34.2738 147.487 34.709 147.626 35.2012 147.736C35.6979 147.841 36.1491 147.893 36.5547 147.893V144.885C35.6204 144.589 34.9642 144.245 34.5859 143.853C34.2122 143.461 34.0254 142.955 34.0254 142.335C34.0254 141.738 34.2555 141.249 34.7158 140.866C35.1807 140.483 35.7936 140.25 36.5547 140.168V138.924H37.4365V140.155C38.2751 140.178 39.084 140.346 39.8633 140.661L39.5078 141.556C38.8288 141.287 38.1383 141.128 37.4365 141.078V144.044C38.152 144.272 38.6875 144.496 39.043 144.714C39.3984 144.929 39.6605 145.177 39.8291 145.459C39.9977 145.737 40.082 146.077 40.082 146.478ZM38.9199 146.567C38.9199 146.239 38.8174 145.974 38.6123 145.774C38.4118 145.569 38.0199 145.366 37.4365 145.166V147.825C38.4255 147.688 38.9199 147.269 38.9199 146.567ZM35.1807 142.322C35.1807 142.668 35.2832 142.946 35.4883 143.156C35.6934 143.365 36.0488 143.564 36.5547 143.75V141.105C36.1035 141.178 35.7617 141.321 35.5293 141.536C35.2969 141.745 35.1807 142.007 35.1807 142.322ZM45.8994 149.547H44.792V142.424C44.792 141.832 44.8102 141.271 44.8467 140.743C44.751 140.838 44.6439 140.939 44.5254 141.043C44.4069 141.148 43.8646 141.593 42.8984 142.376L42.2969 141.597L44.9424 139.553H45.8994V149.547ZM56.3311 144.537C56.3311 146.264 56.0576 147.554 55.5107 148.406C54.9684 149.258 54.1367 149.684 53.0156 149.684C51.9401 149.684 51.1221 149.249 50.5615 148.378C50.001 147.503 49.7207 146.223 49.7207 144.537C49.7207 142.796 49.9919 141.504 50.5342 140.661C51.0765 139.818 51.9036 139.396 53.0156 139.396C54.1003 139.396 54.9229 139.836 55.4834 140.715C56.0485 141.595 56.3311 142.869 56.3311 144.537ZM50.8691 144.537C50.8691 145.99 51.04 147.05 51.3818 147.715C51.7236 148.376 52.2682 148.707 53.0156 148.707C53.7721 148.707 54.319 148.372 54.6562 147.702C54.998 147.027 55.1689 145.972 55.1689 144.537C55.1689 143.101 54.998 142.051 54.6562 141.385C54.319 140.715 53.7721 140.38 53.0156 140.38C52.2682 140.38 51.7236 140.711 51.3818 141.372C51.04 142.028 50.8691 143.083 50.8691 144.537ZM64.3428 144.537C64.3428 146.264 64.0693 147.554 63.5225 148.406C62.9801 149.258 62.1484 149.684 61.0273 149.684C59.9518 149.684 59.1338 149.249 58.5732 148.378C58.0127 147.503 57.7324 146.223 57.7324 144.537C57.7324 142.796 58.0036 141.504 58.5459 140.661C59.0882 139.818 59.9154 139.396 61.0273 139.396C62.112 139.396 62.9346 139.836 63.4951 140.715C64.0602 141.595 64.3428 142.869 64.3428 144.537ZM58.8809 144.537C58.8809 145.99 59.0518 147.05 59.3936 147.715C59.7354 148.376 60.2799 148.707 61.0273 148.707C61.7839 148.707 62.3307 148.372 62.668 147.702C63.0098 147.027 63.1807 145.972 63.1807 144.537C63.1807 143.101 63.0098 142.051 62.668 141.385C62.3307 140.715 61.7839 140.38 61.0273 140.38C60.2799 140.38 59.7354 140.711 59.3936 141.372C59.0518 142.028 58.8809 143.083 58.8809 144.537ZM72.3545 144.537C72.3545 146.264 72.0811 147.554 71.5342 148.406C70.9919 149.258 70.1602 149.684 69.0391 149.684C67.9635 149.684 67.1455 149.249 66.585 148.378C66.0244 147.503 65.7441 146.223 65.7441 144.537C65.7441 142.796 66.0153 141.504 66.5576 140.661C67.0999 139.818 67.9271 139.396 69.0391 139.396C70.1237 139.396 70.9463 139.836 71.5068 140.715C72.0719 141.595 72.3545 142.869 72.3545 144.537ZM66.8926 144.537C66.8926 145.99 67.0635 147.05 67.4053 147.715C67.7471 148.376 68.2917 148.707 69.0391 148.707C69.7956 148.707 70.3424 148.372 70.6797 147.702C71.0215 147.027 71.1924 145.972 71.1924 144.537C71.1924 143.101 71.0215 142.051 70.6797 141.385C70.3424 140.715 69.7956 140.38 69.0391 140.38C68.2917 140.38 67.7471 140.711 67.4053 141.372C67.0635 142.028 66.8926 143.083 66.8926 144.537Z" fill="#76808D" fill-opacity="0.5"/>
<path d="M40.082 81.9307C40.082 82.5505 39.8496 83.0632 39.3848 83.4688C38.9199 83.8698 38.2705 84.1227 37.4365 84.2275V85.8135H36.5547V84.2891C36.0443 84.2891 35.5498 84.2503 35.0713 84.1729C34.5928 84.0908 34.2008 83.9792 33.8955 83.8379V82.7715C34.2738 82.9401 34.709 83.0791 35.2012 83.1885C35.6979 83.2933 36.1491 83.3457 36.5547 83.3457V80.3379C35.6204 80.0417 34.9642 79.6976 34.5859 79.3057C34.2122 78.9137 34.0254 78.4079 34.0254 77.7881C34.0254 77.1911 34.2555 76.7012 34.7158 76.3184C35.1807 75.9355 35.7936 75.7031 36.5547 75.6211V74.377H37.4365V75.6074C38.2751 75.6302 39.084 75.7988 39.8633 76.1133L39.5078 77.0088C38.8288 76.7399 38.1383 76.5804 37.4365 76.5303V79.4971C38.152 79.7249 38.6875 79.9482 39.043 80.167C39.3984 80.3812 39.6605 80.6296 39.8291 80.9121C39.9977 81.1901 40.082 81.5296 40.082 81.9307ZM38.9199 82.0195C38.9199 81.6914 38.8174 81.4271 38.6123 81.2266C38.4118 81.0215 38.0199 80.8187 37.4365 80.6182V83.2773C38.4255 83.1406 38.9199 82.7214 38.9199 82.0195ZM35.1807 77.7744C35.1807 78.1208 35.2832 78.3988 35.4883 78.6084C35.6934 78.818 36.0488 79.0163 36.5547 79.2031V76.5576C36.1035 76.6305 35.7617 76.7741 35.5293 76.9883C35.2969 77.1979 35.1807 77.46 35.1807 77.7744ZM45.8994 85H44.792V77.877C44.792 77.2845 44.8102 76.724 44.8467 76.1953C44.751 76.291 44.6439 76.3913 44.5254 76.4961C44.4069 76.6009 43.8646 77.0452 42.8984 77.8291L42.2969 77.0498L44.9424 75.0059H45.8994V85ZM52.8311 78.8955C53.8838 78.8955 54.7109 79.1576 55.3125 79.6816C55.9186 80.2012 56.2217 80.9144 56.2217 81.8213C56.2217 82.8558 55.8913 83.667 55.2305 84.2549C54.5742 84.8428 53.6673 85.1367 52.5098 85.1367C51.3841 85.1367 50.5251 84.9567 49.9326 84.5967V83.5029C50.2516 83.708 50.6481 83.8698 51.1221 83.9883C51.596 84.1022 52.0632 84.1592 52.5234 84.1592C53.3255 84.1592 53.9476 83.9701 54.3896 83.5918C54.8363 83.2135 55.0596 82.6667 55.0596 81.9512C55.0596 80.5566 54.2051 79.8594 52.4961 79.8594C52.0632 79.8594 51.4844 79.9255 50.7598 80.0576L50.1719 79.6816L50.5479 75.0059H55.5176V76.0518H51.5186L51.2656 79.0527C51.7897 78.9479 52.3115 78.8955 52.8311 78.8955ZM64.3428 79.9893C64.3428 81.7165 64.0693 83.0062 63.5225 83.8584C62.9801 84.7106 62.1484 85.1367 61.0273 85.1367C59.9518 85.1367 59.1338 84.7015 58.5732 83.8311C58.0127 82.9561 57.7324 81.6755 57.7324 79.9893C57.7324 78.2484 58.0036 76.9564 58.5459 76.1133C59.0882 75.2702 59.9154 74.8486 61.0273 74.8486C62.112 74.8486 62.9346 75.2884 63.4951 76.168C64.0602 77.0475 64.3428 78.3213 64.3428 79.9893ZM58.8809 79.9893C58.8809 81.443 59.0518 82.5026 59.3936 83.168C59.7354 83.8288 60.2799 84.1592 61.0273 84.1592C61.7839 84.1592 62.3307 83.8242 62.668 83.1543C63.0098 82.4798 63.1807 81.4248 63.1807 79.9893C63.1807 78.5537 63.0098 77.5033 62.668 76.8379C62.3307 76.168 61.7839 75.833 61.0273 75.833C60.2799 75.833 59.7354 76.1634 59.3936 76.8242C59.0518 77.4805 58.8809 78.5355 58.8809 79.9893ZM72.3545 79.9893C72.3545 81.7165 72.0811 83.0062 71.5342 83.8584C70.9919 84.7106 70.1602 85.1367 69.0391 85.1367C67.9635 85.1367 67.1455 84.7015 66.585 83.8311C66.0244 82.9561 65.7441 81.6755 65.7441 79.9893C65.7441 78.2484 66.0153 76.9564 66.5576 76.1133C67.0999 75.2702 67.9271 74.8486 69.0391 74.8486C70.1237 74.8486 70.9463 75.2884 71.5068 76.168C72.0719 77.0475 72.3545 78.3213 72.3545 79.9893ZM66.8926 79.9893C66.8926 81.443 67.0635 82.5026 67.4053 83.168C67.7471 83.8288 68.2917 84.1592 69.0391 84.1592C69.7956 84.1592 70.3424 83.8242 70.6797 83.1543C71.0215 82.4798 71.1924 81.4248 71.1924 79.9893C71.1924 78.5537 71.0215 77.5033 70.6797 76.8379C70.3424 76.168 69.7956 75.833 69.0391 75.833C68.2917 75.833 67.7471 76.1634 67.4053 76.8242C67.0635 77.4805 66.8926 78.5355 66.8926 79.9893Z" fill="#76808D" fill-opacity="0.5"/>
<g filter="url(#filter1_i_321_4017)">
<rect x="350" y="20" width="225" height="50" rx="10" fill="url(#paint0_linear_321_4017)"/>
</g>
<g clip-path="url(#clip0_321_4017)">
<path d="M547.526 44.4759L542.5 49.5242L537.474 44.4759" stroke="#76808D" stroke-linecap="round"/>
</g>
<path d="M369.57 50V38.5781H370.898V48.7969H375.938V50H369.57ZM382.777 50L382.519 48.7812H382.457C382.03 49.3177 381.603 49.6823 381.176 49.875C380.754 50.0625 380.225 50.1562 379.59 50.1562C378.741 50.1562 378.074 49.9375 377.59 49.5C377.11 49.0625 376.871 48.4401 376.871 47.6328C376.871 45.9036 378.254 44.9974 381.019 44.9141L382.472 44.8672V44.3359C382.472 43.6641 382.327 43.1693 382.035 42.8516C381.748 42.5286 381.288 42.3672 380.652 42.3672C379.939 42.3672 379.131 42.5859 378.23 43.0234L377.832 42.0312C378.254 41.8021 378.715 41.6224 379.215 41.4922C379.72 41.362 380.225 41.2969 380.73 41.2969C381.751 41.2969 382.506 41.5234 382.996 41.9766C383.491 42.4297 383.738 43.1562 383.738 44.1562V50H382.777ZM379.847 49.0859C380.655 49.0859 381.288 48.8646 381.746 48.4219C382.209 47.9792 382.441 47.3594 382.441 46.5625V45.7891L381.144 45.8438C380.113 45.8802 379.368 46.0417 378.91 46.3281C378.457 46.6094 378.23 47.0495 378.23 47.6484C378.23 48.1172 378.371 48.474 378.652 48.7188C378.939 48.9635 379.337 49.0859 379.847 49.0859ZM391.765 47.6641C391.765 48.4609 391.468 49.0755 390.875 49.5078C390.281 49.9401 389.447 50.1562 388.375 50.1562C387.239 50.1562 386.354 49.9766 385.718 49.6172V48.4141C386.13 48.6224 386.57 48.7865 387.039 48.9062C387.513 49.026 387.968 49.0859 388.406 49.0859C389.083 49.0859 389.604 48.9792 389.968 48.7656C390.333 48.5469 390.515 48.2161 390.515 47.7734C390.515 47.4401 390.369 47.1562 390.078 46.9219C389.791 46.6823 389.229 46.401 388.39 46.0781C387.593 45.7812 387.026 45.5234 386.687 45.3047C386.354 45.0807 386.104 44.8281 385.937 44.5469C385.776 44.2656 385.695 43.9297 385.695 43.5391C385.695 42.8411 385.979 42.2917 386.546 41.8906C387.114 41.4844 387.893 41.2812 388.882 41.2812C389.804 41.2812 390.705 41.4688 391.586 41.8438L391.125 42.8984C390.265 42.5443 389.487 42.3672 388.789 42.3672C388.174 42.3672 387.711 42.4635 387.398 42.6562C387.086 42.849 386.929 43.1146 386.929 43.4531C386.929 43.6823 386.987 43.8776 387.101 44.0391C387.221 44.2005 387.411 44.3542 387.671 44.5C387.932 44.6458 388.432 44.8568 389.171 45.1328C390.187 45.5026 390.872 45.875 391.226 46.25C391.586 46.625 391.765 47.0964 391.765 47.6641ZM396.472 49.0859C396.701 49.0859 396.923 49.0703 397.136 49.0391C397.35 49.0026 397.519 48.9661 397.644 48.9297V49.9219C397.503 49.9896 397.295 50.0443 397.019 50.0859C396.748 50.1328 396.503 50.1562 396.285 50.1562C394.628 50.1562 393.8 49.2839 393.8 47.5391V42.4453H392.574V41.8203L393.8 41.2812L394.347 39.4531H395.097V41.4375H397.581V42.4453H395.097V47.4844C395.097 48 395.219 48.3958 395.464 48.6719C395.709 48.9479 396.045 49.0859 396.472 49.0859ZM401.807 41.4375H403.198L405.073 46.3203C405.485 47.4349 405.74 48.2396 405.839 48.7344H405.901C405.969 48.4688 406.11 48.0156 406.323 47.375C406.542 46.7292 407.25 44.75 408.448 41.4375H409.839L406.159 51.1875C405.794 52.151 405.367 52.8333 404.878 53.2344C404.393 53.6406 403.797 53.8438 403.089 53.8438C402.693 53.8438 402.302 53.7995 401.917 53.7109V52.6719C402.203 52.7344 402.524 52.7656 402.878 52.7656C403.768 52.7656 404.404 52.2656 404.784 51.2656L405.261 50.0469L401.807 41.4375ZM414.671 50.1562C413.405 50.1562 412.405 49.7708 411.671 49C410.941 48.2292 410.577 47.1589 410.577 45.7891C410.577 44.4089 410.915 43.3125 411.592 42.5C412.275 41.6875 413.189 41.2812 414.335 41.2812C415.408 41.2812 416.257 41.6354 416.882 42.3438C417.507 43.0469 417.819 43.9766 417.819 45.1328V45.9531H411.921C411.947 46.9583 412.199 47.7214 412.678 48.2422C413.163 48.763 413.842 49.0234 414.717 49.0234C415.639 49.0234 416.551 48.8307 417.452 48.4453V49.6016C416.993 49.7995 416.559 49.9401 416.147 50.0234C415.741 50.112 415.249 50.1562 414.671 50.1562ZM414.319 42.3672C413.632 42.3672 413.082 42.5911 412.671 43.0391C412.264 43.487 412.025 44.1068 411.952 44.8984H416.428C416.428 44.0807 416.246 43.4557 415.882 43.0234C415.517 42.5859 414.996 42.3672 414.319 42.3672ZM425.127 50L424.87 48.7812H424.807C424.38 49.3177 423.953 49.6823 423.526 49.875C423.104 50.0625 422.575 50.1562 421.94 50.1562C421.091 50.1562 420.424 49.9375 419.94 49.5C419.461 49.0625 419.221 48.4401 419.221 47.6328C419.221 45.9036 420.604 44.9974 423.37 44.9141L424.823 44.8672V44.3359C424.823 43.6641 424.677 43.1693 424.385 42.8516C424.099 42.5286 423.638 42.3672 423.002 42.3672C422.289 42.3672 421.482 42.5859 420.581 43.0234L420.182 42.0312C420.604 41.8021 421.065 41.6224 421.565 41.4922C422.07 41.362 422.575 41.2969 423.081 41.2969C424.101 41.2969 424.857 41.5234 425.346 41.9766C425.841 42.4297 426.088 43.1562 426.088 44.1562V50H425.127ZM422.198 49.0859C423.005 49.0859 423.638 48.8646 424.096 48.4219C424.56 47.9792 424.791 47.3594 424.791 46.5625V45.7891L423.495 45.8438C422.463 45.8802 421.719 46.0417 421.26 46.3281C420.807 46.6094 420.581 47.0495 420.581 47.6484C420.581 48.1172 420.721 48.474 421.002 48.7188C421.289 48.9635 421.687 49.0859 422.198 49.0859ZM432.498 41.2812C432.878 41.2812 433.22 41.3125 433.522 41.375L433.342 42.5781C432.988 42.5 432.675 42.4609 432.404 42.4609C431.712 42.4609 431.118 42.7422 430.623 43.3047C430.134 43.8672 429.889 44.5677 429.889 45.4062V50H428.592V41.4375H429.662L429.811 43.0234H429.873C430.191 42.4661 430.574 42.0365 431.022 41.7344C431.47 41.4323 431.962 41.2812 432.498 41.2812Z" fill="#1B2D41" fill-opacity="0.6"/>
<defs>
<filter id="filter0_dd_321_4017" x="0" y="0" width="595" height="355" filterUnits="userSpaceOnUse" color-interpolation-filters="sRGB">
<feFlood flood-opacity="0" result="BackgroundImageFix"/>
<feColorMatrix in="SourceAlpha" type="matrix" values="0 0 0 0 0 0 0 0 0 0 0 0 0 0 0 0 0 0 127 0" result="hardAlpha"/>
<feOffset dx="-1" dy="-2"/>
<feGaussianBlur stdDeviation="1.5"/>
<feComposite in2="hardAlpha" operator="out"/>
<feColorMatrix type="matrix" values="0 0 0 0 0.788235 0 0 0 0 0.294118 0 0 0 0 0.196078 0 0 0 0.05 0"/>
<feBlend mode="normal" in2="BackgroundImageFix" result="effect1_dropShadow_321_4017"/>
<feColorMatrix in="SourceAlpha" type="matrix" values="0 0 0 0 0 0 0 0 0 0 0 0 0 0 0 0 0 0 127 0" result="hardAlpha"/>
<feOffset dy="3"/>
<feGaussianBlur stdDeviation="1.5"/>
<feComposite in2="hardAlpha" operator="out"/>
<feColorMatrix type="matrix" values="0 0 0 0 0.105882 0 0 0 0 0.168627 0 0 0 0 0.254902 0 0 0 0.1 0"/>
<feBlend mode="normal" in2="effect1_dropShadow_321_4017" result="effect2_dropShadow_321_4017"/>
<feBlend mode="normal" in="SourceGraphic" in2="effect2_dropShadow_321_4017" result="shape"/>
</filter>
<filter id="filter1_i_321_4017" x="349" y="20" width="226" height="50" filterUnits="userSpaceOnUse" color-interpolation-filters="sRGB">
<feFlood flood-opacity="0" result="BackgroundImageFix"/>
<feBlend mode="normal" in="SourceGraphic" in2="BackgroundImageFix" result="shape"/>
<feColorMatrix in="SourceAlpha" type="matrix" values="0 0 0 0 0 0 0 0 0 0 0 0 0 0 0 0 0 0 127 0" result="hardAlpha"/>
<feOffset dx="-1"/>
<feGaussianBlur stdDeviation="2"/>
<feComposite in2="hardAlpha" operator="arithmetic" k2="-1" k3="1"/>
<feColorMatrix type="matrix" values="0 0 0 0 0.105882 0 0 0 0 0.168627 0 0 0 0 0.254902 0 0 0 0.1 0"/>
<feBlend mode="normal" in2="shape" result="effect1_innerShadow_321_4017"/>
</filter>
<linearGradient id="paint0_linear_321_4017" x1="462.5" y1="20" x2="462.5" y2="70" gradientUnits="userSpaceOnUse">
<stop stop-color="#FBF4F2"/>
<stop offset="1" stop-color="#EEF1F5"/>
</linearGradient>
<clipPath id="clip0_321_4017">
<rect width="11" height="6" fill="white" transform="translate(537 44)"/>
</clipPath>
</defs>
</svg>
