<svg width="190" height="50" viewBox="0 0 190 50" fill="none" xmlns="http://www.w3.org/2000/svg">
<g filter="url(#filter0_i_179_3192)">
<path d="M190 50L10 50C4.47715 50 -3.91405e-07 45.5229 -8.74228e-07 40L-3.49691e-06 10C-3.97973e-06 4.47716 4.47715 9.60133e-07 10 4.77311e-07L190 -1.52588e-05L190 50Z" fill="white"/>
</g>
<path d="M84.0859 30H82.7578V19.7578H79.1406V18.5781H87.7031V19.7578H84.0859V30ZM99.1678 24.2734C99.1678 26.1016 98.7042 27.5391 97.7771 28.5859C96.8553 29.6328 95.5714 30.1562 93.9256 30.1562C92.2433 30.1562 90.9438 29.6432 90.0271 28.6172C89.1157 27.5859 88.6599 26.1328 88.6599 24.2578C88.6599 22.3984 89.1183 20.9583 90.0349 19.9375C90.9516 18.9115 92.2537 18.3984 93.9412 18.3984C95.5818 18.3984 96.8631 18.9193 97.7849 19.9609C98.7068 21.0026 99.1678 22.4401 99.1678 24.2734ZM90.0662 24.2734C90.0662 25.8203 90.3943 26.9948 91.0506 27.7969C91.712 28.5938 92.6704 28.9922 93.9256 28.9922C95.1912 28.9922 96.1469 28.5938 96.7928 27.7969C97.4386 27 97.7615 25.8255 97.7615 24.2734C97.7615 22.737 97.4386 21.5729 96.7928 20.7812C96.1521 19.9844 95.2016 19.5859 93.9412 19.5859C92.6756 19.5859 91.712 19.987 91.0506 20.7891C90.3943 21.5859 90.0662 22.7474 90.0662 24.2734ZM109.796 30H108.234L104.07 24.4609L102.875 25.5234V30H101.546V18.5781H102.875V24.2422L108.054 18.5781H109.625L105.031 23.5391L109.796 30ZM117.566 30H111.199V18.5781H117.566V19.7578H112.527V23.4375H117.261V24.6094H112.527V28.8125H117.566V30ZM128.851 30H127.335L121.093 20.4141H121.03C121.114 21.5391 121.155 22.5703 121.155 23.5078V30H119.929V18.5781H121.429L127.655 28.125H127.718C127.707 27.9844 127.684 27.5339 127.648 26.7734C127.611 26.0078 127.598 25.4609 127.609 25.1328V18.5781H128.851V30ZM138.261 26.9609C138.261 27.9661 137.896 28.75 137.167 29.3125C136.438 29.875 135.448 30.1562 134.198 30.1562C132.844 30.1562 131.802 29.9818 131.073 29.6328V28.3516C131.542 28.5495 132.052 28.7057 132.604 28.8203C133.156 28.9349 133.703 28.9922 134.245 28.9922C135.13 28.9922 135.797 28.8255 136.245 28.4922C136.693 28.1536 136.917 27.6849 136.917 27.0859C136.917 26.6901 136.836 26.3672 136.675 26.1172C136.518 25.862 136.253 25.6276 135.878 25.4141C135.508 25.2005 134.943 24.9583 134.182 24.6875C133.12 24.3073 132.36 23.8568 131.901 23.3359C131.448 22.8151 131.222 22.1354 131.222 21.2969C131.222 20.4167 131.552 19.7161 132.214 19.1953C132.875 18.6745 133.75 18.4141 134.839 18.4141C135.974 18.4141 137.018 18.6224 137.972 19.0391L137.557 20.1953C136.615 19.7995 135.698 19.6016 134.807 19.6016C134.104 19.6016 133.555 19.7526 133.159 20.0547C132.763 20.3568 132.565 20.776 132.565 21.3125C132.565 21.7083 132.638 22.0339 132.784 22.2891C132.93 22.5391 133.175 22.7708 133.518 22.9844C133.867 23.1927 134.399 23.4245 135.112 23.6797C136.31 24.1068 137.133 24.5651 137.581 25.0547C138.034 25.5443 138.261 26.1797 138.261 26.9609Z" fill="#B12F15"/>
<g clip-path="url(#clip0_179_3192)">
<path d="M59.1851 14.6532L52.6585 21.1798C51.1121 22.7263 51.1121 25.2336 52.6585 26.7801L59.1851 33.3067C60.7316 34.8532 63.2389 34.8532 64.7854 33.3067L71.312 26.7801C72.8585 25.2336 72.8585 22.7263 71.312 21.1798L64.7854 14.6532C63.2389 13.1068 60.7316 13.1068 59.1851 14.6532Z" stroke="#B12F15" stroke-miterlimit="10" stroke-linecap="round"/>
<path d="M59.1851 14.6532L52.6585 21.1798C51.1121 22.7263 51.1121 25.2336 52.6585 26.7801L59.1851 33.3067C60.7316 34.8532 63.2389 34.8532 64.7854 33.3067L71.312 26.7801C72.8585 25.2336 72.8585 22.7263 71.312 21.1798L64.7854 14.6532C63.2389 13.1068 60.7316 13.1068 59.1851 14.6532Z" stroke="#B12F15" stroke-miterlimit="10" stroke-linecap="round"/>
<path d="M58.3896 21.32V26.65C58.3896 27.1636 58.806 27.58 59.3196 27.58H64.6496C65.1633 27.58 65.5796 27.1636 65.5796 26.65V21.32C65.5796 20.8063 65.1633 20.39 64.6496 20.39H59.3196C58.806 20.39 58.3896 20.8063 58.3896 21.32Z" stroke="#B12F15" stroke-miterlimit="10" stroke-linecap="round"/>
</g>
<defs>
<filter id="filter0_i_179_3192" x="0" y="0" width="191" height="50" filterUnits="userSpaceOnUse" color-interpolation-filters="sRGB">
<feFlood flood-opacity="0" result="BackgroundImageFix"/>
<feBlend mode="normal" in="SourceGraphic" in2="BackgroundImageFix" result="shape"/>
<feColorMatrix in="SourceAlpha" type="matrix" values="0 0 0 0 0 0 0 0 0 0 0 0 0 0 0 0 0 0 127 0" result="hardAlpha"/>
<feOffset dx="1"/>
<feGaussianBlur stdDeviation="2"/>
<feComposite in2="hardAlpha" operator="arithmetic" k2="-1" k3="1"/>
<feColorMatrix type="matrix" values="0 0 0 0 0.105882 0 0 0 0 0.175333 0 0 0 0 0.254902 0 0 0 0.1 0"/>
<feBlend mode="normal" in2="shape" result="effect1_innerShadow_179_3192"/>
</filter>
<clipPath id="clip0_179_3192">
<rect width="21.97" height="21.97" fill="white" transform="translate(51 13)"/>
</clipPath>
</defs>
</svg>
