<svg width="26" height="23" viewBox="0 0 26 23" fill="none" xmlns="http://www.w3.org/2000/svg">
<path d="M16.3191 2.00005C17.9191 3.48705 18.5191 5.44005 17.6621 6.36105C16.8051 7.28205 14.8131 6.82505 13.2151 5.33805C11.6171 3.85105 11.0151 1.90005 11.8721 0.975054C12.7291 0.0500539 14.7201 0.512054 16.3191 2.00005Z" stroke="white" stroke-linecap="round" stroke-linejoin="round"/>
<path d="M11.872 0.976074L9.90795 3.08807C9.05095 4.00907 9.65196 5.96207 11.251 7.44907C12.85 8.93607 14.84 9.39407 15.7 8.47307L17.664 6.36107" stroke="white" stroke-linecap="round" stroke-linejoin="round"/>
<path d="M12.39 16.3521C14.5732 16.3521 16.343 15.3317 16.343 14.0731C16.343 12.8144 14.5732 11.7941 12.39 11.7941C10.2068 11.7941 8.43701 12.8144 8.43701 14.0731C8.43701 15.3317 10.2068 16.3521 12.39 16.3521Z" stroke="white" stroke-linecap="round" stroke-linejoin="round"/>
<path d="M8.43604 14.073V16.957C8.43604 18.215 10.206 19.236 12.389 19.236C14.572 19.236 16.343 18.215 16.343 16.957V14.073" stroke="white" stroke-linecap="round" stroke-linejoin="round"/>
<path d="M16.343 21.31V17.05" stroke="white" stroke-linecap="round" stroke-linejoin="round"/>
<path d="M8.43604 17.05V21.31" stroke="white" stroke-linecap="round" stroke-linejoin="round"/>
<path d="M18.174 5.21704H20.116C21.328 5.21704 22.4904 5.69852 23.3475 6.55556C24.2045 7.4126 24.686 8.575 24.686 9.78704V15.206C24.686 17.0222 23.9645 18.7641 22.6803 20.0483C21.396 21.3326 19.6542 22.054 17.838 22.054H7.348C5.5318 22.054 3.78998 21.3326 2.50573 20.0483C1.22148 18.7641 0.5 17.0222 0.5 15.206V9.78704C0.5 8.575 0.981481 7.4126 1.83852 6.55556C2.69556 5.69852 3.85796 5.21704 5.07 5.21704H9.337" stroke="white" stroke-linecap="round" stroke-linejoin="round"/>
</svg>
