<svg width="21" height="20" viewBox="0 0 21 20" fill="none" xmlns="http://www.w3.org/2000/svg">
<g opacity="0.8" clip-path="url(#clip0_517_2059)">
<path d="M16.45 0H3.94995C2.95539 0 2.00157 0.395088 1.2983 1.09835C0.595043 1.80161 0.199951 2.75544 0.199951 3.75V16.25C0.199951 17.2446 0.595043 18.1984 1.2983 18.9017C2.00157 19.6049 2.95539 20 3.94995 20H16.45C17.4445 20 18.3983 19.6049 19.1016 18.9017C19.8049 18.1984 20.2 17.2446 20.2 16.25V3.75C20.2 2.75544 19.8049 1.80161 19.1016 1.09835C18.3983 0.395088 17.4445 0 16.45 0ZM15.9733 7.64333C16.0283 8.70416 15.8661 9.76505 15.4966 10.761C15.127 11.7569 14.558 12.6668 13.8242 13.4349C13.0905 14.2031 12.2077 14.8133 11.2298 15.2281C10.2519 15.643 9.19952 15.8537 8.13729 15.8473C6.63723 15.8496 5.16833 15.4193 3.90662 14.608C5.36493 14.7829 6.8331 14.3725 7.98929 13.4667C7.41381 13.4559 6.8561 13.2654 6.3942 12.922C5.9323 12.5786 5.58933 12.0993 5.41328 11.5513C5.82639 11.6302 6.25204 11.6141 6.65795 11.504C6.02807 11.3764 5.46244 11.0331 5.05863 10.5331C4.65482 10.0332 4.43814 9.40796 4.44595 8.76533C4.82867 8.97841 5.25681 9.09682 5.69462 9.11067C5.11121 8.72022 4.69826 8.12237 4.53965 7.43851C4.38103 6.75465 4.48864 6.03606 4.84062 5.42867C5.53355 6.28107 6.39809 6.97813 7.37805 7.47454C8.358 7.97095 9.43145 8.2556 10.5286 8.31C10.4345 7.90524 10.4329 7.48446 10.5241 7.07902C10.6153 6.67359 10.7968 6.29396 11.0551 5.96846C11.3135 5.64296 11.642 5.37998 12.0161 5.19913C12.3903 5.01829 12.8004 4.92424 13.216 4.924C13.5931 4.92353 13.9664 5.00063 14.3125 5.15053C14.6586 5.30043 14.9702 5.51991 15.228 5.79533C15.8458 5.67444 16.4386 5.44898 16.9806 5.12867C16.7746 5.76742 16.3437 6.30967 15.768 6.65467C16.3147 6.58959 16.8486 6.44307 17.352 6.22C16.9808 6.77274 16.5139 7.25476 15.9733 7.64333Z" fill="white" fill-opacity="0.8"/>
</g>
<defs>
<clipPath id="clip0_517_2059">
<rect width="20" height="20" fill="white" transform="translate(0.199951)"/>
</clipPath>
</defs>
</svg>
