<svg width="133" height="60" viewBox="0 0 133 60" fill="none" xmlns="http://www.w3.org/2000/svg">
<g filter="url(#filter0_dd_103_3920)">
<rect x="11" y="11" width="115" height="40" rx="5" fill="white"/>
</g>
<path d="M56.9379 37V25.5781H58.2661V35.7969H63.3051V37H56.9379ZM74.9885 31.2734C74.9885 33.1016 74.525 34.5391 73.5979 35.5859C72.676 36.6328 71.3921 37.1562 69.7463 37.1562C68.064 37.1562 66.7645 36.6432 65.8479 35.6172C64.9364 34.5859 64.4807 33.1328 64.4807 31.2578C64.4807 29.3984 64.939 27.9583 65.8557 26.9375C66.7724 25.9115 68.0744 25.3984 69.7619 25.3984C71.4026 25.3984 72.6838 25.9193 73.6057 26.9609C74.5276 28.0026 74.9885 29.4401 74.9885 31.2734ZM65.8869 31.2734C65.8869 32.8203 66.2151 33.9948 66.8713 34.7969C67.5328 35.5938 68.4911 35.9922 69.7463 35.9922C71.0119 35.9922 71.9677 35.5938 72.6135 34.7969C73.2593 34 73.5822 32.8255 73.5822 31.2734C73.5822 29.737 73.2593 28.5729 72.6135 27.7812C71.9729 26.9844 71.0224 26.5859 69.7619 26.5859C68.4963 26.5859 67.5328 26.987 66.8713 27.7891C66.2151 28.5859 65.8869 29.7474 65.8869 31.2734ZM82.3906 31.0156H86.2734V36.5703C85.6693 36.763 85.0547 36.9089 84.4297 37.0078C83.8047 37.1068 83.0807 37.1562 82.2578 37.1562C80.5286 37.1562 79.1823 36.6432 78.2188 35.6172C77.2552 34.5859 76.7734 33.1432 76.7734 31.2891C76.7734 30.1016 77.0104 29.0625 77.4844 28.1719C77.9635 27.276 78.651 26.5938 79.5469 26.125C80.4427 25.651 81.4922 25.4141 82.6953 25.4141C83.9141 25.4141 85.0495 25.638 86.1016 26.0859L85.5859 27.2578C84.5547 26.8203 83.5625 26.6016 82.6094 26.6016C81.2188 26.6016 80.1328 27.0156 79.3516 27.8438C78.5703 28.6719 78.1797 29.8203 78.1797 31.2891C78.1797 32.8307 78.5547 34 79.3047 34.7969C80.0599 35.5938 81.1667 35.9922 82.625 35.9922C83.4167 35.9922 84.1901 35.901 84.9453 35.7188V32.2031H82.3906V31.0156ZM88.8474 37V25.5781H90.1756V37H88.8474ZM102.062 37H100.546L94.3043 27.4141H94.2418C94.3251 28.5391 94.3668 29.5703 94.3668 30.5078V37H93.1402V25.5781H94.6402L100.867 35.125H100.929C100.919 34.9844 100.895 34.5339 100.859 33.7734C100.822 33.0078 100.809 32.4609 100.82 32.1328V25.5781H102.062V37Z" fill="#C94B32"/>
<path d="M49.5 31C49.5 25.201 44.799 20.5 39 20.5C33.201 20.5 28.5 25.201 28.5 31C28.5 36.799 33.201 41.5 39 41.5C44.799 41.5 49.5 36.799 49.5 31Z" stroke="#C94B32" stroke-linecap="round" stroke-linejoin="round"/>
<path d="M39.1 32.92C40.9281 32.92 42.41 31.4381 42.41 29.61C42.41 27.782 40.9281 26.3 39.1 26.3C37.272 26.3 35.79 27.782 35.79 29.61C35.79 31.4381 37.272 32.92 39.1 32.92Z" stroke="#C94B32" stroke-miterlimit="10" stroke-linecap="round"/>
<path d="M43.5 40.11C43.5 37.63 41.49 35.61 39 35.61C36.51 35.61 34.5 37.62 34.5 40.11" stroke="#C94B32" stroke-miterlimit="10" stroke-linecap="round"/>
<defs>
<filter id="filter0_dd_103_3920" x="0" y="0" width="133" height="60" filterUnits="userSpaceOnUse" color-interpolation-filters="sRGB">
<feFlood flood-opacity="0" result="BackgroundImageFix"/>
<feColorMatrix in="SourceAlpha" type="matrix" values="0 0 0 0 0 0 0 0 0 0 0 0 0 0 0 0 0 0 127 0" result="hardAlpha"/>
<feOffset dx="-3" dy="-3"/>
<feGaussianBlur stdDeviation="4"/>
<feComposite in2="hardAlpha" operator="out"/>
<feColorMatrix type="matrix" values="0 0 0 0 0.788235 0 0 0 0 0.294118 0 0 0 0 0.196078 0 0 0 0.1 0"/>
<feBlend mode="normal" in2="BackgroundImageFix" result="effect1_dropShadow_103_3920"/>
<feColorMatrix in="SourceAlpha" type="matrix" values="0 0 0 0 0 0 0 0 0 0 0 0 0 0 0 0 0 0 127 0" result="hardAlpha"/>
<feOffset dx="3" dy="5"/>
<feGaussianBlur stdDeviation="2"/>
<feComposite in2="hardAlpha" operator="out"/>
<feColorMatrix type="matrix" values="0 0 0 0 0.105882 0 0 0 0 0.168627 0 0 0 0 0.254902 0 0 0 0.05 0"/>
<feBlend mode="normal" in2="effect1_dropShadow_103_3920" result="effect2_dropShadow_103_3920"/>
<feBlend mode="normal" in="SourceGraphic" in2="effect2_dropShadow_103_3920" result="shape"/>
</filter>
</defs>
</svg>
