<svg width="96" height="21" viewBox="0 0 96 21" fill="none" xmlns="http://www.w3.org/2000/svg">
<path d="M16.023 11.357C16.023 12.0619 15.743 12.738 15.2445 13.2364C14.746 13.7349 14.0699 14.015 13.365 14.015H12.635C11.93 14.015 11.2538 13.7349 10.7552 13.2365C10.2565 12.7381 9.97626 12.062 9.976 11.357C9.97573 10.6522 9.69558 9.97636 9.19714 9.47811C8.69869 8.97985 8.02277 8.69995 7.318 8.69995H3.788C3.44657 8.69995 3.11912 8.83551 2.8776 9.07684C2.63608 9.31817 2.50027 9.64553 2.5 9.98695V16.426C2.49987 16.7244 2.55853 17.02 2.67264 17.2959C2.78675 17.5717 2.95406 17.8223 3.16504 18.0335C3.37601 18.2447 3.62651 18.4122 3.90224 18.5265C4.17796 18.6409 4.47351 18.6998 4.772 18.7H21.227C21.5256 18.7 21.8212 18.6411 22.0971 18.5268C22.3729 18.4125 22.6235 18.245 22.8346 18.0339C23.0457 17.8227 23.2131 17.572 23.3273 17.2961C23.4414 17.0202 23.5001 16.7245 23.5 16.426V9.98695C23.4995 9.64543 23.3634 9.31809 23.1218 9.07678C22.8801 8.83548 22.5525 8.69995 22.211 8.69995H18.681C17.9762 8.69995 17.3003 8.97985 16.8019 9.47811C16.3034 9.97636 16.0233 10.6522 16.023 11.357V11.357Z" stroke="#C94B32" stroke-linecap="round"/>
<path d="M3.54492 8.61994V5.64294H22.5449V8.61994" stroke="#C94B32" stroke-linecap="round"/>
<path d="M4.76758 5.065V2.5H21.1396V5.065" stroke="#C94B32" stroke-linecap="round"/>
<path d="M48.5391 16H47.2266L44.9219 8.35156C44.8125 8.01302 44.6901 7.58594 44.5547 7.07031C44.4193 6.55469 44.349 6.24479 44.3438 6.14062C44.2292 6.82812 44.0469 7.58073 43.7969 8.39844L41.5625 16H40.25L37.2109 4.57812H38.6172L40.4219 11.6328C40.6719 12.6224 40.8542 13.5182 40.9688 14.3203C41.1094 13.3672 41.3177 12.4349 41.5938 11.5234L43.6406 4.57812H45.0469L47.1953 11.5859C47.4453 12.3932 47.6562 13.3047 47.8281 14.3203C47.9271 13.5807 48.1146 12.6797 48.3906 11.6172L50.1875 4.57812H51.5938L48.5391 16ZM60.3865 16L58.9646 12.3672H54.3865L52.9803 16H51.6365L56.1521 4.53125H57.2693L61.7615 16H60.3865ZM58.5506 11.1719L57.2224 7.63281C57.0506 7.1849 56.8735 6.63542 56.6912 5.98438C56.5766 6.48438 56.4125 7.03385 56.199 7.63281L54.8553 11.1719H58.5506ZM63.1558 16V4.57812H64.4839V14.7969H69.523V16H63.1558ZM71.2923 16V4.57812H72.6204V14.7969H77.6595V16H71.2923ZM85.796 16H79.4288V4.57812H85.796V5.75781H80.7569V9.4375H85.4913V10.6094H80.7569V14.8125H85.796V16ZM91.6747 16H90.3466V5.75781H86.7294V4.57812H95.2919V5.75781H91.6747V16Z" fill="#C94B32"/>
</svg>
